<svg xmlns="http://www.w3.org/2000/svg" width="174" height="174" viewBox="0 0 174 174">
  <g id="Group_1263" data-name="Group 1263" transform="translate(-1049 -3633)">
    <circle id="Ellipse_1206" data-name="Ellipse 1206" cx="87" cy="87" r="87" transform="translate(1049 3633)" fill="#2374ff" opacity="0.7"/>
    <g id="Group_39" data-name="Group 39" transform="translate(0 773)">
      <rect id="Rectangle_158" data-name="Rectangle 158" width="74" height="97" rx="10" transform="translate(1099 2899)" fill="#fff"/>
      <rect id="Rectangle_198" data-name="Rectangle 198" width="64" height="97" rx="10" transform="translate(1104 2904)" fill="#fff" opacity="0.4"/>
      <rect id="Rectangle_162" data-name="Rectangle 162" width="56" height="2" rx="1" transform="translate(1108 2945)" fill="#82b0ff"/>
      <rect id="Rectangle_167" data-name="Rectangle 167" width="56" height="2" rx="1" transform="translate(1108 2955)" fill="#82b0ff"/>
      <rect id="Rectangle_171" data-name="Rectangle 171" width="36" height="2" rx="1" transform="translate(1108 2965)" fill="#82b0ff"/>
      <rect id="Rectangle_172" data-name="Rectangle 172" width="20" height="2" rx="1" transform="translate(1108 2977)" fill="#82b0ff"/>
      <rect id="Rectangle_173" data-name="Rectangle 173" width="13" height="2" rx="1" transform="translate(1108 2981)" fill="#82b0ff"/>
      <circle id="Ellipse_1203" data-name="Ellipse 1203" cx="11" cy="11" r="11" transform="translate(1109 2909)" fill="#82b0ff"/>
      <circle id="Ellipse_1204" data-name="Ellipse 1204" cx="4" cy="4" r="4" transform="translate(1116 2913)" fill="#fff"/>
      <ellipse id="Ellipse_1205" data-name="Ellipse 1205" cx="9.11" cy="7.808" rx="9.11" ry="7.808" transform="translate(1110.89 2920.521)" fill="#fff"/>
      <rect id="Rectangle_163" data-name="Rectangle 163" width="56" height="4" rx="2" transform="translate(1108 2935)" fill="#82b0ff"/>
      <rect id="Rectangle_164" data-name="Rectangle 164" width="56" height="2" rx="1" transform="translate(1108 2950)" fill="#82b0ff"/>
      <rect id="Rectangle_166" data-name="Rectangle 166" width="56" height="2" rx="1" transform="translate(1108 2960)" fill="#82b0ff"/>
    </g>
  </g>
</svg>
