<svg xmlns="http://www.w3.org/2000/svg" width="174" height="174" viewBox="0 0 174 174">
  <g id="Group_1262" data-name="Group 1262" transform="translate(-695 -3633)">
    <circle id="Ellipse_1202" data-name="Ellipse 1202" cx="87" cy="87" r="87" transform="translate(695 3633)" fill="#8656e9" opacity="0.7"/>
    <g id="Group_40" data-name="Group 40" transform="translate(0 773)">
      <rect id="Rectangle_158" data-name="Rectangle 158" width="74" height="97" rx="10" transform="translate(745 2899)" fill="#fff"/>
      <rect id="Rectangle_191" data-name="Rectangle 191" width="64" height="97" rx="10" transform="translate(750 2904)" fill="#fff" opacity="0.4"/>
      <rect id="Rectangle_192" data-name="Rectangle 192" width="56" height="4" rx="2" transform="translate(754 2909)" fill="#b99cf3"/>
      <rect id="Rectangle_193" data-name="Rectangle 193" width="56" height="46" rx="7" transform="translate(754 2918)" fill="#b99cf3"/>
      <rect id="Rectangle_194" data-name="Rectangle 194" width="1.5" height="46" transform="translate(768 2918)" fill="#fff"/>
      <rect id="Rectangle_195" data-name="Rectangle 195" width="1.5" height="56" transform="translate(754 2930) rotate(-90)" fill="#fff"/>
      <rect id="Rectangle_196" data-name="Rectangle 196" width="1.5" height="56" transform="translate(754 2942) rotate(-90)" fill="#fff"/>
      <rect id="Rectangle_197" data-name="Rectangle 197" width="1.5" height="56" transform="translate(754 2954) rotate(-90)" fill="#fff"/>
      <g id="Group_35" data-name="Group 35" transform="translate(281 2776.302)">
        <g id="Group_31" data-name="Group 31" transform="translate(491 192)">
          <path id="Path_312" data-name="Path 312" d="M803.422,251.4l-.87-.668.668-.87a.585.585,0,0,0-.241-.9l-1.013-.42.42-1.013a.586.586,0,0,0-.465-.8l-1.087-.143.143-1.087a.586.586,0,0,0-.657-.657l-.465.061V258.83l.465.061a.585.585,0,0,0,.657-.657l-.143-1.087,1.087-.143a.586.586,0,0,0,.465-.8l-.42-1.013,1.013-.42a.585.585,0,0,0,.241-.9l-.668-.87.87-.668a.586.586,0,0,0,0-.929Zm0,0" transform="translate(-784.253 -242.168)" fill="#a98be6"/>
          <path id="Path_313" data-name="Path 313" d="M505.836,209.668l.143-1.087.623.082a.608.608,0,0,0,.274-.6l-.126-1.087.956-.143a.594.594,0,0,0,.409-.8l-.369-1.013.891-.42a.625.625,0,0,0,.212-.9l-.587-.87.765-.668a.637.637,0,0,0,0-.929l-.765-.668.587-.87a.625.625,0,0,0-.212-.9l-.891-.42.369-1.013a.594.594,0,0,0-.409-.8l-.956-.143.126-1.087a.608.608,0,0,0-.274-.6l-.623.082-.012-.094-.131-.994a.586.586,0,0,0-.8-.465l-1.013.42-.42-1.013a.586.586,0,0,0-.9-.241l-.87.668-.667-.87a.586.586,0,0,0-.929,0l-.668.87-.87-.668a.585.585,0,0,0-.9.241l-.42,1.013-1.013-.42a.586.586,0,0,0-.8.465l-.143,1.087-1.087-.143a.586.586,0,0,0-.657.657l.143,1.087-1.087.143a.586.586,0,0,0-.465.8l.42,1.013-1.013.42a.585.585,0,0,0-.241.9l.668.87-.87.668a.586.586,0,0,0,0,.929l.87.668-.668.87a.585.585,0,0,0,.241.9l1.013.42-.42,1.013a.586.586,0,0,0,.465.8l1.087.143-.143,1.087a.585.585,0,0,0,.657.657l1.087-.143.143,1.087a.586.586,0,0,0,.8.465l1.013-.42.42,1.013a.585.585,0,0,0,.9.241l.87-.668.668.87a.586.586,0,0,0,.929,0l.668-.87.87.668a.585.585,0,0,0,.9-.241l.42-1.013,1.013.42a.586.586,0,0,0,.8-.465Zm0,0" transform="translate(-491 -192)" fill="#b99cf3"/>
        </g>
        <path id="Path_314" data-name="Path 314" d="M696.35,395.008a2.342,2.342,0,1,0,2.342,2.342,2.342,2.342,0,0,0-2.342-2.342Zm0,3.513a1.171,1.171,0,1,1,1.171-1.171,1.171,1.171,0,0,1-1.171,1.171Zm0,0" transform="translate(-192.753 -192.753)" fill="#fff"/>
        <path id="Path_315" data-name="Path 315" d="M581.619,280.277a2.342,2.342,0,1,0,2.342,2.342,2.342,2.342,0,0,0-2.342-2.342Zm0,3.513a1.171,1.171,0,1,1,1.171-1.171,1.171,1.171,0,0,1-1.171,1.171Zm0,0" transform="translate(-83.818 -83.818)" fill="#fff"/>
        <path id="Path_316" data-name="Path 316" d="M595.368,304.9a.586.586,0,0,1,0-.828l7.7-7.7a.585.585,0,0,1,.828.828l-7.7,7.7a.586.586,0,0,1-.828,0Zm0,0" transform="translate(-98.934 -98.934)" fill="#fff"/>
      </g>
    </g>
  </g>
</svg>
