<svg xmlns="http://www.w3.org/2000/svg" width="235" height="235" viewBox="0 0 235 235">
  <g id="Group_1261" data-name="Group 1261" transform="translate(-370 -581)">
    <circle id="Ellipse_1201" data-name="Ellipse 1201" cx="117.5" cy="117.5" r="117.5" transform="translate(370 581)" fill="#fb8296" opacity="0.7"/>
    <g id="Group_1250" data-name="Group 1250" transform="translate(397 662)">
      <path id="Path_1466" data-name="Path 1466" d="M91,0A27.03,27.03,0,0,0,64,27c0,19.919,24.911,43.594,25.972,44.593a1.5,1.5,0,0,0,2.057,0C93.089,70.594,118,46.919,118,27A27.03,27.03,0,0,0,91,0Z" fill="#fff"/>
      <path id="Path_1467" data-name="Path 1467" d="M164.333,85.333a15,15,0,1,0,15,15A15.018,15.018,0,0,0,164.333,85.333Z" transform="translate(-73.333 -73.333)" fill="#fca3ae"/>
    </g>
  </g>
</svg>
