<svg xmlns="http://www.w3.org/2000/svg" width="235" height="235" viewBox="0 0 235 235">
  <g id="Group_1263" data-name="Group 1263" transform="translate(-1314 -581)">
    <circle id="Ellipse_1258" data-name="Ellipse 1258" cx="117.5" cy="117.5" r="117.5" transform="translate(1314 581)" fill="#6498fc" opacity="0.7"/>
    <g id="Group_1260" data-name="Group 1260" transform="translate(904 470)">
      <path id="Path_1474" data-name="Path 1474" d="M554.163,202.837A37,37,0,1,0,565,229a36.761,36.761,0,0,0-10.837-26.163Zm-28.331-2.309h4.336v7.8h-4.336Zm-18.508,30.641h-7.8v-4.336h7.8Zm22.844,26.3h-4.336v-7.8h4.336Zm5.2-28.473a7.371,7.371,0,1,1-13.812-3.579l-13.575-14.143,3.128-3,13.576,14.142a7.346,7.346,0,0,1,7.2.323l6.589-5.735,2.846,3.271-6.588,5.734a7.317,7.317,0,0,1,.636,2.989Zm13.3,2.168v-4.336h7.8v4.336Zm0,0" transform="translate(0 0)" fill="#fff"/>
      <path id="Path_1475" data-name="Path 1475" d="M673.32,371.285a3.035,3.035,0,1,1-3.035-3.035,3.035,3.035,0,0,1,3.035,3.035Zm0,0" transform="translate(-142.285 -142.285)" fill="#fff"/>
    </g>
  </g>
</svg>
