<svg xmlns="http://www.w3.org/2000/svg" width="235" height="235" viewBox="0 0 235 235">
  <g id="Group_1262" data-name="Group 1262" transform="translate(-842 -581)">
    <circle id="Ellipse_1256" data-name="Ellipse 1256" cx="117.5" cy="117.5" r="117.5" transform="translate(842 581)" fill="#a281ef" opacity="0.7"/>
    <path id="Path_1476" data-name="Path 1476" d="M119.186,103.383a34.065,34.065,0,0,1-10.7-1.7,4.89,4.89,0,0,0-4.756,1l-6.746,5.093A37.283,37.283,0,0,1,80.222,91.015l4.943-6.571a4.85,4.85,0,0,0,1.193-4.914,34.114,34.114,0,0,1-1.711-10.716A4.82,4.82,0,0,0,79.833,64H68.815A4.82,4.82,0,0,0,64,68.815,55.248,55.248,0,0,0,119.186,124,4.82,4.82,0,0,0,124,119.186V108.2A4.82,4.82,0,0,0,119.186,103.383Z" transform="translate(866 605)" fill="#fff"/>
  </g>
</svg>
