<svg xmlns="http://www.w3.org/2000/svg" width="250" height="370" viewBox="0 0 250 370">
  <g id="Group_8" data-name="Group 8" transform="translate(-1466 -479)">
    <rect id="Rectangle_77" data-name="Rectangle 77" width="250" height="370" transform="translate(1466 479)" fill="#fff"/>
    <text id="Contact" transform="translate(1521 512)" fill="#1d1d1d" font-size="20" font-family="Poppins-Regular, Poppins"><tspan x="0" y="0">Contact</tspan></text>
    <text id="blocks" transform="translate(1521 553)" fill="#c5c4c5" font-size="13" font-family="Poppins-Regular, Poppins" letter-spacing="0.05em"><tspan x="0" y="0">BLOCKS</tspan></text>
    <text id="blocks-2" data-name="blocks" transform="translate(1521 735)" fill="#c5c4c5" font-size="13" font-family="Poppins-Regular, Poppins" letter-spacing="0.05em"><tspan x="0" y="0">BLOCKS</tspan></text>
    <line id="Line_7" data-name="Line 7" y2="370" transform="translate(1506 479)" fill="none" stroke="#e8e8e8" stroke-width="1"/>
    <circle id="Ellipse_1101" data-name="Ellipse 1101" cx="8" cy="8" r="8" transform="translate(1478 497)" fill="#3763ec"/>
    <rect id="Rectangle_78" data-name="Rectangle 78" width="7.5" height="1.5" transform="translate(1482 504)" fill="#fff"/>
    <rect id="Rectangle_79" data-name="Rectangle 79" width="7.5" height="1.5" transform="translate(1486.5 501) rotate(90)" fill="#fff"/>
    <rect id="Rectangle_80" data-name="Rectangle 80" width="16" height="2" transform="translate(1478 546)" fill="#d2d2d2"/>
    <rect id="Rectangle_85" data-name="Rectangle 85" width="16" height="2" transform="translate(1478 558)" fill="#d2d2d2"/>
    <rect id="Rectangle_83" data-name="Rectangle 83" width="16" height="2" transform="translate(1478 552)" fill="#d2d2d2"/>
    <rect id="Rectangle_81" data-name="Rectangle 81" width="4" height="2" transform="translate(1483 545) rotate(90)" fill="#d2d2d2"/>
    <rect id="Rectangle_84" data-name="Rectangle 84" width="4" height="2" transform="translate(1483 557) rotate(90)" fill="#d2d2d2"/>
    <rect id="Rectangle_82" data-name="Rectangle 82" width="4" height="2" transform="translate(1491 551) rotate(90)" fill="#d2d2d2"/>
    <line id="Line_9" data-name="Line 9" x2="250" transform="translate(1466 528.5)" fill="none" stroke="#e8e8e8" stroke-width="1"/>
    <rect id="Rectangle_86" data-name="Rectangle 86" width="88" height="30" rx="5" transform="translate(1521 568)" fill="#323c79"/>
    <rect id="Rectangle_89" data-name="Rectangle 89" width="88" height="30" rx="5" transform="translate(1521 604)" fill="#323c79"/>
    <rect id="Rectangle_93" data-name="Rectangle 93" width="87" height="30" rx="5" transform="translate(1521 750)" fill="#eee8df"/>
    <rect id="Rectangle_91" data-name="Rectangle 91" width="88" height="30" rx="5" transform="translate(1521 640)" fill="#323c79"/>
    <rect id="Rectangle_96" data-name="Rectangle 96" width="87" height="30" rx="5" transform="translate(1521 786)" fill="#eee8df"/>
    <rect id="Rectangle_92" data-name="Rectangle 92" width="88" height="30" rx="5" transform="translate(1521 676)" fill="#323c79"/>
    <rect id="Rectangle_87" data-name="Rectangle 87" width="87" height="30" rx="5" transform="translate(1614 568)" fill="#323c79"/>
    <rect id="Rectangle_88" data-name="Rectangle 88" width="87" height="30" rx="5" transform="translate(1614 604)" fill="#323c79"/>
    <rect id="Rectangle_94" data-name="Rectangle 94" width="87" height="30" rx="5" transform="translate(1614 750)" fill="#eee8df"/>
    <rect id="Rectangle_90" data-name="Rectangle 90" width="87" height="30" rx="5" transform="translate(1614 640)" fill="#323c79"/>
    <g id="Rectangle_97" data-name="Rectangle 97" transform="translate(1478 576)" fill="none" stroke="#d2d2d2" stroke-width="1.5">
      <rect width="16" height="12" stroke="none"/>
      <rect x="0.75" y="0.75" width="14.5" height="10.5" fill="none"/>
    </g>
    <g id="Group_9" data-name="Group 9" transform="translate(2184 326)">
      <rect id="Rectangle_98" data-name="Rectangle 98" width="1.5" height="6" transform="translate(-703 253)" fill="#d2d2d2"/>
      <rect id="Rectangle_99" data-name="Rectangle 99" width="3" height="1.5" transform="translate(-703 253)" fill="#d2d2d2"/>
      <rect id="Rectangle_100" data-name="Rectangle 100" width="3" height="1.5" transform="translate(-703 258)" fill="#d2d2d2"/>
    </g>
    <g id="Group_8-2" data-name="Group 8" transform="translate(2185 326)">
      <rect id="Rectangle_102" data-name="Rectangle 102" width="1.5" height="6" transform="translate(-695.5 253)" fill="#d2d2d2"/>
      <rect id="Rectangle_103" data-name="Rectangle 103" width="3" height="1.5" transform="translate(-697 253)" fill="#d2d2d2"/>
      <rect id="Rectangle_101" data-name="Rectangle 101" width="3" height="1.5" transform="translate(-697 258)" fill="#d2d2d2"/>
    </g>
    <path id="Path_101" data-name="Path 101" d="M-697.942,277.055s-2.374-5.064.68-4.856c3.4,1.263,6.471-1.621,4.564-5.05-2.816-4.662-10.389-4.392-12.229.69a7.414,7.414,0,0,0,4.46,9.216C-696.882,278.307-697.942,277.055-697.942,277.055Z" transform="translate(2184.196 338.937)" fill="#d2d2d2"/>
    <ellipse id="Ellipse_1102" data-name="Ellipse 1102" cx="1.009" cy="1.009" rx="1.009" ry="1.009" transform="translate(1480.207 606.975)" fill="#fff"/>
    <ellipse id="Ellipse_1103" data-name="Ellipse 1103" cx="1.009" cy="1.009" rx="1.009" ry="1.009" transform="translate(1484.245 604.957)" fill="#fff"/>
    <ellipse id="Ellipse_1104" data-name="Ellipse 1104" cx="1.009" cy="1.009" rx="1.009" ry="1.009" transform="translate(1488.282 606.975)" fill="#fff"/>
  </g>
</svg>
