<svg xmlns="http://www.w3.org/2000/svg" xmlns:xlink="http://www.w3.org/1999/xlink" width="738" height="769" viewBox="0 0 738 769">
  <defs>
    <filter id="Rectangle_1" x="0" y="0" width="568" height="698" filterUnits="userSpaceOnUse">
      <feOffset dy="43" input="SourceAlpha"/>
      <feGaussianBlur stdDeviation="33" result="blur"/>
      <feFlood flood-opacity="0.102"/>
      <feComposite operator="in" in2="blur"/>
      <feComposite in="SourceGraphic"/>
    </filter>
    <filter id="Path_75" x="312.867" y="68.567" width="219.133" height="219.13" filterUnits="userSpaceOnUse">
      <feOffset dy="20" input="SourceAlpha"/>
      <feGaussianBlur stdDeviation="25" result="blur-2"/>
      <feFlood flood-opacity="0.161"/>
      <feComposite operator="in" in2="blur-2"/>
      <feComposite in="SourceGraphic"/>
    </filter>
    <filter id="Rectangle_77" x="290" y="201" width="448" height="568" filterUnits="userSpaceOnUse">
      <feOffset dy="43" input="SourceAlpha"/>
      <feGaussianBlur stdDeviation="33" result="blur-3"/>
      <feFlood flood-opacity="0.102"/>
      <feComposite operator="in" in2="blur-3"/>
      <feComposite in="SourceGraphic"/>
    </filter>
  </defs>
  <g id="Group_1261" data-name="Group 1261" transform="translate(-963 -230)">
    <g id="Group_13" data-name="Group 13" transform="translate(0 3)">
      <g transform="matrix(1, 0, 0, 1, 963, 227)" filter="url(#Rectangle_1)">
        <rect id="Rectangle_1-2" data-name="Rectangle 1" width="370" height="500" rx="20" transform="translate(99 56)" fill="#fff"/>
      </g>
      <text id="Our_Services" data-name="Our Services" transform="translate(1102 355)" fill="#1d1d1d" font-size="25" font-family="Poppins"><tspan x="0" y="0">Our Services</tspan></text>
      <g id="Rectangle_4" data-name="Rectangle 4" transform="translate(1102 583)" fill="#fff" stroke="#707070" stroke-width="1" stroke-dasharray="5 3" opacity="0.3">
        <rect width="290" height="90" rx="10" stroke="none"/>
        <rect x="0.5" y="0.5" width="289" height="89" rx="9.5" fill="none"/>
      </g>
      <rect id="Rectangle_5" data-name="Rectangle 5" width="290" height="168" rx="10" transform="translate(1102 385)" fill="#dcf1f9"/>
      <text id="Lorem_ipsum_dolor_sit_amet_consetetur_sadipscing._elitr_sed_diam_nonumy._eirmod_tempor_invidunt_ut_labore_et_dolore_magna_aliquyam_erat._sed_diam_voluptua._At" data-name="Lorem ipsum dolor sit amet, consetetur sadipscing.
 elitr sed diam nonumy.
 eirmod tempor invidunt ut labore et dolore magna aliquyam erat.
, sed diam voluptua. At" transform="translate(1118 603)" fill="#1d1d1d" font-size="15" font-family="Poppins-Regular, Poppins"><tspan x="0" y="16">Lorem ipsum dolor sit amet, </tspan><tspan x="0" y="44">consetetur sadipscing.</tspan></text>
      <g transform="matrix(1, 0, 0, 1, 963, 227)" filter="url(#Path_75)">
        <path id="Path_75-2" data-name="Path 75" d="M1407.257,332.273a34.565,34.565,0,1,0,34.565,34.565A34.567,34.567,0,0,0,1407.257,332.273Zm0,49.052a14.486,14.486,0,1,1,14.484-14.487A14.486,14.486,0,0,1,1407.257,381.325Z" transform="translate(-984.82 -208.71)" fill="#fcce44"/>
      </g>
      <g id="Group_6" data-name="Group 6" transform="translate(1156 396)">
        <g id="background" transform="translate(0)">
          <g id="background-2" data-name="background">
            <path id="Path_2" data-name="Path 2" d="M38.869,702.328a1.047,1.047,0,1,0-.183-.016h0A1.037,1.037,0,0,0,38.869,702.328Zm0-1.793a.754.754,0,0,1,.132.011.75.75,0,0,1-.26,1.478h0a.75.75,0,0,1,.129-1.489Z" transform="translate(134.112 -563.782)"/>
            <ellipse id="Ellipse_2" data-name="Ellipse 2" cx="0.999" cy="0.999" rx="0.999" ry="0.999" transform="translate(97.866 132.572)" fill="#9050a6"/>
            <path id="Path_3" data-name="Path 3" d="M50.472,285.609a1.6,1.6,0,1,0-1.533-1.134h0A1.605,1.605,0,0,0,50.472,285.609Zm0-2.913a1.31,1.31,0,1,1-1.255,1.694h0a1.31,1.31,0,0,1,.87-1.636A1.321,1.321,0,0,1,50.473,282.7Zm-1.395,1.737h0Z" transform="translate(119.797 -227.369)"/>
            <path id="Path_4" data-name="Path 4" d="M372.5,333.478a.884.884,0,0,0,.257-.039.874.874,0,1,0-1.092-.58h0a.876.876,0,0,0,.835.619Zm0-1.457a.582.582,0,1,1-.557.753.583.583,0,0,1,.557-.753Zm-.7.8h0Z" transform="translate(-264.403 -267.083)"/>
            <circle id="Ellipse_3" data-name="Ellipse 3" cx="0.81" cy="0.81" r="0.81" transform="translate(121.853 19.608)" fill="#9050a6"/>
            <circle id="Ellipse_4" data-name="Ellipse 4" cx="1.732" cy="1.732" r="1.732" transform="translate(177.929 95.836)" fill="#9050a6"/>
            <circle id="Ellipse_5" data-name="Ellipse 5" cx="1.235" cy="1.235" r="1.235" transform="translate(40.709 5.107)" fill="#9050a6"/>
            <circle id="Ellipse_6" data-name="Ellipse 6" cx="1.235" cy="1.235" r="1.235" transform="translate(0 74.173)" fill="#9050a6"/>
            <path id="Path_5" data-name="Path 5" d="M24.85,23.059a.146.146,0,0,0,.1-.043l2.884-2.884a.146.146,0,0,0,0-.207l-2.884-2.884a.151.151,0,0,0-.207,0l-2.884,2.884a.146.146,0,0,0,0,.207l2.884,2.884A.146.146,0,0,0,24.85,23.059Zm2.677-3.03L24.85,22.707l-2.678-2.678,2.678-2.678Z" transform="translate(149.262 -13.687)"/>
            <path id="Path_6" data-name="Path 6" d="M186.6,576.574a.146.146,0,0,0,.1-.043l1.584-1.584a.146.146,0,0,0,0-.207l-1.584-1.583a.146.146,0,0,0-.207,0l-1.584,1.583a.146.146,0,0,0,0,.207l1.584,1.584A.146.146,0,0,0,186.6,576.574Zm1.377-1.73-1.377,1.377-1.377-1.377,1.377-1.377Z" transform="translate(-42.967 -461.429)"/>
            <path id="Path_7" data-name="Path 7" d="M548.515,343.342a.146.146,0,0,0,.082-.026l1.506-1.031a.146.146,0,0,0,.038-.2l-1.031-1.506a.146.146,0,0,0-.2-.038L547.4,341.57a.146.146,0,0,0-.038.2l1.031,1.506A.146.146,0,0,0,548.515,343.342Zm1.3-1.215-1.265.866-.866-1.265,1.265-.866Z" transform="translate(-475.436 -274.155)"/>
            <path id="Path_8" data-name="Path 8" d="M385.323,169.048a.145.145,0,0,0,.082-.026l1.986-1.36a.146.146,0,0,0,.038-.2l-1.36-1.986a.146.146,0,0,0-.2-.038l-1.986,1.36a.147.147,0,0,0-.038.2l1.36,1.986A.146.146,0,0,0,385.323,169.048Zm1.783-1.544-1.745,1.195-1.195-1.745,1.745-1.195Z" transform="translate(-280.858 -133.175)"/>
            <path id="Path_9" data-name="Path 9" d="M865.46,85.432l.029,0a.147.147,0,0,0,.093-.063l1.578-2.378a.147.147,0,0,0-.041-.2l-2.378-1.578a.149.149,0,0,0-.11-.021.147.147,0,0,0-.093.063l-1.578,2.378a.146.146,0,0,0,.041.2l2.378,1.578A.146.146,0,0,0,865.46,85.432Zm1.376-2.483-1.417,2.134-2.134-1.417,1.417-2.134Z" transform="translate(-853.956 -65.363)"/>
            <path id="Path_10" data-name="Path 10" d="M850.541,600.04l.021,0a.146.146,0,0,0,.1-.057l2.044-2.727a.146.146,0,0,0-.029-.2l-2.727-2.044a.146.146,0,0,0-.2.029l-2.044,2.726a.146.146,0,0,0,.029.2l2.726,2.044A.145.145,0,0,0,850.541,600.04Zm1.84-2.843-1.869,2.493-2.492-1.869,1.869-2.492Z" transform="translate(-836.528 -479.03)"/>
            <path id="Path_11" data-name="Path 11" d="M798.729,149.586a.146.146,0,0,0,.134-.087l1.9-4.32a.146.146,0,1,0-.268-.118l-1.9,4.32a.146.146,0,0,0,.134.205Z" transform="translate(-775.01 -116.722)"/>
            <path id="Path_12" data-name="Path 12" d="M504.049,181.455a.146.146,0,0,0,.136-.2l-1.709-4.4a.146.146,0,0,0-.273.106l1.709,4.4A.146.146,0,0,0,504.049,181.455Z" transform="translate(-420.667 -142.316)"/>
            <path id="Path_13" data-name="Path 13" d="M511.333,721.888a.146.146,0,0,0,.031-.289l-4.609-1.022a.146.146,0,1,0-.063.285l4.609,1.022A.157.157,0,0,0,511.333,721.888Z" transform="translate(-428.806 -580.151)"/>
            <path id="Path_14" data-name="Path 14" d="M417.554,50.285a.144.144,0,0,0,.078-.023.146.146,0,0,0,.045-.2l-2.533-3.984a.146.146,0,0,0-.247.157l2.533,3.984A.146.146,0,0,0,417.554,50.285Z" transform="translate(-317.156 -37.042)"/>
            <path id="Path_15" data-name="Path 15" d="M657.72,103.67a.146.146,0,0,0,.123-.225l-2.533-3.984a.146.146,0,0,0-.247.157L657.6,103.6A.146.146,0,0,0,657.72,103.67Z" transform="translate(-604.124 -80.024)"/>
            <path id="Path_16" data-name="Path 16" d="M205.218,4.715a.146.146,0,0,0,.137-.1L207,.2a.146.146,0,0,0-.274-.1l-1.649,4.423a.146.146,0,0,0,.137.2Z" transform="translate(-65.583 0)"/>
            <path id="Path_17" data-name="Path 17" d="M346.763,644.6a.146.146,0,0,0,.1-.04l3.44-3.234a.146.146,0,0,0-.2-.213l-3.439,3.234a.146.146,0,0,0,.1.253Z" transform="translate(-236.502 -516.145)"/>
            <path id="Path_18" data-name="Path 18" d="M324.108,470.5a.146.146,0,0,0,.134-.2l-1.855-4.341a.146.146,0,0,0-.269.115l1.855,4.341A.146.146,0,0,0,324.108,470.5Z" transform="translate(-205.632 -375.078)"/>
            <path id="Path_19" data-name="Path 19" d="M542.788,598.312a.146.146,0,0,0,.143-.117l.922-4.63a.146.146,0,0,0-.287-.057l-.922,4.63a.146.146,0,0,0,.115.172Z" transform="translate(-468.21 -477.753)"/>
            <path id="Path_20" data-name="Path 20" d="M719.737,627.2a.146.146,0,0,0,.115-.237l-2.933-3.7a.146.146,0,0,0-.229.182l2.933,3.7A.147.147,0,0,0,719.737,627.2Z" transform="translate(-678.149 -501.763)"/>
            <path id="Path_21" data-name="Path 21" d="M830.163,717.666a.146.146,0,0,0,.115-.056l2.909-3.718a.146.146,0,1,0-.23-.18l-2.909,3.718a.146.146,0,0,0,.115.236Z" transform="translate(-813.576 -574.581)"/>
            <path id="Path_22" data-name="Path 22" d="M456.264,421.2a.146.146,0,0,0,.118-.06l2.793-3.806a.146.146,0,1,0-.236-.173l-2.793,3.806a.146.146,0,0,0,.031.2A.144.144,0,0,0,456.264,421.2Z" transform="translate(-366.695 -335.822)"/>
            <path id="Path_23" data-name="Path 23" d="M63.747,411.764a.146.146,0,0,0,.128-.216L61.612,407.4a.146.146,0,0,0-.257.14l2.263,4.143A.146.146,0,0,0,63.747,411.764Z" transform="translate(105.547 -327.95)"/>
            <path id="Path_24" data-name="Path 24" d="M57.655,591.29a.146.146,0,0,0,.088-.03L61.5,588.4a.146.146,0,1,0-.177-.232l-3.755,2.86a.146.146,0,0,0,.089.262Z" transform="translate(108.63 -473.524)"/>
            <path id="Path_25" data-name="Path 25" d="M12.888,175.414a.146.146,0,0,0,.032-.289l-4.6-1.047a.146.146,0,1,0-.065.285l4.6,1.047A.144.144,0,0,0,12.888,175.414Z" transform="translate(166.773 -140.152)"/>
            <path id="Path_26" data-name="Path 26" d="M184.109,171.913a.145.145,0,0,0,.1-.041l3.392-3.283a.146.146,0,1,0-.2-.21l-3.392,3.283a.146.146,0,0,0,.1.251Z" transform="translate(-42.104 -135.533)"/>
            <path id="Path_27" data-name="Path 27" d="M255.716,340.706a.146.146,0,0,0,.115-.056l2.919-3.71a.146.146,0,1,0-.23-.181l-2.919,3.71a.146.146,0,0,0,.115.237Z" transform="translate(-127.192 -271.088)"/>
            <path id="Path_28" data-name="Path 28" d="M850.587,452.034a.146.146,0,0,0,.091-.032l3.691-2.944a.146.146,0,0,0-.182-.228l-3.69,2.944a.146.146,0,0,0,.091.26Z" transform="translate(-838.76 -361.339)"/>
            <path id="Path_29" data-name="Path 29" d="M907.065,258.719a.146.146,0,0,0,.074-.272l-4.07-2.393a.146.146,0,1,0-.148.252l4.07,2.393A.145.145,0,0,0,907.065,258.719Z" transform="translate(-901.761 -206.139)"/>
          </g>
        </g>
        <g id="general" transform="translate(12.09 10.957)">
          <g id="general-2" data-name="general" transform="translate(0)">
            <g id="man_1" data-name="man 1" transform="translate(105.459 5.959)">
              <path id="legs" d="M120.5,471.631c4.081-.01,12.2.072,14.649.072.09,0,3.122-.018,3.783-.027q-.336-3.02-.672-6.043c.364.01.729.02,1.089.031-.2-4.525-.8-20.511-.918-23.981,1.345-1.73,7.709-10.443,9.395-12.924q1.128,18.568,2.257,37.134c.285.023.75.049,1.331.07a7.236,7.236,0,0,1-.863.657,7.78,7.78,0,0,1-1.814.768c-2.286.723-3.058.378-4.143.838-.811.341-1.877,1.165-2.681,3.406,4.079-.01,12.2.072,14.649.072.09,0,3.12-.018,3.783-.027-.2-1.812.148-34.97.52-51.241-2.835-.22-21.275-1.664-21.795-1.7h0c-.959,1.553-2.062,3.365-3.26,5.39-6.655,11.25-7.386,14.084-7.692,16.35,0,0-.029.226-.053.454a48.836,48.836,0,0,0,.448,10.57q.392,3,.828,6.043.576,4.011,1.193,7.92a6.451,6.451,0,0,1-3.2,1.927c-2.288.723-3.06.378-4.145.838C122.368,468.566,121.3,469.39,120.5,471.631Z" transform="translate(-120.497 -354.047)"/>
              <path id="tshirt" d="M100.414,131.874c.019.489.051,1.043.092,1.654.1,1.386.279,3.06.589,4.948.06.39.131.789.209,1.195.129.688.249,1.339.368,1.953.867,4.492,1.586,7.15,3.818,9.222,1.183,1.1,3.085,1.9,6.9,3.494,2.368.99,4.385,1.688,5.809,2.149q-.588,5.9-1.175,11.813l-.742,7.473.01,0c1.195.035,7.039.422,10.824.77,4.431.407,8.468.732,10.972.933l.364.029c.464-4.763,1.243-12.987,1.947-20.631.573-6.168,1.089-11.96,1.354-15.255.06-.737.107-1.347.138-1.81.025-.37.06-.818.084-1.337a18.315,18.315,0,0,0-.392-4.948c-.09-.409-.2-.832-.331-1.263a16.46,16.46,0,0,0-2.04-4.159c-.577-.93-1.325-2.075-2.319-3.553-.288-.427-.594-.883-.926-1.366q-.1-.14-.193-.286c-.93-1.356-2.017-2.913-3.245-4.63-.3-.425-.616-.857-.939-1.3l-.244.136c-.9.513-3.089,1.812-4.359,2.594h0c-.158.1-.3.183-.423.259s-.232.148-.316.2c.072.121.144.244.218.372.419.719.894,1.53,1.38,2.366.058.1.111.191.168.286.836,1.419,1.692,2.876,2.368,4.036.166.283.341.579.518.883,1,1.7,2.167,3.693,3.18,5.421.232.4.46.783.672,1.146l-.532,3.8q-.219,1.576-.444,3.147-.3,2.143-.6,4.283c-.224.043-2.214.466-4.428.937-1.419.3-2.929.626-4.122.883-1.177.255-2.05.446-2.227.493l-4.264-1.14q-4.35-1.163-8.7-2.325c-.263-1.029-.524-2.072-.776-3.132q-.371-1.549-.725-3.147c-.111-.5-.218-1.008-.327-1.514q-.272-1.289-.524-2.553c-.058-.294-.117-.589-.173-.881-.117-.6-.23-1.2-.341-1.8,0-.006,0-.01,0-.016-.023,0-.045,0-.068,0h0l-2.681.07-.419.012-2,.053Z" transform="translate(-97.723 -111.093)" fill="#fee200"/>
              <g id="hand_l" data-name="hand l" transform="translate(24.025)">
                <path id="Path_30" data-name="Path 30" d="M155.7,93.811a.146.146,0,0,0,.077-.27l-.547-.341-.638-.4c-.277-.174-.528-.328-.754-.463a.864.864,0,0,1-.432-.456.777.777,0,0,1,.078-.547.931.931,0,0,1,.515-.372c.209-.085.426-.173.49-.423a.554.554,0,0,0-.033-.345.637.637,0,0,1-.038-.356.717.717,0,0,1,.128-.339.518.518,0,0,1,.324-.186.778.778,0,0,0,.436-.247.645.645,0,0,0,.147-.408.579.579,0,0,1,.1-.327.558.558,0,0,1,.214-.184,1.525,1.525,0,0,0,.292-.21,1.475,1.475,0,0,0,.4-.611c.044-.111.071-.176.119-.207.293-.193,1.278.548,1.85,1.108a24.322,24.322,0,0,1,3.405,4.25c.057.088.113.175.169.264l.013.02a.146.146,0,1,0,.241-.165c-.064-.1-.12-.189-.177-.278a24.6,24.6,0,0,0-3.446-4.3c-.265-.26-1.617-1.536-2.215-1.144a.651.651,0,0,0-.231.344,1.19,1.19,0,0,1-.326.5,1.247,1.247,0,0,1-.242.173.843.843,0,0,0-.308.27.864.864,0,0,0-.154.469.367.367,0,0,1-.08.244.511.511,0,0,1-.29.153.8.8,0,0,0-.478.292,1,1,0,0,0-.183.463.933.933,0,0,0,.05.5.283.283,0,0,1,.027.177c-.027.1-.133.151-.317.226a1.194,1.194,0,0,0-.655.491h0a1.073,1.073,0,0,0-.108.782,1.143,1.143,0,0,0,.56.622c.228.136.476.289.752.462l.638.4.547.341A.145.145,0,0,0,155.7,93.811Z" transform="translate(-152.293 -86.804)"/>
                <path id="Path_31" data-name="Path 31" d="M183.7,119.316a.146.146,0,0,0,.067-.276c-.13-.068-.341-.176-.6-.3-1.027-.5-1.861-.833-2.53-1.1-.874-.347-1.452-.577-1.455-.823,0-.181.263-.386.442-.467a1.343,1.343,0,0,1,.882.026,2.412,2.412,0,0,1,.539.208.146.146,0,0,0,.137-.258,2.7,2.7,0,0,0-.6-.233,1.588,1.588,0,0,0-1.075-.009c-.214.1-.618.375-.614.737.005.442.551.659,1.639,1.091.665.264,1.493.593,2.51,1.09.259.127.468.234.6.3A.145.145,0,0,0,183.7,119.316Z" transform="translate(-178.885 -110.301)"/>
                <path id="Path_32" data-name="Path 32" d="M153.887,118.412l0,0,.906.388,4.891-3c-.057-.09-.113-.177-.17-.265Z" transform="translate(-149.858 -109.934)"/>
              </g>
              <g id="hand_r" data-name="hand r" transform="translate(2.724 13.855)">
                <path id="Path_33" data-name="Path 33" d="M276.07,164.961h0a.14.14,0,0,0,.145-.138c0-.316,0-.612.006-.9.015-.46.043-.917.083-1.357a19.325,19.325,0,0,1,.354-2.264,7.984,7.984,0,0,1,.55-1.634c.158-.3.319-.476.442-.479a1.167,1.167,0,0,1,.546.152.932.932,0,0,1,.167.122.584.584,0,0,0,.249.146.6.6,0,0,0,.445-.047.455.455,0,0,1,.245-.053.538.538,0,0,1,.327.195.784.784,0,0,0,.537.275.5.5,0,0,0,.237-.042.588.588,0,0,1,.207-.044,1.068,1.068,0,0,1,.583.111.633.633,0,0,1,.273.316.832.832,0,0,0,.37.413.715.715,0,0,0,.36.086.693.693,0,0,1,.315.07.82.82,0,0,1,.434.371.939.939,0,0,1-.141.726c-.079.156-.159.324-.246.506l-.028.061c-.045.1-.093.2-.14.309l-.007.013h0c-.156.351-.328.748-.519,1.2a.146.146,0,1,0,.269.115c.188-.442.358-.833.512-1.18l.008-.015c.049-.11.1-.217.144-.317l.027-.059c.085-.178.164-.345.241-.5a1.189,1.189,0,0,0,.152-.966,1.067,1.067,0,0,0-.572-.524.994.994,0,0,0-.439-.1.436.436,0,0,1-.23-.052.558.558,0,0,1-.247-.288.917.917,0,0,0-.392-.438,1.359,1.359,0,0,0-.737-.147.885.885,0,0,0-.3.063.245.245,0,0,1-.12.023.509.509,0,0,1-.346-.194.814.814,0,0,0-.5-.276.725.725,0,0,0-.389.075.318.318,0,0,1-.249.035.313.313,0,0,1-.138-.085,1.192,1.192,0,0,0-.215-.156,1.448,1.448,0,0,0-.7-.191c-.245,0-.472.212-.693.636a8.306,8.306,0,0,0-.576,1.706,19.591,19.591,0,0,0-.359,2.3c-.041.446-.069.909-.084,1.375-.008.289-.01.589-.006.891A.153.153,0,0,0,276.07,164.961Z" transform="translate(-275.922 -157.9)"/>
                <path id="Path_34" data-name="Path 34" d="M269.013,175.046a.145.145,0,0,0,.107-.046l.311-.338c.082-.092.174-.194.27-.307a17.405,17.405,0,0,0,1.61-2.059c.376-.617.47-1.061.288-1.357a.793.793,0,0,0-.717-.326c-.186.018-.389.1-1.023.915l-.156.2c-.074.1-.138.186-.191.26l-.063.087a.146.146,0,0,0,.216.2.115.115,0,0,0,.015-.018l.068-.093c.053-.073.115-.159.187-.254l.154-.2c.537-.69.715-.794.819-.8a.511.511,0,0,1,.442.189c.081.131.1.419-.289,1.051a17.177,17.177,0,0,1-1.582,2.021c-.1.111-.185.212-.266.3l-.307.333a.146.146,0,0,0,.107.246Z" transform="translate(-262.964 -168.134)"/>
                <path id="Path_35" data-name="Path 35" d="M281.549,189.687l2.8-.058,3.175-.068c0-.006,0-.01,0-.016-.023,0-.045,0-.068,0l.2-.218c-1.31-.109-4.749-.409-6.1-.526C281.547,189.087,281.545,189.381,281.549,189.687Z" transform="translate(-281.401 -182.78)"/>
              </g>
              <g id="head" transform="translate(22.614 24.171)">
                <path id="hair" d="M159.516,214.017l.077.034.036.015.286.126c.139.059.273.121.41.18.121.415.245.832.366,1.249.111.389.222.773.33,1.157.113,0,.616-.054.726-.072a1.318,1.318,0,0,1,.345-1.358,1.4,1.4,0,0,1,1.6-.036,1.625,1.625,0,0,1,.714,1.61,1.728,1.728,0,0,1-.064.276,1.826,1.826,0,0,1-.773.951c.028.031.054.062.082.093q.537.6,1.121,1.226c.518.549,1.033,1.074,1.54,1.571l.886-.139c.137-.023.276-.044.415-.067.536-.085,1.064-.173,1.592-.258v0c.039-.005.08-.01.118-.018a28.457,28.457,0,0,0-.028-3.357,22.991,22.991,0,0,0-.286-2.367,6.831,6.831,0,0,0-.172-.78,3.95,3.95,0,0,0-.374-.881,5.11,5.11,0,0,0-3.189-2.233,5.562,5.562,0,0,0-1.087-.1,5.261,5.261,0,0,0-3.37,1.126,3.5,3.5,0,0,0-1.236,1.747A2.874,2.874,0,0,0,159.516,214.017Z" transform="translate(-159.22 -210.838)"/>
                <path id="Path_36" data-name="Path 36" d="M187.306,248.132a.142.142,0,0,0,.037,0,2.423,2.423,0,0,0,.8-.377.146.146,0,1,0-.171-.238,2.158,2.158,0,0,1-.363.21,2.123,2.123,0,0,1-.341.121.146.146,0,0,0,.037.288Z" transform="translate(-183.448 -240.344)"/>
                <g id="face" transform="translate(0 0.115)">
                  <path id="Path_37" data-name="Path 37" d="M163.649,223.921a.146.146,0,0,0,.146-.146l-.008-1.5a.146.146,0,0,0-.146-.145c-.031,0-.071,0-.113.005a3.79,3.79,0,0,1-2.739-.943,4.665,4.665,0,0,1-1.057-3.01c-.022-.17-.039-.346-.051-.524a10.741,10.741,0,0,1,.234-3.092s0-.01,0-.014v0c.009-.042.018-.085.029-.13s.058-.117.1-.194h0s.113-.205.241-.4a5.866,5.866,0,0,1,.909-.98,5.293,5.293,0,0,1,4.116-1.042,4.282,4.282,0,0,1,2.979,2.483c.051.105.092.2.124.281a4.986,4.986,0,0,1,.277.862,20.065,20.065,0,0,1,.317,2.247c.09.963.157,2.093.2,3.358a.154.154,0,0,0,0,.025l.038,1.478a.152.152,0,0,0,.15.142.146.146,0,0,0,.142-.15l-.039-1.494a.16.16,0,0,0,0-.027c-.041-1.264-.108-2.395-.2-3.36a20.354,20.354,0,0,0-.322-2.281,5.265,5.265,0,0,0-.291-.909c-.034-.088-.078-.187-.132-.3a4.564,4.564,0,0,0-3.182-2.643,5.6,5.6,0,0,0-4.359,1.1,6.122,6.122,0,0,0-.968,1.045c-.136.2-.252.413-.257.422-.046.09-.083.164-.11.219a.152.152,0,0,0-.01.027c-.013.053-.024.1-.035.155h0l0,.017a11.03,11.03,0,0,0-.239,3.171c.012.183.029.366.052.542a4.871,4.871,0,0,0,1.143,3.182,4.051,4.051,0,0,0,2.912,1.027l.007,1.342A.146.146,0,0,0,163.649,223.921Z" transform="translate(-159.362 -211.426)"/>
                  <path id="Path_38" data-name="Path 38" d="M180.865,264.728q.013.113.025.228c.044.424.067.835.074,1.23l0,0,.559-.613q.568-.626,1.139-1.247a5.349,5.349,0,0,1-1.317.36C181.179,264.707,181.017,264.721,180.865,264.728Z" transform="translate(-176.68 -254.015)"/>
                </g>
              </g>
            </g>
            <g id="man_2" data-name="man 2" transform="translate(0 21.266)">
              <g id="hand_l-2" data-name="hand l" transform="translate(8.817 38.385)">
                <path id="Path_39" data-name="Path 39" d="M761.223,371.924a.755.755,0,0,0,.586-.294c.217-.285.146-.662-.039-1.178-.09-.254-.211-.549-.365-.923l-.167-.407q-.145-.357-.294-.737c.522.647.94,1.2,1.247,1.636.013.017.222.288.5.6.776.877,1.083.951,1.248.931a.83.83,0,0,0,.59-.44.913.913,0,0,0,.075-.579,3.15,3.15,0,0,0-.55-1.129,3.57,3.57,0,0,0-.381-.478,16.854,16.854,0,0,1-1.082-1.295c.149.145.319.311.514.5.359.345.656.626.86.813,1.6,1.472,1.942,1.515,2.2,1.423a.831.831,0,0,0,.5-.674c.049-.445-.339-.832-.875-1.369-.145-.145-.246-.232-.246-.232-.375-.333-1.031-.938-1.955-1.8,1.727.9,2.992,1.525,3.2,1.585a.716.716,0,0,0,.493-.021.493.493,0,0,0,.117-.079.9.9,0,0,0,.213-.332h0a.778.778,0,0,0,.05-.285c-.018-.62-.869-1.016-1.232-1.185-2.035-.949-4.173-1.936-6.357-2.934l-.178-.082-.33-.152-1.018-.463a.146.146,0,0,0-.121.266l1.017.462.331.152.178.081c2.184,1,4.321,1.985,6.353,2.932.29.135,1.053.489,1.065.93a.489.489,0,0,1-.033.176l0,.007h0a.612.612,0,0,1-.132.21.224.224,0,0,1-.05.033.437.437,0,0,1-.285,0c-.186-.053-1.684-.793-4.091-2.058a.146.146,0,0,0-.168.236c1.343,1.262,2.266,2.117,2.743,2.54,0,0,.1.084.232.219.479.479.825.825.791,1.13a.55.55,0,0,1-.306.431c-.129.046-.467-.044-1.9-1.363-.141-.13-.4-.375-.856-.809s-.754-.733-.975-.952c-.508-.5-.538-.531-.659-.432a.161.161,0,0,0-.055.113,11.557,11.557,0,0,0,1.845,2.482,3.3,3.3,0,0,1,.349.439,2.923,2.923,0,0,1,.5,1.014.626.626,0,0,1-.045.4.543.543,0,0,1-.368.285c-.026,0-.252,0-.992-.834-.269-.305-.478-.578-.48-.58-.414-.594-1.032-1.388-1.835-2.355a.146.146,0,0,0-.249.145c.212.558.422,1.094.625,1.593l.167.408c.152.37.273.662.36.909.18.5.2.746.081.9a.477.477,0,0,1-.36.178c-.177,0-.364-.163-.555-.472-.079-.124-.143-.248-.2-.359l-.048-.094c-.052-.1-.1-.2-.153-.3l-.01-.019c-.281-.549-.557-1.1-.821-1.639-.145-.29-.287-.582-.429-.876a.145.145,0,0,0-.119-.082,6.063,6.063,0,0,1-3.514-1.495,6.784,6.784,0,0,1-.973-1.049.146.146,0,0,0-.234.176,7.08,7.08,0,0,0,1.015,1.094,6.438,6.438,0,0,0,2.064,1.216,6.373,6.373,0,0,0,1.534.341q.2.4.393.8c.264.54.541,1.092.821,1.638l.141-.047-.13.066c.051.1.1.2.155.3l.046.089c.062.12.13.251.214.384.249.4.509.6.8.609Zm6.1-4.53h0Z" transform="translate(-754.13 -362.326)"/>
              </g>
              <g id="tshirt-2" data-name="tshirt" transform="translate(0 11.996)">
                <path id="Path_40" data-name="Path 40" d="M780.89,391.67c-.315-.451-.852-1.17-1.832-2.35.232.612.444,1.148.624,1.59.227.556.41.985.53,1.324.388.009.777.017,1.165.024C781.1,391.946,780.89,391.67,780.89,391.67Z" transform="translate(-763.893 -357.671)"/>
                <path id="Path_41" data-name="Path 41" d="M792.753,397.254l.671.013c.064,0,.125,0,.189,0h.028l-.011-.021q-.413-.806-.82-1.637Q792.781,396.434,792.753,397.254Z" transform="translate(-778.825 -362.738)"/>
                <path id="tshirt-3" data-name="tshirt" d="M620.976,232.388a27.767,27.767,0,0,1,9.43-4.094,33.062,33.062,0,0,1,3.336-.581v-.8c1.312.039,2.66.058,4.038.058q2.113,0,4.122-.058v1.5c.351.111.705.232,1.062.368A20.984,20.984,0,0,1,649.535,233a53.316,53.316,0,0,1,7.985,9.217q1.288-2.641,2.565-5.381.96-2.061,1.872-4.091c-.02.528-.318,8.237-.339,8.771-.022.577-.331,8.592-.354,9.177a4.683,4.683,0,0,1-1.09.925,2.6,2.6,0,0,1-.79.385c-3.5.906-8.044-4.065-9.987-6.193-.645-.707-1.144-1.333-1.481-1.779q.514,3.777,1.056,7.6.74,5.189,1.514,10.3-9.725-.193-19.447-.388a3.029,3.029,0,0,0-.526-1.072,3.512,3.512,0,0,0-.362-.456,12.406,12.406,0,0,1-1.8-2.383,19.5,19.5,0,0,1,1.44,1.378c.491.472.746.707.857.811,1.563,1.436,1.867,1.458,2.05,1.393a.69.69,0,0,0,.4-.553c.041-.374-.314-.729-.832-1.249-.14-.14-.238-.224-.238-.224-.4-.355-1.208-1.1-2.74-2.537,2.237,1.175,3.9,2.005,4.12,2.07a.582.582,0,0,0,.388-.012.388.388,0,0,0,.086-.058.734.734,0,0,0,.17-.269.694.694,0,0,0,.045-.234c-.016-.532-.828-.908-1.152-1.058-1-.466-3.272-1.524-6.353-2.933-.175.125-.353.253-.53.378-.351.249-.7.5-1.062.746q-1.587,1.1-3.141,2.112-1.108.722-2.2,1.4a42.227,42.227,0,0,1-5.994-9.43c-1.179-2.549-1.769-3.855-1.768-5.431C611.911,238.468,617.778,234.532,620.976,232.388Zm1.74,15.818q1.728,2.035,3.422,3.876l.175-5.377c.064-2.042.138-4.342.2-6.386q-1.766.889-3.555,1.812-1.847.953-3.644,1.91Q620.918,246.085,622.716,248.206Z" transform="translate(-611.897 -226.912)"/>
              </g>
              <g id="shoes" transform="translate(12.132 96.493)">
                <path id="Path_42" data-name="Path 42" d="M585.79,675.122q-.3,2.248-.553,4.184c1.986-.01,4.387-.012,7.16,0-.824-2.6-1.958-3.531-2.884-3.878C588.2,674.933,587.3,675.412,585.79,675.122Z" transform="translate(-549.273 -672.273)"/>
                <path id="Path_43" data-name="Path 43" d="M627.337,667.57c.7.012,1.67.023,2.839.027l.854-1.089V667.6h.062c2.428,0,4.209-.047,4.9-.051l1.335-.008c.027-1.454.058-3.048.1-4.769a8.211,8.211,0,0,1-2.528-2.27h-6.774Q627.73,664.036,627.337,667.57Z" transform="translate(-602.507 -660.502)"/>
                <path id="Path_44" data-name="Path 44" d="M716.142,666.568l-.854,1.088c-1.081,0-1.984-.016-2.64-.026l.786-7.054q3.407.017,6.815.035a6.89,6.89,0,0,0,3.919,2.764c1.609.361,2.532-.172,3.889.337.925.347,2.06,1.274,2.884,3.878-4.049-.011-7.305,0-9.635.017-.695,0-2.476.051-4.9.051h-.261Z" transform="translate(-712.648 -660.562)"/>
              </g>
              <g id="head-2" data-name="head" transform="translate(22.676)">
                <path id="Path_45" data-name="Path 45" d="M702.335,179.244a.146.146,0,0,0,.144-.119c.037-.2.073-.391.111-.586a4.084,4.084,0,0,0,2.608-.6c1.822-1.2,1.816-3.607,1.814-4.4a7.837,7.837,0,0,0-.736-3.281c-.01-.02-.02-.039-.032-.059a4.719,4.719,0,0,0-2.03-2.11,4.932,4.932,0,0,0-4.095-.248c-1.288.617-2.112,1.952-2.671,4.327l-.026.107a.146.146,0,0,0,.283.076l.027-.111c.538-2.286,1.313-3.559,2.514-4.135a4.623,4.623,0,0,1,3.832.243,4.45,4.45,0,0,1,1.912,1.994c.014.023.019.035.025.046a7.529,7.529,0,0,1,.706,3.149c0,.755.008,3.048-1.682,4.157a3.844,3.844,0,0,1-2.551.538.147.147,0,0,0-.159.118c-.047.24-.092.478-.137.718a.146.146,0,0,0,.117.171Z" transform="translate(-696.294 -167.07)"/>
                <path id="Path_46" data-name="Path 46" d="M735.4,194.262l.088,0a.146.146,0,0,0,.139-.153.145.145,0,0,0-.153-.139,1.3,1.3,0,0,1-.544-.084,1.594,1.594,0,0,1-.932-1.94,1.519,1.519,0,0,1,1.938-.928,1.773,1.773,0,0,1,.4.213,1.383,1.383,0,0,1,.462.716.146.146,0,1,0,.282-.077,1.675,1.675,0,0,0-.564-.87l0,.006a1.744,1.744,0,0,0-.48-.264,1.812,1.812,0,0,0-2.311,1.106,1.893,1.893,0,0,0,1.1,2.309A1.566,1.566,0,0,0,735.4,194.262Z" transform="translate(-733.423 -185.709)"/>
                <g id="hair-2" data-name="hair" transform="translate(0.53)">
                  <path id="hair-3" data-name="hair" d="M701.349,170.689a2.13,2.13,0,0,1,1.695-.214,1.77,1.77,0,0,1,.621.414,1.527,1.527,0,0,1,.336.617l1.52-2.277a5.322,5.322,0,0,0,1.213-.511,8.939,8.939,0,0,0,1.62-1.271,4.047,4.047,0,0,0,2.052,1.143,4.486,4.486,0,0,0-6.536-2.677A4.96,4.96,0,0,0,701.349,170.689Z" transform="translate(-700.981 -165.352)"/>
                  <path id="Path_47" data-name="Path 47" d="M746.019,204.245l-.078,2.041.732-1.4Z" transform="translate(-745.941 -196.665)"/>
                </g>
                <path id="Path_48" data-name="Path 48" d="M747.773,209.451a.146.146,0,0,0,.144-.123q.2-1.22.386-2.452l.055-.356c.068-.446.136-.895.2-1.341a.146.146,0,0,0-.289-.042c-.064.446-.132.894-.2,1.34l-.055.355q-.19,1.232-.386,2.45a.146.146,0,0,0,.121.167Z" transform="translate(-747.626 -197.283)"/>
              </g>
              <g id="legs-2" data-name="legs" transform="translate(10.797 46.352)">
                <path id="Path_49" data-name="Path 49" d="M737.407,453.662a.146.146,0,0,0,.145-.125c.486-3.281,1.013-6.751,1.565-10.315v-.009l.122-.779v-.009c.84-5.4,1.723-10.881,2.624-16.285l.14-.839c.051-.307.1-.616.155-.923.694-4.142,1.418-8.348,2.213-12.859a.146.146,0,0,0-.288-.05c-.8,4.511-1.52,8.718-2.214,12.861-.053.307-.1.616-.156.923l-.14.839c-.9,5.408-1.785,10.891-2.626,16.3,0,0,0,.006,0,.009l-.122.779v.009c-.545,3.517-1.065,6.942-1.546,10.185l-3.03-.016c-.309,0-.6,0-.9,0q-1.777-.011-3.55-.019l-1.819-.011,3.644-49.814a.146.146,0,1,0-.292-.021l-3.655,49.97a.146.146,0,0,0,.146.157l1.974.011q1.776.008,3.549.019c.3,0,.595,0,.892,0l3.168.017Z" transform="translate(-727.676 -403.322)"/>
                <path id="Path_50" data-name="Path 50" d="M642.645,454.362h8.936a.146.146,0,0,0,.143-.175L641.858,404.4a.146.146,0,0,0-.287.057L651.4,454.07h-8.652l-.061-.189-7.419-23.187,0-.006L631.7,419.542a.146.146,0,0,0-.278.089l3.566,11.146a.027.027,0,0,0,0,.007l.074.231,7.438,23.245A.146.146,0,0,0,642.645,454.362Z" transform="translate(-616.269 -404.076)"/>
                <g id="pattern" transform="translate(0.496)">
                  <g id="Group_1" data-name="Group 1" transform="translate(3.388)">
                    <ellipse id="Ellipse_7" data-name="Ellipse 7" cx="0.475" cy="0.475" rx="0.475" ry="0.475" transform="translate(20.602)"/>
                    <ellipse id="Ellipse_8" data-name="Ellipse 8" cx="0.475" cy="0.475" rx="0.475" ry="0.475" transform="translate(15.452)"/>
                    <ellipse id="Ellipse_9" data-name="Ellipse 9" cx="0.475" cy="0.475" rx="0.475" ry="0.475" transform="translate(10.301)"/>
                    <ellipse id="Ellipse_10" data-name="Ellipse 10" cx="0.475" cy="0.475" rx="0.475" ry="0.475" transform="translate(5.151)"/>
                    <path id="Path_51" data-name="Path 51" d="M790.658,404.329a.475.475,0,0,0,.476.476.414.414,0,0,0,.067-.006c-.082-.129-.15-.26-.208-.373-.067-.131-.135-.26-.2-.393l-.011-.021a.059.059,0,0,0-.017.021A.458.458,0,0,0,790.658,404.329Z" transform="translate(-790.658 -403.856)"/>
                    <ellipse id="Ellipse_11" data-name="Ellipse 11" cx="0.475" cy="0.475" rx="0.475" ry="0.475" transform="translate(18.027 2.383)"/>
                    <ellipse id="Ellipse_12" data-name="Ellipse 12" cx="0.475" cy="0.475" rx="0.475" ry="0.475" transform="translate(12.877 2.383)"/>
                    <ellipse id="Ellipse_13" data-name="Ellipse 13" cx="0.475" cy="0.475" rx="0.475" ry="0.475" transform="translate(7.726 2.383)"/>
                    <ellipse id="Ellipse_14" data-name="Ellipse 14" cx="0.475" cy="0.475" rx="0.475" ry="0.475" transform="translate(2.576 2.383)"/>
                    <ellipse id="Ellipse_15" data-name="Ellipse 15" cx="0.475" cy="0.475" rx="0.475" ry="0.475" transform="translate(20.602 5.157)"/>
                    <ellipse id="Ellipse_16" data-name="Ellipse 16" cx="0.475" cy="0.475" rx="0.475" ry="0.475" transform="translate(15.452 5.157)"/>
                    <ellipse id="Ellipse_17" data-name="Ellipse 17" cx="0.475" cy="0.475" rx="0.475" ry="0.475" transform="translate(10.301 5.157)"/>
                    <ellipse id="Ellipse_18" data-name="Ellipse 18" cx="0.475" cy="0.475" rx="0.475" ry="0.475" transform="translate(5.151 5.157)"/>
                    <ellipse id="Ellipse_19" data-name="Ellipse 19" cx="0.475" cy="0.475" rx="0.475" ry="0.475" transform="translate(0.001 5.157)"/>
                    <ellipse id="Ellipse_20" data-name="Ellipse 20" cx="0.475" cy="0.475" rx="0.475" ry="0.475" transform="translate(18.027 7.54)"/>
                    <ellipse id="Ellipse_21" data-name="Ellipse 21" cx="0.475" cy="0.475" rx="0.475" ry="0.475" transform="translate(12.877 7.54)"/>
                    <ellipse id="Ellipse_22" data-name="Ellipse 22" cx="0.475" cy="0.475" rx="0.475" ry="0.475" transform="translate(7.726 7.54)"/>
                    <ellipse id="Ellipse_23" data-name="Ellipse 23" cx="0.475" cy="0.475" rx="0.475" ry="0.475" transform="translate(2.576 7.54)"/>
                  </g>
                  <g id="Group_2" data-name="Group 2" transform="translate(3.388 10.503)">
                    <ellipse id="Ellipse_24" data-name="Ellipse 24" cx="0.475" cy="0.475" rx="0.475" ry="0.475" transform="translate(20.601)"/>
                    <ellipse id="Ellipse_25" data-name="Ellipse 25" cx="0.475" cy="0.475" rx="0.475" ry="0.475" transform="translate(15.451)"/>
                    <ellipse id="Ellipse_26" data-name="Ellipse 26" cx="0.475" cy="0.475" rx="0.475" ry="0.475" transform="translate(10.301)"/>
                    <ellipse id="Ellipse_27" data-name="Ellipse 27" cx="0.475" cy="0.475" rx="0.475" ry="0.475" transform="translate(5.15)"/>
                    <ellipse id="Ellipse_28" data-name="Ellipse 28" cx="0.475" cy="0.475" rx="0.475" ry="0.475" transform="translate(0)"/>
                    <ellipse id="Ellipse_29" data-name="Ellipse 29" cx="0.475" cy="0.475" rx="0.475" ry="0.475" transform="translate(23.176 2.383)"/>
                    <ellipse id="Ellipse_30" data-name="Ellipse 30" cx="0.475" cy="0.475" rx="0.475" ry="0.475" transform="translate(18.026 2.383)"/>
                    <ellipse id="Ellipse_31" data-name="Ellipse 31" cx="0.475" cy="0.475" rx="0.475" ry="0.475" transform="translate(12.876 2.383)"/>
                    <ellipse id="Ellipse_32" data-name="Ellipse 32" cx="0.475" cy="0.475" rx="0.475" ry="0.475" transform="translate(7.725 2.383)"/>
                    <ellipse id="Ellipse_33" data-name="Ellipse 33" cx="0.475" cy="0.475" rx="0.475" ry="0.475" transform="translate(2.575 2.383)"/>
                    <ellipse id="Ellipse_34" data-name="Ellipse 34" cx="0.475" cy="0.475" rx="0.475" ry="0.475" transform="translate(20.601 5.157)"/>
                    <ellipse id="Ellipse_35" data-name="Ellipse 35" cx="0.475" cy="0.475" rx="0.475" ry="0.475" transform="translate(15.451 5.157)"/>
                    <ellipse id="Ellipse_36" data-name="Ellipse 36" cx="0.475" cy="0.475" rx="0.475" ry="0.475" transform="translate(10.301 5.157)"/>
                    <ellipse id="Ellipse_37" data-name="Ellipse 37" cx="0.475" cy="0.475" rx="0.475" ry="0.475" transform="translate(5.15 5.157)"/>
                    <ellipse id="Ellipse_38" data-name="Ellipse 38" cx="0.475" cy="0.475" rx="0.475" ry="0.475" transform="translate(0 5.157)"/>
                    <ellipse id="Ellipse_39" data-name="Ellipse 39" cx="0.475" cy="0.475" rx="0.475" ry="0.475" transform="translate(23.176 7.54)"/>
                    <ellipse id="Ellipse_40" data-name="Ellipse 40" cx="0.475" cy="0.475" rx="0.475" ry="0.475" transform="translate(18.026 7.54)"/>
                    <ellipse id="Ellipse_41" data-name="Ellipse 41" cx="0.475" cy="0.475" rx="0.475" ry="0.475" transform="translate(12.876 7.54)"/>
                    <ellipse id="Ellipse_42" data-name="Ellipse 42" cx="0.475" cy="0.475" rx="0.475" ry="0.475" transform="translate(7.725 7.54)"/>
                    <ellipse id="Ellipse_43" data-name="Ellipse 43" cx="0.475" cy="0.475" rx="0.475" ry="0.475" transform="translate(2.575 7.54)"/>
                  </g>
                  <g id="Group_3" data-name="Group 3" transform="translate(1.172 21.006)">
                    <path id="Path_52" data-name="Path 52" d="M660.843,511.509a.475.475,0,0,0,.476.474.45.45,0,0,0,.088-.007l-.184-.933A.478.478,0,0,0,660.843,511.509Z" transform="translate(-633.351 -511.034)"/>
                    <ellipse id="Ellipse_44" data-name="Ellipse 44" cx="0.475" cy="0.475" rx="0.475" ry="0.475" transform="translate(22.342 0)"/>
                    <ellipse id="Ellipse_45" data-name="Ellipse 45" cx="0.475" cy="0.475" rx="0.475" ry="0.475" transform="translate(17.192 0)"/>
                    <path id="Path_53" data-name="Path 53" d="M739.785,511.471a.475.475,0,0,0,.476.474c.051-.307.1-.616.156-.923a.475.475,0,0,0-.631.449Z" transform="translate(-727.744 -510.995)"/>
                    <ellipse id="Ellipse_46" data-name="Ellipse 46" cx="0.475" cy="0.475" rx="0.475" ry="0.475" transform="translate(6.892 0)"/>
                    <ellipse id="Ellipse_47" data-name="Ellipse 47" cx="0.475" cy="0.475" rx="0.475" ry="0.475" transform="translate(1.741 0)"/>
                    <ellipse id="Ellipse_48" data-name="Ellipse 48" cx="0.475" cy="0.475" rx="0.475" ry="0.475" transform="translate(24.918 2.383)"/>
                    <ellipse id="Ellipse_49" data-name="Ellipse 49" cx="0.475" cy="0.475" rx="0.475" ry="0.475" transform="translate(19.767 2.383)"/>
                    <ellipse id="Ellipse_50" data-name="Ellipse 50" cx="0.475" cy="0.475" rx="0.475" ry="0.475" transform="translate(9.467 2.383)"/>
                    <ellipse id="Ellipse_51" data-name="Ellipse 51" cx="0.475" cy="0.475" rx="0.475" ry="0.475" transform="translate(4.317 2.383)"/>
                    <ellipse id="Ellipse_52" data-name="Ellipse 52" cx="0.475" cy="0.475" rx="0.475" ry="0.475" transform="translate(27.493 5.157)"/>
                    <ellipse id="Ellipse_53" data-name="Ellipse 53" cx="0.475" cy="0.475" rx="0.475" ry="0.475" transform="translate(22.342 5.157)"/>
                    <ellipse id="Ellipse_54" data-name="Ellipse 54" cx="0.475" cy="0.475" rx="0.475" ry="0.475" transform="translate(17.192 5.157)"/>
                    <ellipse id="Ellipse_55" data-name="Ellipse 55" cx="0.475" cy="0.475" rx="0.475" ry="0.475" transform="translate(6.892 5.157)"/>
                    <ellipse id="Ellipse_56" data-name="Ellipse 56" cx="0.475" cy="0.475" rx="0.475" ry="0.475" transform="translate(1.741 5.157)"/>
                    <ellipse id="Ellipse_57" data-name="Ellipse 57" cx="0.475" cy="0.475" rx="0.475" ry="0.475" transform="translate(24.918 7.54)"/>
                    <ellipse id="Ellipse_58" data-name="Ellipse 58" cx="0.475" cy="0.475" rx="0.475" ry="0.475" transform="translate(19.767 7.54)"/>
                    <ellipse id="Ellipse_59" data-name="Ellipse 59" cx="0.475" cy="0.475" rx="0.475" ry="0.475" transform="translate(9.467 7.54)"/>
                    <ellipse id="Ellipse_60" data-name="Ellipse 60" cx="0.475" cy="0.475" rx="0.475" ry="0.475" transform="translate(4.317 7.54)"/>
                    <path id="Path_54" data-name="Path 54" d="M804.217,551.376a.474.474,0,0,0,.116-.313.48.48,0,0,0-.075-.257C804.245,551,804.23,551.185,804.217,551.376Z" transform="translate(-804.217 -543.049)"/>
                  </g>
                  <g id="Group_4" data-name="Group 4" transform="translate(0.338 31.509)">
                    <ellipse id="Ellipse_61" data-name="Ellipse 61" cx="0.475" cy="0.475" rx="0.475" ry="0.475" transform="translate(28.326)"/>
                    <ellipse id="Ellipse_62" data-name="Ellipse 62" cx="0.475" cy="0.475" rx="0.475" ry="0.475" transform="translate(23.176)"/>
                    <ellipse id="Ellipse_63" data-name="Ellipse 63" cx="0.475" cy="0.475" rx="0.475" ry="0.475" transform="translate(7.725)"/>
                    <ellipse id="Ellipse_64" data-name="Ellipse 64" cx="0.475" cy="0.475" rx="0.475" ry="0.475" transform="translate(2.575)"/>
                    <path id="Path_55" data-name="Path 55" d="M647.736,577.656a.475.475,0,0,0,.476.474.393.393,0,0,0,.067-.006l-.184-.929A.474.474,0,0,0,647.736,577.656Z" transform="translate(-616.835 -574.797)"/>
                    <ellipse id="Ellipse_65" data-name="Ellipse 65" cx="0.475" cy="0.475" rx="0.475" ry="0.475" transform="translate(25.751 2.383)"/>
                    <ellipse id="Ellipse_66" data-name="Ellipse 66" cx="0.475" cy="0.475" rx="0.475" ry="0.475" transform="translate(20.601 2.383)"/>
                    <ellipse id="Ellipse_67" data-name="Ellipse 67" cx="0.475" cy="0.475" rx="0.475" ry="0.475" transform="translate(10.301 2.383)"/>
                    <ellipse id="Ellipse_68" data-name="Ellipse 68" cx="0.475" cy="0.475" rx="0.475" ry="0.475" transform="translate(5.15 2.383)"/>
                    <path id="Path_56" data-name="Path 56" d="M804.217,578.074a.351.351,0,0,0,.043,0,.474.474,0,0,0,.026-.948C804.264,577.443,804.24,577.757,804.217,578.074Z" transform="translate(-803.786 -574.743)"/>
                    <ellipse id="Ellipse_69" data-name="Ellipse 69" cx="0.475" cy="0.475" rx="0.475" ry="0.475" transform="translate(28.326 5.157)"/>
                    <ellipse id="Ellipse_70" data-name="Ellipse 70" cx="0.475" cy="0.475" rx="0.475" ry="0.475" transform="translate(23.176 5.157)"/>
                    <ellipse id="Ellipse_71" data-name="Ellipse 71" cx="0.475" cy="0.475" rx="0.475" ry="0.475" transform="translate(7.725 5.157)"/>
                    <ellipse id="Ellipse_72" data-name="Ellipse 72" cx="0.475" cy="0.475" rx="0.475" ry="0.475" transform="translate(2.575 5.157)"/>
                    <ellipse id="Ellipse_73" data-name="Ellipse 73" cx="0.475" cy="0.475" rx="0.475" ry="0.475" transform="translate(30.902 7.54)"/>
                    <ellipse id="Ellipse_74" data-name="Ellipse 74" cx="0.475" cy="0.475" rx="0.475" ry="0.475" transform="translate(25.751 7.54)"/>
                    <path id="Path_57" data-name="Path 57" d="M754.776,604.228a.461.461,0,0,0,.161.352l.124-.787A.475.475,0,0,0,754.776,604.228Z" transform="translate(-744.476 -596.213)"/>
                    <ellipse id="Ellipse_75" data-name="Ellipse 75" cx="0.475" cy="0.475" rx="0.475" ry="0.475" transform="translate(5.15 7.54)"/>
                    <ellipse id="Ellipse_76" data-name="Ellipse 76" cx="0.475" cy="0.475" rx="0.475" ry="0.475" transform="translate(0 7.54)"/>
                  </g>
                  <g id="Group_5" data-name="Group 5" transform="translate(0 42.011)">
                    <ellipse id="Ellipse_77" data-name="Ellipse 77" cx="0.475" cy="0.475" rx="0.475" ry="0.475" transform="translate(28.327 0)"/>
                    <path id="Path_58" data-name="Path 58" d="M687.02,618.92l.259.809a.439.439,0,0,0,.071.006.475.475,0,1,0,0-.949A.469.469,0,0,0,687.02,618.92Z" transform="translate(-663.698 -618.785)"/>
                    <ellipse id="Ellipse_78" data-name="Ellipse 78" cx="0.475" cy="0.475" rx="0.475" ry="0.475" transform="translate(7.726 0)"/>
                    <ellipse id="Ellipse_79" data-name="Ellipse 79" cx="0.475" cy="0.475" rx="0.475" ry="0.475" transform="translate(2.576 0)"/>
                    <ellipse id="Ellipse_80" data-name="Ellipse 80" cx="0.475" cy="0.475" rx="0.475" ry="0.475" transform="translate(30.902 2.383)"/>
                    <ellipse id="Ellipse_81" data-name="Ellipse 81" cx="0.475" cy="0.475" rx="0.475" ry="0.475" transform="translate(25.752 2.383)"/>
                    <ellipse id="Ellipse_82" data-name="Ellipse 82" cx="0.475" cy="0.475" rx="0.475" ry="0.475" transform="translate(5.151 2.383)"/>
                    <ellipse id="Ellipse_83" data-name="Ellipse 83" cx="0.475" cy="0.475" rx="0.475" ry="0.475" transform="translate(0.001 2.383)"/>
                    <ellipse id="Ellipse_84" data-name="Ellipse 84" cx="0.475" cy="0.475" rx="0.475" ry="0.475" transform="translate(33.477 5.157)"/>
                    <ellipse id="Ellipse_85" data-name="Ellipse 85" cx="0.475" cy="0.475" rx="0.475" ry="0.475" transform="translate(28.327 5.157)"/>
                    <ellipse id="Ellipse_86" data-name="Ellipse 86" cx="0.475" cy="0.475" rx="0.475" ry="0.475" transform="translate(7.726 5.157)"/>
                    <ellipse id="Ellipse_87" data-name="Ellipse 87" cx="0.475" cy="0.475" rx="0.475" ry="0.475" transform="translate(2.576 5.157)"/>
                    <path id="Path_59" data-name="Path 59" d="M647.38,657.956a.553.553,0,0,0,.013.114h.921a.454.454,0,0,0,.015-.114.475.475,0,0,0-.949,0Z" transform="translate(-616.477 -649.941)"/>
                    <path id="Path_60" data-name="Path 60" d="M673.806,657.78l.094.29h.807a.454.454,0,0,0,.015-.114.475.475,0,0,0-.916-.176Z" transform="translate(-648.02 -649.941)"/>
                    <path id="Path_61" data-name="Path 61" d="M779.52,657.956a.479.479,0,0,0,.022.148h0c.3,0,.6,0,.9,0a.5.5,0,0,0,.024-.152.475.475,0,0,0-.949,0Z" transform="translate(-774.368 -649.941)"/>
                    <path id="Path_62" data-name="Path 62" d="M805.956,657.956a.5.5,0,0,0,.015.12l.917.006a.456.456,0,0,0,.017-.125.475.475,0,0,0-.949,0Z" transform="translate(-805.956 -649.941)"/>
                  </g>
                </g>
              </g>
              <path id="Path_63" data-name="Path 63" d="M571.878,212.12a.972.972,0,0,0,.2-.02,1.128,1.128,0,0,0,.67-.476,4.791,4.791,0,0,0,.472-.866l.015-.032a4.775,4.775,0,0,0-.656-5.315,5.925,5.925,0,0,0-2.325-1.778c-.118-.05-.241-.1-.363-.136a9.114,9.114,0,0,0-3.292-.087,3.292,3.292,0,0,0-1.55.345.766.766,0,0,0-.274.313.838.838,0,0,0,.052.823.986.986,0,0,0-.7.683.883.883,0,0,0,.227.772.855.855,0,0,0,.563.264,4.289,4.289,0,0,0,.742-.017c.191-.014.408-.031.653-.038a12.441,12.441,0,0,1,1.968.1c-.668.1-1.336.225-2.025.364a5.018,5.018,0,0,0-1.48.452l-.018.013a.773.773,0,0,0-.349.429.85.85,0,0,0,.213.833.473.473,0,0,0,.054.046l.017.014c.264.188.627.137,1.13.067.528-.074,1.031-.153,1.476-.223s.8-.126,1.1-.164a15.71,15.71,0,0,1-1.6.5c-.813.22-1.351.364-1.491.8a.645.645,0,0,0,.025.512.754.754,0,0,0,.556.309,13.218,13.218,0,0,0,3.936-.873,2.889,2.889,0,0,0,.5,1.309C570.453,211.237,571.114,212.12,571.878,212.12Zm-3.379-8.511a4.093,4.093,0,0,1,1.3.165c.115.037.229.081.341.128a5.628,5.628,0,0,1,2.209,1.691,4.485,4.485,0,0,1,.619,5.01l-.015.031a4.607,4.607,0,0,1-.441.815.843.843,0,0,1-.5.365c-.678.14-1.377-.825-1.455-.935a2.629,2.629,0,0,1-.467-1.35.146.146,0,0,0-.066-.112.148.148,0,0,0-.129-.015c-.03.011-2.983,1.067-3.964.922-.087-.014-.282-.045-.352-.166a.376.376,0,0,1,0-.272c.093-.288.6-.423,1.29-.611a15.152,15.152,0,0,0,1.822-.586c.2-.082.38-.162.511-.223.05-.023.1-.045.135-.064l.042-.02a.147.147,0,0,0,.078-.169.143.143,0,0,0-.151-.108l-.206.016c-.162.013-.421.038-.735.081-.3.039-.674.1-1.111.166s-.946.148-1.472.222c-.466.066-.742.1-.906-.006l-.015-.012a.25.25,0,0,1-.035-.028.553.553,0,0,1-.137-.537.5.5,0,0,1,.241-.278l.018-.012a5.04,5.04,0,0,1,1.368-.4c.884-.179,1.732-.326,2.595-.449.114-.018.23-.033.347-.049a.146.146,0,0,0,.013-.288s-.125-.028-.342-.066a13.751,13.751,0,0,0-2.624-.2c-.251.008-.471.025-.666.039a4.09,4.09,0,0,1-.688.018.565.565,0,0,1-.381-.173.6.6,0,0,1-.155-.51.761.761,0,0,1,.657-.507c.033,0,.071-.01.109-.014a.144.144,0,0,0,.041-.01,6.215,6.215,0,0,0,.98.011l.206-.007c.433-.013.65-.02.762-.029a10,10,0,0,1,2.047.088.146.146,0,1,0,.041-.289,10.276,10.276,0,0,0-2.109-.091c-.107.008-.335.015-.75.028l-.206.006a2.874,2.874,0,0,1-1.069-.051.2.2,0,0,1-.057-.048.547.547,0,0,1-.029-.534.481.481,0,0,1,.173-.2,3.231,3.231,0,0,1,1.405-.295C567.392,203.649,568,203.609,568.5,203.609Z" transform="translate(-514.383 -195.918)"/>
            </g>
            <g id="thread" transform="translate(33.675 3.746)">
              <path id="Path_64" data-name="Path 64" d="M597.143,131.776a.146.146,0,0,0,.139-.1A49.479,49.479,0,0,1,602.7,120c2.314-3.644,7.13-11.226,13.515-15.172a.146.146,0,1,0-.154-.249c-6.443,3.981-11.282,11.6-13.608,15.264A49.75,49.75,0,0,0,597,131.586a.146.146,0,0,0,.139.19Z" transform="translate(-596.997 -98.888)"/>
              <path id="Path_65" data-name="Path 65" d="M453.848,129.758a17.535,17.535,0,0,0,8.244-2.106,13.9,13.9,0,0,0,6.225-6.461,11.827,11.827,0,0,0,1.076-6.105c-.461-4.052-2.561-9.014-5.617-13.273-4.563-6.367-10.365-10.179-15.916-10.459a13.725,13.725,0,0,0-3.51.28,14.82,14.82,0,0,0-1.85.513,16.418,16.418,0,0,0-1.639.665.146.146,0,0,0,.124.265,16.1,16.1,0,0,1,1.61-.653,14.5,14.5,0,0,1,1.814-.5,13.438,13.438,0,0,1,3.435-.274c5.462.276,11.182,4.044,15.693,10.338,3.028,4.221,5.108,9.132,5.565,13.136a11.683,11.683,0,0,1-1.052,5.953,13.6,13.6,0,0,1-6.1,6.324,17.188,17.188,0,0,1-8.61,2.063,16.718,16.718,0,0,1-9.851-3.777.146.146,0,1,0-.183.228,17.01,17.01,0,0,0,10.024,3.841Q453.59,129.758,453.848,129.758Z" transform="translate(-419.718 -88.239)"/>
              <path id="Path_66" data-name="Path 66" d="M107.938,121.832a.147.147,0,0,0,.137-.095c.762-2.028,1.457-4.093,2.065-6.139l.011-.036a116.322,116.322,0,0,0,3.757-15.6c1.539-10.117.259-17.259-3.806-21.228a13.077,13.077,0,0,0-3.978-2.646,6.557,6.557,0,0,0-4.635-.375,5.635,5.635,0,0,0-2.7,2.179.146.146,0,0,0,.238.171,5.352,5.352,0,0,1,2.562-2.073c2.679-.931,6.187.879,8.313,2.954,3.993,3.9,5.245,10.956,3.721,20.975a116.029,116.029,0,0,1-3.748,15.556l-.011.036c-.606,2.039-1.3,4.1-2.059,6.119a.146.146,0,0,0,.137.2Z" transform="translate(1.845 -75.449)"/>
              <path id="Path_67" data-name="Path 67" d="M243.042,254.454a13.606,13.606,0,0,0,8.848-2.736,10.88,10.88,0,0,0,2.719-3.514,10.539,10.539,0,0,0,1.063-3.617,7.99,7.99,0,0,0-.239-2.983c-.826-2.912-3.647-5.5-7.739-7.091a23.429,23.429,0,0,0-12.421-1.213c-4.453.862-7.231,3.076-9.917,5.217-1.008.8-1.963,1.564-2.979,2.231-1.462-5.168-.977-11.805,1.406-19.22a64.5,64.5,0,0,0,18.055,4.764c5.955.645,13.931.459,18.1-4.091a9.852,9.852,0,0,0,.775-.955c2.7-3.8,2.05-8.6,1.733-10.912,0,0,0-.005,0-.008a20.947,20.947,0,0,0-3.226-8.555,15.533,15.533,0,0,0-7.59-6.186,14.44,14.44,0,0,0-4.233-.842,12.135,12.135,0,0,0-.137-2.628,9.143,9.143,0,0,0-.893-2.741c-2.386-4.568-8.295-5.2-14.55-5.868a48.536,48.536,0,0,1-9.622-1.673c9.968-5.278,14.063-11,16.279-14.852a39.859,39.859,0,0,0,3.405-7.886c4.222,2.638,7.023,6.118,7.7,9.57a10.455,10.455,0,0,1-.722,5.729c-.684,2.055-1.391,4.181-.421,7.156a14.082,14.082,0,0,0,8.9,8.54c4.357,1.4,10.015.541,14.414-2.2a11.864,11.864,0,0,0,4.97-5.509c1.473-3.85.083-9.651-3.813-15.914a56.488,56.488,0,0,0-11.08-12.7c-1.059-.912-2.162-1.8-3.278-2.631-1.035-.772-2.09-1.508-3.134-2.186a53.052,53.052,0,0,0-8.712-4.618,4.417,4.417,0,0,1,2.411-1.451c2.414-.553,4.672.864,7.063,2.363a.146.146,0,1,0,.155-.248c-2.443-1.532-4.75-2.979-7.283-2.4a4.712,4.712,0,0,0-2.631,1.619,39.207,39.207,0,0,0-15.451-3.059,37.388,37.388,0,0,0-6.468.706c-7.244,1.409-14.666,4.878-19.37,9.051a.146.146,0,0,0,.194.219c4.667-4.141,12.036-7.583,19.232-8.983a37.1,37.1,0,0,1,6.417-.7,38.875,38.875,0,0,1,15.254,3c-1.373,1.792-2.049,4.6-2.9,8.13-.444,1.844-.946,3.928-1.613,6.072a24.669,24.669,0,0,0-11.592-3.591,17.759,17.759,0,0,0-6.741.983c-2.04.735-7.012,3-9.176,8.2a.586.586,0,0,0-.03.069,14.468,14.468,0,0,0,.7,12.438,11.979,11.979,0,0,0,6.58,5.139c-2.609,1.346-5.18,2.472-7.671,3.563-5.262,2.3-9.807,4.294-12.22,7.358a8.2,8.2,0,0,0-1.781,4.309,9.747,9.747,0,0,0,.8,4.9l0,.013c1.481,3.466,4.7,6.579,7.38,8.919-6.107,8.48-8.268,22.714-1.9,28.478a15.9,15.9,0,0,0,9.016,3.724,13.806,13.806,0,0,0,3.406-.326,12.513,12.513,0,0,0,3.71-1.626,15.931,15.931,0,0,0,2.356,4.781c3.143,4.273,9.32,7.532,15.737,8.3A23.091,23.091,0,0,0,243.042,254.454Zm-3.87-21.219a23.613,23.613,0,0,1,8.415,1.55c4.007,1.561,6.764,4.075,7.564,6.9a7.7,7.7,0,0,1,.229,2.875,10.249,10.249,0,0,1-1.034,3.516,10.581,10.581,0,0,1-2.644,3.42c-2.6,2.18-6.636,3.068-11.369,2.5-6.341-.76-12.439-3.972-15.536-8.183a15.662,15.662,0,0,1-2.336-4.771c1.056-.685,2.038-1.468,3.076-2.3,2.658-2.119,5.407-4.31,9.791-5.159A20.344,20.344,0,0,1,239.172,233.235Zm-17.053,7.678a12.294,12.294,0,0,1-3.693,1.633,13.688,13.688,0,0,1-3.325.318,15.576,15.576,0,0,1-8.831-3.65c-6.256-5.66-4.1-19.684,1.922-28.068,1.123.975,2.279,1.927,3.3,2.77a56.13,56.13,0,0,0,12.018,7.487C221.091,228.929,220.609,235.669,222.119,240.913Zm40.039-30.554v.008c.311,2.271.959,7-1.681,10.709a9.549,9.549,0,0,1-.752.927c-4.09,4.46-11.968,4.636-17.857,4a64.114,64.114,0,0,1-18-4.753,55.286,55.286,0,0,1,7.459-15.313c3.617.98,7.429,1.7,10.871-.817a14.31,14.31,0,0,0,5.179-10.084,14.158,14.158,0,0,1,4.152.825C255.724,197.376,261.02,202.083,262.158,210.359Zm-31.128-4.507a55.912,55.912,0,0,0-7.425,15.272,55.823,55.823,0,0,1-11.923-7.433c-1.029-.847-2.192-1.8-3.318-2.782a17.376,17.376,0,0,1,6.879-6.028c4.82-2.2,9.512-.841,14.049.475C229.864,205.522,230.453,205.692,231.03,205.852Zm-10.3-2.43a13.252,13.252,0,0,0-5.608,1.193,17.624,17.624,0,0,0-6.979,6.1c-2.645-2.315-5.822-5.387-7.279-8.786a.1.1,0,0,0,0-.013,9.339,9.339,0,0,1-.78-4.77,7.908,7.908,0,0,1,1.72-4.16c2.367-3.006,6.881-4.982,12.107-7.271,2.572-1.126,5.231-2.29,7.932-3.7a47.072,47.072,0,0,0,9.95,1.775c6.175.66,12.008,1.284,14.322,5.713a8.849,8.849,0,0,1,.864,2.653,11.853,11.853,0,0,1,.133,2.569,12.716,12.716,0,0,0-1.765.068c-6.564.722-10.585,6.062-14.127,10.8-.61-.167-1.236-.349-1.842-.525A31.394,31.394,0,0,0,220.73,203.422Zm26.359-8.4a14,14,0,0,1-5.059,9.859c-3.3,2.416-7,1.746-10.511.8,3.492-4.672,7.462-9.89,13.856-10.593A12.592,12.592,0,0,1,247.089,195.023Zm-.582-50.463a52.7,52.7,0,0,1,8.747,4.627c1.039.675,2.088,1.407,3.118,2.175,1.111.83,2.208,1.711,3.262,2.619a56.2,56.2,0,0,1,11.023,12.637c3.847,6.185,5.228,11.891,3.787,15.656a11.572,11.572,0,0,1-4.851,5.365c-4.33,2.7-9.892,3.551-14.17,2.172a13.781,13.781,0,0,1-8.711-8.352c-.94-2.884-.249-4.963.421-6.973a10.839,10.839,0,0,0,.732-5.877c-.693-3.548-3.568-7.116-7.894-9.8.681-2.179,1.19-4.293,1.64-6.161C244.464,149.106,245.14,146.3,246.508,144.56Zm-4.883,14.376a39.641,39.641,0,0,1-3.4,7.9c-4.619,8.036-11.564,12.333-16.409,14.869a11.818,11.818,0,0,1-6.683-5.1,14.17,14.17,0,0,1-.683-12.184.557.557,0,0,1,.023-.053c2.124-5.1,7.006-7.326,9.007-8.047a17.5,17.5,0,0,1,6.634-.967A24.379,24.379,0,0,1,241.625,158.936Z" transform="translate(-180.589 -128.341)"/>
              <path id="Path_68" data-name="Path 68" d="M197.215,129.726a13.88,13.88,0,0,0,2-.148c1.476-.214,4.931-.716,7.234-3.4a8.586,8.586,0,0,0,1.836-4.382c.185-.867.4-1.85.763-3.022.137-.437.3-.894.473-1.36a.154.154,0,0,0-.076-.194.139.139,0,0,0-.186.064c0,.006-.011.027-.013.034-.176.464-.337.927-.476,1.369-.373,1.185-.584,2.175-.771,3.048a8.362,8.362,0,0,1-1.771,4.253c-2.232,2.6-5.611,3.095-7.054,3.3a12.975,12.975,0,0,1-4.955-.21,13.76,13.76,0,0,1-1.354-.4l-.074-.026-.058.135-.04.141.077.027a14.053,14.053,0,0,0,1.381.4A13.147,13.147,0,0,0,197.215,129.726Z" transform="translate(-111.456 -109.066)"/>
            </g>
            <g id="needle" transform="translate(46.645)">
              <path id="Path_69" data-name="Path 69" d="M572.282,331.367a.146.146,0,0,0,.145-.126c.641-4.628,1.266-9.26,1.857-13.769,1.885-14.379,3.622-28.923,5.163-43.229.328-3.019.65-6.074.959-9.08.949-9.2,1.841-18.525,2.65-27.717q.126-1.663.242-3.286a.146.146,0,0,0-.135-.156.148.148,0,0,0-.156.135q-.117,1.622-.242,3.283c-.81,9.189-1.7,18.513-2.65,27.711-.308,3.006-.631,6.059-.959,9.077-1.54,14.306-3.277,28.848-5.162,43.224-.49,3.736-1,7.558-1.529,11.391,0-.034,0-.069,0-.1v-.04c0-.059.095-5.966.22-11.8.106-4.9,1.118-32.128,3.009-80.935.117-1.872.24-3.682.333-5.049l-.146-.012h-.146c-.093,1.359-.216,3.169-.333,5.046-1.891,48.812-2.9,76.044-3.009,80.944-.125,5.839-.219,11.747-.22,11.806v.04q-.021,1.252-.039,2.5a.146.146,0,0,0,.135.148Z" transform="translate(-572.136 -196.846)"/>
              <path id="Path_70" data-name="Path 70" d="M574.734,87.223a.146.146,0,0,0,.146-.138c.1-1.717.174-3.125.234-4.431a155.988,155.988,0,0,0,.023-19.158c-.318-3.709-.9-5.959-1.772-6.878a.941.941,0,0,0-.984-.355c-.411.129-1.66.52-3.053,9.507-.735,4.759-1.432,11.376-2.073,19.668a.146.146,0,0,0,.135.157.148.148,0,0,0,.157-.134c.64-8.285,1.336-14.895,2.07-19.646,1.128-7.279,2.173-9.06,2.852-9.273.217-.068.442.022.685.278.815.857,1.385,3.111,1.693,6.7a155.689,155.689,0,0,1-.024,19.119c-.06,1.305-.134,2.712-.234,4.428a.146.146,0,0,0,.138.154Z" transform="translate(-563.3 -56.227)"/>
              <path id="Path_71" data-name="Path 71" d="M578.169,91.479h1.155a.146.146,0,0,0,.144-.122,54.4,54.4,0,0,0,.757-7.752c.045-1.754.012-3.725-.088-5.273-.182-2.822-.484-2.837-.646-2.846s-.465-.024-.928,2.723c-.262,1.552-.49,3.527-.611,5.283h0a50.427,50.427,0,0,0,.072,7.854A.146.146,0,0,0,578.169,91.479Zm1.031-.292h-.9a50.144,50.144,0,0,1-.06-7.674h0c.256-3.711.886-7.288,1.232-7.709.291.447.554,4,.457,7.794A54.074,54.074,0,0,1,579.2,91.187Z" transform="translate(-570.192 -71.733)"/>
              <path id="Path_72" data-name="Path 72" d="M608.773,220l.146,0c.019-.238.036-.486.054-.733l.028-.391a.146.146,0,0,0-.135-.156.149.149,0,0,0-.156.135l-.028.391c-.018.247-.035.494-.054.742Z" transform="translate(-604.949 -187.056)"/>
            </g>
          </g>
        </g>
      </g>
    </g>
    <g id="Group_8" data-name="Group 8" transform="translate(-114 8)">
      <g transform="matrix(1, 0, 0, 1, 1077, 222)" filter="url(#Rectangle_77)">
        <rect id="Rectangle_77-2" data-name="Rectangle 77" width="250" height="370" rx="20" transform="translate(389 257)" fill="#fff"/>
      </g>
      <text id="Contact" transform="translate(1521 512)" fill="#1d1d1d" font-size="20" font-family="Poppins"><tspan x="0" y="0">Contact</tspan></text>
      <text id="blocks" transform="translate(1521 553)" fill="#c5c4c5" font-size="13" font-family="Poppins-Regular, Poppins" letter-spacing="0.05em"><tspan x="0" y="0">BLOCKS</tspan></text>
      <text id="blocks-2" data-name="blocks" transform="translate(1521 735)" fill="#c5c4c5" font-size="13" font-family="Poppins-Regular, Poppins" letter-spacing="0.05em"><tspan x="0" y="0">BLOCKS</tspan></text>
      <line id="Line_7" data-name="Line 7" y2="370" transform="translate(1506 479)" fill="none" stroke="#e8e8e8" stroke-width="1"/>
      <circle id="Ellipse_1101" data-name="Ellipse 1101" cx="8" cy="8" r="8" transform="translate(1478 497)" fill="#3763ec"/>
      <rect id="Rectangle_78" data-name="Rectangle 78" width="7.5" height="1.5" transform="translate(1482 504)" fill="#fff"/>
      <rect id="Rectangle_79" data-name="Rectangle 79" width="7.5" height="1.5" transform="translate(1486.5 501) rotate(90)" fill="#fff"/>
      <rect id="Rectangle_80" data-name="Rectangle 80" width="16" height="2" transform="translate(1478 546)" fill="#d2d2d2"/>
      <rect id="Rectangle_85" data-name="Rectangle 85" width="16" height="2" transform="translate(1478 558)" fill="#d2d2d2"/>
      <rect id="Rectangle_83" data-name="Rectangle 83" width="16" height="2" transform="translate(1478 552)" fill="#d2d2d2"/>
      <rect id="Rectangle_81" data-name="Rectangle 81" width="4" height="2" transform="translate(1483 545) rotate(90)" fill="#d2d2d2"/>
      <rect id="Rectangle_84" data-name="Rectangle 84" width="4" height="2" transform="translate(1483 557) rotate(90)" fill="#d2d2d2"/>
      <rect id="Rectangle_82" data-name="Rectangle 82" width="4" height="2" transform="translate(1491 551) rotate(90)" fill="#d2d2d2"/>
      <line id="Line_9" data-name="Line 9" x2="250" transform="translate(1466 528.5)" fill="none" stroke="#e8e8e8" stroke-width="1"/>
      <rect id="Rectangle_86" data-name="Rectangle 86" width="88" height="30" rx="5" transform="translate(1521 568)" fill="#323c79"/>
      <rect id="Rectangle_89" data-name="Rectangle 89" width="88" height="30" rx="5" transform="translate(1521 604)" fill="#323c79"/>
      <rect id="Rectangle_93" data-name="Rectangle 93" width="87" height="30" rx="5" transform="translate(1521 750)" fill="#eee8df"/>
      <rect id="Rectangle_91" data-name="Rectangle 91" width="88" height="30" rx="5" transform="translate(1521 640)" fill="#323c79"/>
      <rect id="Rectangle_96" data-name="Rectangle 96" width="87" height="30" rx="5" transform="translate(1521 786)" fill="#eee8df"/>
      <rect id="Rectangle_92" data-name="Rectangle 92" width="88" height="30" rx="5" transform="translate(1521 676)" fill="#323c79"/>
      <rect id="Rectangle_87" data-name="Rectangle 87" width="87" height="30" rx="5" transform="translate(1614 568)" fill="#323c79"/>
      <rect id="Rectangle_88" data-name="Rectangle 88" width="87" height="30" rx="5" transform="translate(1614 604)" fill="#323c79"/>
      <rect id="Rectangle_94" data-name="Rectangle 94" width="87" height="30" rx="5" transform="translate(1614 750)" fill="#eee8df"/>
      <rect id="Rectangle_90" data-name="Rectangle 90" width="87" height="30" rx="5" transform="translate(1614 640)" fill="#323c79"/>
      <g id="Rectangle_97" data-name="Rectangle 97" transform="translate(1478 576)" fill="none" stroke="#d2d2d2" stroke-width="1.5">
        <rect width="16" height="12" stroke="none"/>
        <rect x="0.75" y="0.75" width="14.5" height="10.5" fill="none"/>
      </g>
      <g id="Group_9" data-name="Group 9" transform="translate(2184 326)">
        <rect id="Rectangle_98" data-name="Rectangle 98" width="1.5" height="6" transform="translate(-703 253)" fill="#d2d2d2"/>
        <rect id="Rectangle_99" data-name="Rectangle 99" width="3" height="1.5" transform="translate(-703 253)" fill="#d2d2d2"/>
        <rect id="Rectangle_100" data-name="Rectangle 100" width="3" height="1.5" transform="translate(-703 258)" fill="#d2d2d2"/>
      </g>
      <g id="Group_8-2" data-name="Group 8" transform="translate(2185 326)">
        <rect id="Rectangle_102" data-name="Rectangle 102" width="1.5" height="6" transform="translate(-695.5 253)" fill="#d2d2d2"/>
        <rect id="Rectangle_103" data-name="Rectangle 103" width="3" height="1.5" transform="translate(-697 253)" fill="#d2d2d2"/>
        <rect id="Rectangle_101" data-name="Rectangle 101" width="3" height="1.5" transform="translate(-697 258)" fill="#d2d2d2"/>
      </g>
      <path id="Path_101" data-name="Path 101" d="M-697.942,277.055s-2.374-5.064.68-4.856c3.4,1.263,6.471-1.621,4.564-5.05-2.816-4.662-10.389-4.392-12.229.69a7.414,7.414,0,0,0,4.46,9.216C-696.882,278.307-697.942,277.055-697.942,277.055Z" transform="translate(2184.196 338.937)" fill="#d2d2d2"/>
      <ellipse id="Ellipse_1102" data-name="Ellipse 1102" cx="1.009" cy="1.009" rx="1.009" ry="1.009" transform="translate(1480.207 606.975)" fill="#fff"/>
      <ellipse id="Ellipse_1103" data-name="Ellipse 1103" cx="1.009" cy="1.009" rx="1.009" ry="1.009" transform="translate(1484.245 604.957)" fill="#fff"/>
      <ellipse id="Ellipse_1104" data-name="Ellipse 1104" cx="1.009" cy="1.009" rx="1.009" ry="1.009" transform="translate(1488.282 606.975)" fill="#fff"/>
    </g>
  </g>
</svg>
