<?xml version="1.0" encoding="UTF-8"?>
<svg viewBox="0 0 64 64" xmlns="http://www.w3.org/2000/svg">
<path d="M18.19 26.979c0 .779.084 1.41.231 1.874.169.463.38.968.674 1.515.105.169.147.337.147.485 0 .21-.126.42-.4.631l-1.326.884c-.19.127-.38.19-.547.19-.211 0-.422-.105-.632-.295-.295-.316-.547-.652-.758-.99-.21-.357-.421-.757-.653-1.241-1.642 1.936-3.705 2.905-6.19 2.905-1.767 0-3.178-.505-4.21-1.516-1.031-1.01-1.557-2.358-1.557-4.042 0-1.79.631-3.242 1.915-4.337 1.285-1.095 2.99-1.642 5.158-1.642.716 0 1.453.063 2.232.168.779.106 1.579.274 2.42.464v-1.537c0-1.6-.336-2.716-.989-3.369-.673-.652-1.81-.968-3.431-.968-.737 0-1.495.084-2.274.274-.779.19-1.537.42-2.274.715-.336.148-.59.232-.736.274-.148.042-.253.063-.337.063-.295 0-.442-.21-.442-.652V15.8c0-.337.042-.59.147-.737.105-.147.295-.295.59-.442.736-.379 1.62-.695 2.652-.947 1.032-.274 2.126-.4 3.284-.4 2.506 0 4.337.568 5.516 1.705 1.158 1.137 1.748 2.863 1.748 5.179v6.821h.042zm-8.548 3.2c.695 0 1.41-.126 2.169-.379.758-.253 1.431-.716 2-1.347.337-.4.59-.843.715-1.348.127-.505.21-1.116.21-1.831v-.884c-.61-.148-1.262-.274-1.936-.358-.674-.085-1.326-.127-1.979-.127-1.41 0-2.442.274-3.137.842-.694.569-1.031 1.369-1.031 2.421 0 .99.252 1.727.779 2.232.505.526 1.242.779 2.21.779zm16.905 2.274c-.378 0-.631-.064-.8-.21-.168-.127-.315-.422-.442-.822l-4.947-16.274c-.126-.42-.19-.694-.19-.842 0-.337.169-.526.506-.526h2.063c.4 0 .674.063.821.21.168.127.295.421.421.821l3.537 13.937L30.8 14.81c.105-.42.232-.694.4-.82.169-.127.463-.211.842-.211h1.684c.4 0 .674.063.843.21.168.127.315.421.4.821l3.326 14.106 3.642-14.106c.126-.42.274-.694.421-.82.168-.127.442-.211.821-.211h1.958c.337 0 .526.168.526.526 0 .106-.02.21-.042.337-.02.126-.063.295-.147.526L40.4 31.442c-.126.421-.274.695-.442.821-.168.127-.442.21-.8.21h-1.81c-.4 0-.674-.063-.843-.21-.168-.147-.315-.42-.4-.842l-3.263-13.579L29.6 31.4c-.105.421-.232.695-.4.842-.168.148-.463.21-.842.21h-1.81zm27.053.568c-1.095 0-2.19-.126-3.242-.379-1.053-.253-1.874-.526-2.421-.842-.337-.19-.569-.4-.653-.59-.084-.189-.126-.4-.126-.589v-1.074c0-.442.168-.652.484-.652.127 0 .253.02.38.063.125.042.315.126.526.21.715.316 1.494.569 2.315.737.842.169 1.663.253 2.505.253 1.327 0 2.358-.232 3.074-.695.716-.463 1.095-1.137 1.095-2 0-.59-.19-1.073-.569-1.474-.378-.4-1.094-.757-2.126-1.094l-3.052-.948c-1.537-.484-2.674-1.2-3.369-2.147-.695-.926-1.053-1.958-1.053-3.053 0-.884.19-1.663.569-2.337.379-.673.884-1.263 1.516-1.726.631-.484 1.347-.842 2.19-1.095.841-.252 1.725-.357 2.652-.357.463 0 .947.02 1.41.084.485.063.927.147 1.369.231.42.106.82.21 1.2.337.379.127.673.253.884.38.295.168.505.336.632.526.126.168.189.4.189.694v.99c0 .442-.168.673-.484.673-.169 0-.442-.084-.8-.252-1.2-.548-2.548-.821-4.042-.821-1.2 0-2.148.19-2.8.59-.653.4-.99 1.01-.99 1.873 0 .59.21 1.095.632 1.495.42.4 1.2.8 2.316 1.157l2.99.948c1.515.484 2.61 1.158 3.262 2.02.653.864.969 1.854.969 2.948 0 .905-.19 1.727-.548 2.442-.379.716-.884 1.348-1.537 1.853-.652.526-1.431.905-2.336 1.179-.948.295-1.937.442-3.01.442z" fill="#252F3E"/>
<path d="M57.579 43.253c-6.926 5.115-16.99 7.831-25.642 7.831C19.81 51.084 8.884 46.6.632 39.147c-.653-.59-.064-1.39.715-.926 8.927 5.179 19.937 8.316 31.327 8.316 7.684 0 16.126-1.6 23.895-4.884 1.157-.527 2.147.758 1.01 1.6z" clip-rule="evenodd" fill="#F90" fill-rule="evenodd"/>
<path d="M60.463 39.968c-.884-1.136-5.852-.547-8.105-.273-.674.084-.779-.505-.168-.948 3.958-2.779 10.463-1.979 11.22-1.052.758.947-.21 7.452-3.915 10.568-.569.484-1.116.232-.863-.4.842-2.084 2.715-6.779 1.831-7.895z" clip-rule="evenodd" fill="#F90" fill-rule="evenodd"/>
</svg>
