<?xml version="1.0" encoding="UTF-8"?>
<svg fill="none" viewBox="0 0 64 64" xmlns="http://www.w3.org/2000/svg">
<path d="M29.495 50.406c7.08-1.25 12.928-2.286 12.996-2.3l.122-.026-6.685-7.95c-3.676-4.374-6.684-7.969-6.684-7.99 0-.039 6.902-19.046 6.94-19.114.014-.022 4.711 8.087 11.387 19.659l11.452 19.849.087.152-21.244-.003-21.244-.003 12.873-2.274zM4 47.981c0-.01 3.15-5.478 7-12.15l6.999-12.13 8.157-6.845c4.486-3.765 8.169-6.85 8.184-6.856.014-.005-.045.143-.132.33-.087.187-4.072 8.737-8.857 18.998l-8.7 18.658-6.325.008C6.846 47.998 4 47.993 4 47.98z" fill="#0089D6"/>
</svg>
