<svg xmlns="http://www.w3.org/2000/svg" width="96" height="96" viewBox="0 0 96 96">
    <g fill="none" fill-rule="evenodd">
        <g fill-rule="nonzero">
            <g>
                <path fill="#73C41D" d="M48 96c26.51 0 48-21.49 48-48S74.51 0 48 0 0 21.49 0 48s21.49 48 48 48z" transform="translate(-496 -2239) translate(496 2239)"/>
                <path fill="#FFF" d="M56.057 67.714c-2.932-.023-5.736-1.21-7.793-3.299-2.058-2.09-3.201-4.911-3.178-7.844.023-2.932 1.21-5.736 3.299-7.793 2.09-2.058 4.911-3.2 7.844-3.178 1.45-.013 2.889.27 4.228.83 1.339.56 2.55 1.385 3.56 2.427 1.01 1.042 1.797 2.278 2.315 3.634.518 1.355.755 2.802.697 4.252.063 1.458-.178 2.912-.707 4.272-.529 1.36-1.335 2.595-2.366 3.626-1.032 1.032-2.267 1.838-3.627 2.367-1.36.529-2.814.77-4.272.706zm.514-26.571c-1.923-.126-3.85.16-5.654.84-1.804.68-3.441 1.738-4.803 3.103l-.514.514V27.429h-4.629v29.657c-.038 1.983.328 3.954 1.075 5.792.747 1.838 1.86 3.505 3.27 4.9 1.41 1.395 3.09 2.488 4.937 3.214 1.846.726 3.821 1.069 5.804 1.008 4.092.068 8.043-1.492 10.985-4.337 2.942-2.845 4.633-6.743 4.7-10.834.07-4.092-1.491-8.044-4.336-10.985-2.845-2.942-6.743-4.633-10.835-4.701zm-17.828 6s-2.057-.343-3.772-.686c-1.83-.285-3.616-.803-5.314-1.543-2.757-1.464-5.112-3.583-6.857-6.171-2.289-2.513-4.752-4.862-7.371-7.029 0 0 1.542.172 3.257.515 2.863.752 5.626 1.846 8.228 3.257.722.335 1.41.737 2.057 1.2 1.323.876 2.532 1.912 3.6 3.085 1.372 1.372 2.572 2.572 3.6 3.772-1.2-2.057-4.114-9.6-9.771-15.772-.514-.685 3.943 2.229 5.143 3.429 2.473 2.599 4.242 5.785 5.143 9.257l2.057 6.686z" transform="translate(-496 -2239) translate(496 2239)"/>
            </g>
        </g>
    </g>
</svg>
