<?xml version="1.0" encoding="UTF-8"?>
<svg fill="none" viewBox="0 0 64 64" xmlns="http://www.w3.org/2000/svg">
<path d="M5.817 7c-.262-.003-.521.05-.76.157s-.45.264-.622.461c-.17.197-.296.429-.367.679-.072.25-.087.513-.045.77l7.614 45.902c.095.562.386 1.072.823 1.442.436.37.99.575 1.563.58H50.55c.43.005.848-.143 1.177-.417.33-.275.548-.658.617-1.08l7.632-46.41c.042-.256.027-.519-.045-.77-.07-.25-.196-.481-.367-.678-.171-.197-.383-.354-.622-.461-.239-.107-.498-.16-.76-.157L5.817 7zm32.062 33.176h-11.66l-3.156-16.37h17.64l-2.824 16.37z" fill="#2684FF"/>
<path d="M57.537 23.806H40.704l-2.825 16.37h-11.66L12.454 56.412c.437.375.993.583 1.57.588H50.56c.43.005.848-.143 1.177-.417.329-.275.548-.658.617-1.08l5.183-31.697z" fill="url(#a)"/>
<defs>
<linearGradient id="a" x1="61.43" x2="33.757" y1="28.384" y2="50.142" gradientUnits="userSpaceOnUse">
<stop stop-color="#0052CC" offset=".18"/>
<stop stop-color="#2684FF" offset="1"/>
</linearGradient>
</defs>
</svg>
