<?xml version="1.0" encoding="UTF-8"?>
<svg viewBox="0 0 64 64" xmlns="http://www.w3.org/2000/svg">
<path d="M47.233 26.442c.983-1.232 3.592-4.504 4.5-8.29.669-2.793.636-6.162.49-8.497-.06-.974-.57-1.832-1.4-2.351-.833-.523-1.88-.574-2.796-.215-1.532.601-3.813 1.667-6.165 3.381-3.074 2.24-4.79 5.837-5.605 8.038-.271.731-.967 1.218-1.75 1.218h-4.784c-.82 0-1.549-.513-1.835-1.28-.824-2.205-2.537-5.757-5.583-7.976-2.352-1.714-4.633-2.78-6.165-3.38-.917-.36-1.962-.31-2.796.214-.828.519-1.339 1.377-1.4 2.351-.145 2.335-.178 5.704.491 8.498.912 3.804 3.64 7.142 4.668 8.399l.076.093-.966 22.44c-.107 2.361.736 4.603 2.374 6.312 1.639 1.71 3.846 2.65 6.218 2.65h14.252c2.37 0 4.577-.94 6.215-2.648 1.639-1.709 2.483-3.95 2.377-6.311l-.937-22.003c.128-.101.237-.23.314-.382.049-.064.12-.151.207-.26z" clip-rule="evenodd" fill-rule="evenodd"/>
<path d="M47.233 26.442c.983-1.232 3.592-4.504 4.5-8.29.669-2.793.636-6.162.49-8.497-.06-.974-.57-1.832-1.4-2.351-.833-.523-1.88-.574-2.796-.215-1.532.601-3.813 1.667-6.165 3.381-3.074 2.24-4.79 5.837-5.605 8.038-.271.731-.967 1.218-1.75 1.218h-4.784c-.82 0-1.549-.513-1.835-1.28-.824-2.205-2.537-5.757-5.583-7.976-2.352-1.714-4.633-2.78-6.165-3.38-.917-.36-1.962-.31-2.796.214-.828.519-1.339 1.377-1.4 2.351-.145 2.335-.178 5.704.491 8.498.912 3.804 3.64 7.142 4.668 8.399l.076.093-.966 22.44c-.107 2.361.736 4.603 2.374 6.312 1.639 1.71 3.846 2.65 6.218 2.65h14.252c2.37 0 4.577-.94 6.215-2.648 1.639-1.709 2.483-3.95 2.377-6.311l-.937-22.003c.128-.101.237-.23.314-.382.049-.064.12-.151.207-.26z" clip-rule="evenodd" fill-rule="evenodd"/>
<path d="M13.46 13.853C12.49.652 26.567 16.31 32.544 26.365c3.427 5.765 1.22 8.189 1.427 8.456 1.401 1.805 4.584-4.143 5.936-3.388 4.311 2.409 6.138 8.246 5.969 14.298-.2 7.134-1.11 10.982-8.433 11.455-4.167.27-14.965.352-17.49-2.948-3.804-4.973-.603-26.306-.618-26.757-.187-5.483-.814 1.602-.95 3.016-.136 1.415.222-4.727-4.731-14.063l-.194-2.58z" clip-rule="evenodd" fill="#fff" fill-rule="evenodd"/>
<path d="M51.738 18.155c-.907 3.786-3.517 7.058-4.5 8.29l-.082.102c-.05.063-.093.116-.125.159-.077.152-.186.28-.314.382l.937 22.006c.106 2.362-.738 4.603-2.377 6.312-1.638 1.708-3.846 2.65-6.217 2.65H24.806c-2.371 0-4.58-.942-6.218-2.651-1.638-1.71-2.482-3.952-2.375-6.315l.966-22.442-.04-.05-.035-.043c-1.028-1.257-3.757-4.596-4.669-8.4-.67-2.795-.636-6.165-.49-8.5.06-.973.57-1.832 1.4-2.351.833-.523 1.879-.574 2.795-.215 1.533.601 3.814 1.667 6.167 3.382 3.046 2.219 4.76 5.771 5.583 7.977.287.767 1.016 1.28 1.836 1.28h4.785c.782 0 1.478-.487 1.75-1.219.814-2.2 2.531-5.798 5.605-8.038 2.352-1.714 4.633-2.78 6.166-3.382.917-.36 1.963-.308 2.797.215.829.519 1.339 1.378 1.4 2.352.146 2.335.178 5.704-.491 8.499zm-8.2 35.751c-1.222 1.23-2.93 1.86-4.667 1.86h-5.637v-2.19c0-.706.574-1.279 1.282-1.279h.255c1 0 1.922-.534 2.418-1.399l1.372-2.397c.608-1.061-.16-2.381-1.387-2.381H27c-1.226 0-1.994 1.32-1.387 2.38l1.372 2.398c.495.865 1.418 1.4 2.418 1.4h.255c.708 0 1.282.572 1.282 1.277v2.191h-5.944c-1.738 0-3.445-.63-4.668-1.861-1.253-1.264-1.9-2.941-1.82-4.71l.983-22.817c0-.01 0-.022-.002-.033l-.001-.028c0-.046-.004-.089-.008-.132v-.002l-.001-.019-.001-.02c-.043-.328-.22-.565-.294-.662-.065-.085-.167-.21-.3-.373-.937-1.147-3.425-4.191-4.215-7.486-.604-2.52-.569-5.646-.433-7.826.02-.312.212-.48.325-.552.194-.123.428-.146.645-.062 1.404.543 3.541 1.528 5.748 3.136 2.242 1.634 3.667 4.238 4.474 6.16.243.577-.166 1.211-.783 1.247-.59.035-1.151.386-1.239.97-.107.71.442 1.32 1.135 1.32h3.179l.003.001h.01c.186.009 2.236.099 2.236 1.964 0 .83.045 1.37.127 2.365l.024.304c.346 4.218 1.898 8.361 4.664 11.622 2.255 2.659 4.935 3.668 8.328 3.668 1.189 0 1.914 1.673 2.005 3.305.09 1.632.244 3.952.244 3.952.08 1.77-.569 3.447-1.822 4.709zM25.08 32.054c-1.017 0-1.842.825-1.842 1.843 0 1.017.825 1.842 1.842 1.842 1.018 0 1.843-.825 1.843-1.842 0-1.017-.825-1.843-1.843-1.843zm16.052 1.843c0-1.017-.825-1.843-1.843-1.843-1.017 0-1.842.825-1.842 1.843 0 1.017.825 1.842 1.842 1.842 1.018 0 1.843-.825 1.843-1.842z" clip-rule="evenodd" fill-rule="evenodd"/>
</svg>
