<?xml version="1.0" encoding="UTF-8"?>
<svg fill="none" viewBox="0 0 64 64" xmlns="http://www.w3.org/2000/svg">
<path d="M9 12.913v16.542c0 14.178 9.59 27.32 22.69 30.539 13.1-3.22 22.69-16.36 22.69-30.539V13.55L31.69 4.006 9 12.913z" fill="#1E88E5"/>
<path d="M31.984 4.006v55.988C18.714 56.774 9 43.634 9 29.455V12.913l22.984-8.907z" fill="#039BE5"/>
<path d="M54.38 28.17v.315c0 14.081-9.59 27.133-22.69 30.33C18.59 55.618 9 42.567 9 28.485v-.316c0 14.082 9.59 27.133 22.69 30.33 13.1-3.197 22.69-16.248 22.69-30.33z" fill="#263238" opacity=".2"/>
<path d="M33.337 58.226l-9.604-9.677c2.24 1.735 4.816 2.984 7.637 3.928 4.494-1.505 8.43-3.78 11.301-7.573v-6.31c0-4.392-6.676-7.235-10.6-7.544l-5.682-5.727.01-.01c1.327 1.197 3.08 1.922 5 1.922 4.149 0 7.515-3.392 7.515-7.572 0-1.934-.72-3.701-1.907-5.04l.01-.009L53.79 31.517c-1.177 12.173-9.353 23.055-20.453 26.709z" fill="url(#b)"/>
<path d="M54.38 13.702v.323L31.69 4.33 9 13.38v-.323l22.69-9.05 22.69 9.696z" fill="#fff" opacity=".2"/>
<path d="M31.69 27.656c4.23 0 7.661-3.395 7.661-7.58 0-.053-.003-.104-.003-.157-.086 4.111-3.48 7.421-7.658 7.421-4.179 0-7.572-3.31-7.659-7.421 0 .053-.003.104-.003.157 0 4.185 3.432 7.58 7.662 7.58zm-.03 24.95c-4.58-1.507-8.535-3.784-11.462-7.58v.316c2.927 3.796 6.882 6.073 11.463 7.58 4.58-1.507 8.593-3.784 11.52-7.58v-.316c-2.926 3.796-6.94 6.073-11.52 7.58z" fill="#263238" opacity=".2"/>
<path d="m31.984 31.293c3.847 0 11.492 2.931 11.492 7.605v6.337c-2.927 3.808-6.94 6.093-11.52 7.604-4.581-1.511-8.537-3.796-11.464-7.604v-6.337c0-4.674 7.645-7.605 11.492-7.605zm-0.294-18.839c-4.23 0-7.662 3.431-7.662 7.66 0 4.23 3.432 7.662 7.662 7.662s7.661-3.431 7.661-7.661-3.432-7.661-7.661-7.661z" fill="#F5F5F5"/>
<path d="M24.326 19.919c0-.054-.003-.104-.003-.157 0-4.143 3.432-7.505 7.661-7.505 4.23 0 7.662 3.362 7.662 7.505 0 .053-.003.103-.003.157-.087-4.072-3.48-7.35-7.659-7.35-4.178 0-7.572 3.278-7.658 7.35zM43.182 39.06v.307c0-4.52-7.646-7.355-11.492-7.355-3.847 0-11.493 2.834-11.493 7.355v-.307c0-4.52 7.646-7.355 11.493-7.355 3.846 0 11.492 2.835 11.492 7.355z" fill="#fff" opacity=".4"/>
<path d="M9 12.913v16.542c0 14.178 9.59 27.32 22.69 30.539 13.1-3.22 22.69-16.36 22.69-30.539V13.55L31.69 4.006 9 12.913z" fill="url(#a)"/>
<defs>
<radialGradient id="a" cx="0" cy="0" r="1" gradientTransform="translate(14.883 12.064) scale(49.618)" gradientUnits="userSpaceOnUse">
<stop stop-color="#fff" stop-opacity=".1" offset="0"/>
<stop stop-color="#fff" stop-opacity="0" offset="1"/>
</radialGradient>
<linearGradient id="b" x1="25.277" x2="51.716" y1="26.444" y2="39.098" gradientUnits="userSpaceOnUse">
<stop stop-color="#263238" stop-opacity=".1" offset="0"/>
<stop stop-color="#263238" stop-opacity="0" offset="1"/>
</linearGradient>
</defs>
</svg>
