<?xml version="1.0" encoding="UTF-8"?>
<svg viewBox="0 0 64 64" xmlns="http://www.w3.org/2000/svg">
<path d="M40.054 21.227h1.65l4.703-4.703.231-1.996c-2.694-2.378-5.95-4.03-9.46-4.8-3.51-.77-7.157-.632-10.6.4-3.441 1.033-6.563 2.925-9.07 5.5C15 18.202 13.19 21.373 12.25 24.84c.524-.215 1.105-.25 1.65-.1l9.406-1.55s.479-.792.726-.743c2.015-2.213 4.8-3.572 7.785-3.8 2.985-.226 5.944.696 8.27 2.58h-.033z" fill="#EA4335"/>
<path d="M53.107 24.84c-1.081-3.98-3.3-7.558-6.386-10.296l-6.6 6.6c1.375 1.125 2.477 2.546 3.223 4.159.746 1.612 1.117 3.372 1.083 5.148v1.172c.772 0 1.535.152 2.248.447.713.295 1.36.728 1.906 1.273.545.546.978 1.193 1.273 1.906.296.713.447 1.477.447 2.248 0 .772-.151 1.535-.447 2.248-.295.713-.728 1.36-1.273 1.906-.546.545-1.193.978-1.906 1.273-.712.295-1.476.447-2.248.447H32.68l-1.172 1.188v7.046l1.171 1.172h11.75c3.28.026 6.482-1.006 9.131-2.94 2.65-1.936 4.605-4.673 5.579-7.806.973-3.133.913-6.496-.174-9.592-1.086-3.096-3.14-5.76-5.857-7.598z" fill="#4285F4"/>
<path d="M20.914 52.71h11.748v-9.405H20.914c-.837 0-1.665-.18-2.426-.528l-1.65.512-4.736 4.703-.412 1.65c2.655 2.005 5.896 3.083 9.224 3.069z" fill="#34A853"/>
<path d="M20.913 22.2c-3.183.02-6.28 1.033-8.86 2.898-2.58 1.865-4.513 4.489-5.53 7.506-1.015 3.017-1.063 6.276-.137 9.322.926 3.045 2.78 5.726 5.304 7.666l6.814-6.815c-.866-.39-1.624-.986-2.21-1.735-.584-.749-.98-1.628-1.15-2.563-.17-.935-.112-1.897.171-2.805.283-.907.782-1.732 1.454-2.404.672-.672 1.497-1.17 2.404-1.454.908-.283 1.87-.341 2.805-.17.935.17 1.814.565 2.563 1.15.748.585 1.344 1.343 1.735 2.21l6.815-6.815c-1.43-1.87-3.274-3.384-5.386-4.423-2.113-1.04-4.437-1.576-6.791-1.567z" fill="#FBBC05"/>
</svg>
