<?xml version="1.0" encoding="UTF-8"?>
<svg fill="none" viewBox="0 0 64 64" xmlns="http://www.w3.org/2000/svg">
<path d="M32 4C16.54 4 4 16.537 4 32c0 12.371 8.022 22.867 19.15 26.57 1.397.259 1.85-.61 1.85-1.347v-5.212c-7.789 1.694-9.41-3.304-9.41-3.304-1.274-3.237-3.11-4.098-3.11-4.098-2.542-1.738.193-1.7.193-1.7 2.812.195 4.291 2.886 4.291 2.886 2.497 4.279 6.55 3.042 8.148 2.326.25-1.808.975-3.045 1.778-3.743-6.218-.711-12.756-3.112-12.756-13.839 0-3.059 1.094-5.555 2.884-7.515-.29-.707-1.249-3.556.273-7.411 0 0 2.352-.751 7.702 2.87 2.233-.62 4.627-.931 7.007-.943 2.38.012 4.776.322 7.014.943 5.346-3.621 7.693-2.87 7.693-2.87 1.524 3.857.565 6.706.275 7.41 1.797 1.96 2.882 4.46 2.882 7.516 0 10.755-6.55 13.123-12.784 13.816 1.003.868 1.92 2.571 1.92 5.185v7.683c0 .745.448 1.62 1.869 1.344C51.987 54.86 60 44.367 60 32 60 16.537 47.463 4 32 4z" fill="#000"/>
</svg>
