<?xml version="1.0" encoding="UTF-8"?>
<svg viewBox="0 0 40 40" xmlns="http://www.w3.org/2000/svg">
<path d="M35 20.345c0-1.02-.084-2.045-.264-3.048H20.302v5.776h8.266c-.343 1.863-1.445 3.51-3.06 4.558v3.748h4.932c2.896-2.613 4.56-6.47 4.56-11.034z" fill="#4285F4"/>
<path d="M20.302 35c4.127 0 7.607-1.328 10.143-3.62l-4.93-3.749c-1.373.915-3.144 1.433-5.207 1.433-3.993 0-7.377-2.64-8.592-6.189H6.627v3.863C9.225 31.804 14.517 35 20.302 35z" fill="#34A853"/>
<path d="M11.71 22.875c-.64-1.863-.64-3.88 0-5.743V13.27H6.629c-2.17 4.238-2.17 9.231 0 13.47l5.083-3.864z" fill="#FBBC04"/>
<path d="M20.302 10.937c2.181-.033 4.29.772 5.87 2.249l4.369-4.283c-2.767-2.546-6.438-3.946-10.24-3.902-5.785 0-11.076 3.197-13.674 8.267l5.083 3.864c1.21-3.555 4.6-6.195 8.592-6.195z" fill="#EA4335"/>
</svg>
