<?xml version="1.0" encoding="UTF-8"?>
<svg fill="none" viewBox="0 0 64 64" xmlns="http://www.w3.org/2000/svg">
<path d="M47.264 33.626c-.227.224-.892.766-1.657.664-.678-.09-1.21-.649-1.21-2.49v-5.058h4.06V23.84h-4.06v-3.768H40.97v.65h-.002V31.8c0 1.76.451 5.853 4.64 5.853 2.116-.032 3.402-1.159 3.94-1.595l.07-.057-2.149-2.582s-.155.16-.205.208zM7.33 34.277c-2.096 0-3.8-1.672-3.8-3.726 0-2.055 1.704-3.727 3.8-3.727 2.095 0 3.8 1.672 3.8 3.727 0 2.054-1.705 3.726-3.8 3.726zm7.303-10.496h-3.429v.795c-1.121-.702-2.448-1.114-3.874-1.114-3.986 0-7.23 3.18-7.23 7.089 0 3.909 3.244 7.089 7.23 7.089 1.41 0 2.723-.405 3.837-1.092-.003.113-.005.215-.005.279 0 2.054-1.705 3.726-3.8 3.726-.739 0-1.426-.21-2.01-.57l-1.706 2.913c1.088.643 2.356 1.02 3.716 1.02 3.986 0 7.27-3.18 7.27-7.09V23.782zM25.24 30.421c0 1.268-.071 2.095-.214 2.482-.194.519-.49.912-.89 1.18-.4.267-.886.4-1.458.4s-1.054-.136-1.445-.407c-.391-.272-.675-.652-.852-1.142-.177-.49-.265-1.364-.265-2.624v-6.47H16.64v5.593c0 2.149.134 3.63.403 4.445.378 1.178 1.03 2.095 1.958 2.754.927.658 2.142.987 3.645.987 1.385 0 2.526-.282 3.424-.845.899-.564 1.578-1.373 2.04-2.427.378-.864.567-2.469.567-4.815V23.84H25.24v6.581zM35.98 29.125l-1.258-.618c-.546-.263-.888-.47-1.027-.623-.138-.152-.207-.319-.207-.5 0-.239.109-.438.327-.599.218-.16.52-.24.907-.24.705 0 1.49.42 2.354 1.259l2.128-2.087c-.546-.716-1.21-1.265-1.996-1.648-.785-.383-1.622-.574-2.511-.574-1.302 0-2.37.376-3.205 1.13-.835.753-1.253 1.66-1.253 2.722 0 1.646 1.108 3.017 3.324 4.111l1.159.568c.999.494 1.498 1 1.498 1.519 0 .28-.139.527-.415.74-.277.215-.643.322-1.096.322-.42 0-.9-.142-1.442-.426-.541-.284-1.013-.656-1.416-1.117l-2.115 2.259c1.191 1.531 2.787 2.297 4.784 2.297 1.503 0 2.701-.4 3.595-1.198.894-.798 1.34-1.795 1.34-2.988 0-.897-.247-1.68-.742-2.346-.496-.667-1.406-1.321-2.732-1.963zM59.407 33.384c-.714.733-1.61 1.1-2.686 1.1-1.077 0-1.966-.363-2.667-1.087-.703-.724-1.054-1.671-1.054-2.84 0-1.136.355-2.068 1.066-2.797.71-.728 1.6-1.092 2.668-1.092 1.093 0 1.99.36 2.692 1.08.702.72 1.053 1.657 1.053 2.809 0 1.153-.357 2.095-1.072 2.827zm3.578-6.358c-.638-1.087-1.526-1.947-2.663-2.58-1.138-.635-2.353-.951-3.645-.951-1.788 0-3.37.609-4.747 1.827-1.57 1.4-2.354 3.148-2.354 5.247 0 1.96.694 3.624 2.084 4.995 1.389 1.37 3.065 2.056 5.03 2.056 1.334 0 2.555-.311 3.663-.933 1.108-.621 1.983-1.483 2.626-2.586.642-1.103.963-2.289.963-3.556 0-1.26-.32-2.433-.957-3.52z" clip-rule="evenodd" fill="#F45D48" fill-rule="evenodd"/>
</svg>
