<svg xmlns="http://www.w3.org/2000/svg" width="80" height="88" viewBox="0 0 80 88">
    <g fill="none" fill-rule="evenodd">
        <g fill="#430098" fill-rule="nonzero">
            <g>
                <path d="M70.954 0H7.895C3.555 0 0 3.51 0 7.857V80.09C0 84.439 3.503 88 7.843 88h63.112c4.34 0 7.895-3.51 7.895-7.857V7.91c0-4.348-3.504-7.91-7.843-7.91h-.053zm3.556 80.09c.052 1.939-1.517 3.51-3.399 3.51H7.895c-1.934.052-3.503-1.52-3.503-3.405V7.91C4.34 5.97 5.91 4.4 7.791 4.4h63.164c1.934-.052 3.503 1.519 3.503 3.405V80.09h.052zM19.817 74.8l9.882-8.852-9.882-8.853V74.8zm35.556-35.62c-2.824-2.723-6.64-4.137-10.562-3.98-5.595.157-11.19 1.152-16.471 3.09V13.253h-8.784v38.081l6.17-2.88s10.09-4.61 18.928-4.61c4.392 0 5.49 2.41 5.49 4.61v26.4h8.836v-26.4c.157-3.51-1.15-6.862-3.607-9.272zM43.765 27.5H52.6c3.556-3.98 5.857-8.957 6.536-14.3h-8.836c-.994 5.238-3.242 10.162-6.536 14.3z" transform="translate(-1128 -1062) translate(1128 1062)"/>
            </g>
        </g>
    </g>
</svg>
