<svg id="Layer_1" data-name="Layer 1" xmlns="http://www.w3.org/2000/svg" xmlns:xlink="http://www.w3.org/1999/xlink" viewBox="0 0 616.21 593.18"><defs><linearGradient id="linear-gradient" x1="391.9" y1="-293" x2="830.16" y2="-293" gradientTransform="translate(0 816)" gradientUnits="userSpaceOnUse"><stop offset="0" stop-color="#10deec"/><stop offset="0.22" stop-color="#2fe1c9"/><stop offset="1" stop-color="#77e87e"/></linearGradient><linearGradient id="linear-gradient-2" x1="853.65" y1="9.41" x2="751.46" y2="-570.15" gradientTransform="translate(0 816)" gradientUnits="userSpaceOnUse"><stop offset="0" stop-color="#d0f11e"/><stop offset="1" stop-color="#77e87e"/></linearGradient><linearGradient id="linear-gradient-3" x1="621.05" y1="-439.09" x2="1060.44" y2="-185.41" gradientTransform="translate(0 816)" gradientUnits="userSpaceOnUse"><stop offset="0" stop-color="#5ce69b"/><stop offset="0.32" stop-color="#5de69a" stop-opacity="0.97"/><stop offset="1" stop-color="#77e87e" stop-opacity="0"/></linearGradient></defs><g id="llogo"><g id="logo"><path d="M799,523.23h0v-.8h0c0-12.8,0-21.6.1-25.9.1-3.9,0-5.7-.1-9.5-.4-9.1-1.2-12.4-1.5-13.5a36.19,36.19,0,0,0-3.7-8.9c-2.2-3.8-5.5-7.1-12.1-13.8-1.4-1.4-2.8-2.7-2.8-2.7s-.3-.2-.3-.3c-.9-.8-151-134.4-183.2-163.6a102.26,102.26,0,0,0-15.3-11.6,95.25,95.25,0,0,0-19.9-9.7,106.07,106.07,0,0,0-22.9-4.9,113.19,113.19,0,0,0-32,1.3c-23.8,4.7-41.3,17.7-50.2,26.1-31.9,30.2-32.2,71.3-32.1,78.9.7,66.6.3,111.9.1,155.6h0v1.8h0c.2,43.9.5,93.3-.1,159.9-.1,7.5.2,48.6,32.1,78.9,8.9,8.4,26.4,21.4,50.2,26.1a109.33,109.33,0,0,0,32,1.3,102.89,102.89,0,0,0,22.9-4.9,104,104,0,0,0,19.9-9.7,116.93,116.93,0,0,0,15.3-11.6c32.2-29.2,182.3-162.8,183.2-163.6l.3-.3s1.4-1.3,2.8-2.7c6.6-6.7,9.9-10.1,12.1-13.8a36.19,36.19,0,0,0,3.7-8.9c.3-1.1,1.1-4.4,1.5-13.5.2-3.7.2-5.6.1-9.5C799,544.83,799,536.13,799,523.23Z" transform="translate(-391.9 -226.41)" style="fill:none;stroke-miterlimit:10;stroke-width:62.09230041503906px;stroke:url(#linear-gradient)"/><path d="M672.65,648.33q25.2,21.3,50.5,42.6c-13,11.5-26,23.1-39,34.6-16.4-14.3-32.9-28.6-49.3-43Q653.6,665.43,672.65,648.33Z" transform="translate(-391.9 -226.41)" style="opacity:0.20999999344348907;isolation:isolate"/><path d="M601.05,523.23h0v-.8h0c0-12.8,0-21.6-.1-25.9-.1-3.9,0-5.7.1-9.5.4-9.1,1.2-12.4,1.5-13.5a36.19,36.19,0,0,1,3.7-8.9c2.2-3.8,5.5-7.1,12.1-13.8,1.4-1.4,2.8-2.7,2.8-2.7s.3-.2.3-.3c.9-.8,151-134.4,183.2-163.6a102.26,102.26,0,0,1,15.3-11.6,95.25,95.25,0,0,1,19.9-9.7,106.07,106.07,0,0,1,22.9-4.9,113.19,113.19,0,0,1,32,1.3c23.8,4.7,41.3,17.7,50.2,26.1,31.9,30.2,32.2,71.3,32.1,78.9-.7,66.6-.3,111.9-.1,155.6h0v1.8h0c-.2,43.9-.5,93.3.1,159.9.1,7.5-.2,48.6-32.1,78.9-8.9,8.4-26.4,21.4-50.2,26.1a109.33,109.33,0,0,1-32,1.3,102.89,102.89,0,0,1-22.9-4.9,104,104,0,0,1-19.9-9.7,116.93,116.93,0,0,1-15.3-11.6c-32.2-29.2-182.3-162.8-183.2-163.6l-.3-.3s-1.4-1.3-2.8-2.7c-6.6-6.7-9.9-10.1-12.1-13.8a36.19,36.19,0,0,1-3.7-8.9c-.3-1.1-1.1-4.4-1.5-13.5-.2-3.7-.2-5.6-.1-9.5C601,544.83,601.05,536.13,601.05,523.23Z" transform="translate(-391.9 -226.41)" style="fill:none;stroke-miterlimit:10;stroke-width:62.09230041503906px;stroke:url(#linear-gradient-2)"/><path d="M601.05,523.23h0v-.8h0c0-12.8,0-21.6-.1-25.9-.1-3.9,0-5.7.1-9.5.4-9.1,1.2-12.4,1.5-13.5a36.19,36.19,0,0,1,3.7-8.9c2.2-3.8,5.5-7.1,12.1-13.8,1.4-1.4,2.8-2.7,2.8-2.7s.3-.2.3-.3c.9-.8,151-134.4,183.2-163.6a102.26,102.26,0,0,1,15.3-11.6,95.25,95.25,0,0,1,19.9-9.7,106.07,106.07,0,0,1,22.9-4.9,113.19,113.19,0,0,1,32,1.3c23.8,4.7,41.3,17.7,50.2,26.1,31.9,30.2,32.2,71.3,32.1,78.9-.7,66.6-.3,111.9-.1,155.6h0v1.8h0c-.2,43.9-.5,93.3.1,159.9.1,7.5-.2,48.6-32.1,78.9-8.9,8.4-26.4,21.4-50.2,26.1a109.33,109.33,0,0,1-32,1.3,102.89,102.89,0,0,1-22.9-4.9,104,104,0,0,1-19.9-9.7,116.93,116.93,0,0,1-15.3-11.6c-32.2-29.2-182.3-162.8-183.2-163.6l-.3-.3s-1.4-1.3-2.8-2.7c-6.6-6.7-9.9-10.1-12.1-13.8a36.19,36.19,0,0,1-3.7-8.9c-.3-1.1-1.1-4.4-1.5-13.5-.2-3.7-.2-5.6-.1-9.5C601,544.83,601.05,536.13,601.05,523.23Z" transform="translate(-391.9 -226.41)" style="fill:none;stroke-miterlimit:10;stroke-width:62.09230041503906px;stroke:url(#linear-gradient-3)"/><path d="M681.75,437.53c-16.1-14.7-32.1-29.4-48.2-44.1l17.7-15.6c16.2,14.4,32.5,28.8,48.7,43.3C693.85,426.53,687.75,432,681.75,437.53Z" transform="translate(-391.9 -226.41)" style="opacity:0.20999999344348907;isolation:isolate"/></g></g></svg>