<?xml version="1.0" encoding="UTF-8"?>
<svg width="30" height="30" version="1.1" viewBox="0 0 1050 1050" xmlns="http://www.w3.org/2000/svg">
<g fill="#778eb1">
<path d="m71.5 28.78c2.43-0.43 4.88-0.72 7.34-0.77 142.73-0.03 285.47 0.01 428.21-0.02 14.97-0.41 29.91 5.98 40.19 16.84 11.14 11.37 16.74 27.86 14.95 43.66-0.5 4.57-1.61 9.03-2.55 13.52-14.3 67.97-28.62 135.94-42.93 203.92-4.84 21.81-8.41 43.99-15.47 65.25-10.6 32.77-28.18 63.86-53.81 87.2-25.87 23.99-59.04 38.96-93.27 46.48-28.24 6.38-57.29 8.07-86.16 8.14h-175.99c-10.21 0.05-20.76 0.5-30.45-3.33-20.05-7.1-34.52-27.24-34.8-48.52-0.03-122.39 0-244.77-0.01-367.16 0.08-8.28-0.56-16.71 1.63-24.8 4.88-20.36 22.47-36.89 43.12-40.41z"/>
<path d="m778.73 207.81c25.4-1.81 50.87-0.8 76.3-1.06 39.67-0.01 79.34 0.01 119.01-0.01 12.66-0.02 25.29 4.98 34.29 13.93 9.29 8.82 14.71 21.47 14.92 34.26 0.01 237.7-0.01 475.4 0.01 713.1 0.25 7.61-0.86 15.32-3.77 22.38-7.26 18.16-25.75 31.29-45.38 31.6-300.06-0.01-600.13-0.02-900.19 0-19.95-0.25-38.6-14.37-44.67-33.3-3.34-9.22-2.38-19.13-2.5-28.73v-113.99c0.09-10.45-0.88-21.28 3.05-31.22 6.71-19.11 25.73-33.21 46.05-33.53 58.39 0.01 116.78 0 175.17 0.01 20.97-0.14 41.94 0.35 62.9-0.43 23.35-1.07 46.83-4.65 68.68-13.23 17.03-6.6 32.78-16.46 46.08-28.97 24.59-23.15 40.28-53.97 51.68-85.37 27.94-86.31 55.85-172.63 83.8-258.93 6.23-18.95 11.57-38.24 19.83-56.45 15.18-34.93 38.29-67.11 69.6-89.27 36.26-26.18 81.04-37.71 125.14-40.79z"/>
</g>
</svg>
