<?xml version="1.0" encoding="UTF-8"?>
<svg viewBox="0 0 652.67 565.03" xmlns="http://www.w3.org/2000/svg">
<path transform="translate(-174.23 -219.49)" d="M337.33,219.49q163.21,0,326.41,0Q745.4,360.7,826.9,502,745.26,643.22,663.72,784.52q-163.19,0-326.38,0L174.23,502Q255.77,360.75,337.33,219.49ZM484.49,370.76A130,130,0,0,0,436,386.82,130.77,130.77,0,0,0,389,569c20.3,33.4,56.22,56.8,95.09,61.44A130.93,130.93,0,0,0,631.26,506c1.76-36.57-13-73.46-39.3-98.89C564.11,379.5,523.38,365.67,484.49,370.76Z" fill="#1fb8f4"/>
</svg>
