<?xml version="1.0" encoding="UTF-8"?>
<svg fill="none" viewBox="0 0 64 64" xmlns="http://www.w3.org/2000/svg">
<path d="M38.05 52.854c.083-.535.104-39.259.025-40.104L18.76 17.455v27.297c-3.322 1.327-6.632 2.65-9.94 3.97-.022-.012-.04-.019-.057-.032-.015-.01-.034-.027-.035-.042-.01-.102-.024-.204-.024-.308V15.277c.147-.187.339-.21.505-.272 9.458-3.622 18.918-7.24 28.377-10.86.328-.126.625-.187.988-.078 5.19 1.54 10.385 3.063 15.579 4.59l.258.086v46.49c-1.492.423-2.97.847-4.45 1.264-3.765 1.062-7.534 2.115-11.297 3.185-.369.105-.69.097-1.053-.04-9.303-3.514-18.61-7.018-27.914-10.523-.184-.07-.364-.148-.518-.315l28.87 4.05z" fill="#DC3E15"/>
</svg>
