<?xml version="1.0" encoding="UTF-8" ?>
<!DOCTYPE svg PUBLIC "-//W3C//DTD SVG 1.1//EN" "http://www.w3.org/Graphics/SVG/1.1/DTD/svg11.dtd">
<svg width="400pt" height="400pt" viewBox="0 0 400 400" version="1.1" xmlns="http://www.w3.org/2000/svg">
<g id="#ffffffff">
</g>
<g id="#027bc0ff">
<path fill="#027bc0" opacity="1.00" d=" M 176.73 9.34 C 224.58 3.21 274.64 15.84 313.45 44.62 C 340.75 64.51 362.57 91.81 376.00 122.80 C 384.85 143.06 390.03 164.89 391.41 186.95 C 391.53 198.27 392.05 209.68 390.48 220.93 C 385.24 269.20 360.39 314.95 322.98 345.84 C 304.64 361.24 283.30 373.00 260.58 380.52 C 224.02 392.61 183.82 393.27 146.88 382.33 C 93.31 366.93 47.80 326.49 25.70 275.37 C 15.57 252.29 10.38 227.18 9.75 202.02 C 9.22 162.08 21.26 122.03 44.32 89.36 C 62.42 63.53 86.94 42.21 115.16 28.09 C 134.40 18.33 155.35 12.10 176.73 9.34 M 154.44 115.59 C 135.52 126.10 120.46 143.22 112.34 163.27 C 112.70 164.23 113.26 165.08 114.03 165.82 C 113.54 165.33 112.56 164.34 112.08 163.84 C 102.10 189.19 103.46 218.78 116.19 242.92 C 125.18 260.32 139.67 274.81 157.11 283.73 C 175.99 293.59 198.26 296.73 219.14 292.58 C 244.28 287.82 267.05 272.23 280.85 250.72 C 291.79 234.10 297.04 213.89 296.02 194.05 C 295.06 174.31 287.73 154.94 275.38 139.51 C 260.57 120.87 238.57 107.98 214.97 104.63 C 194.33 101.34 172.65 105.38 154.44 115.59 Z" />
</g>
</svg>
