<?xml version="1.0" encoding="UTF-8"?>
<svg fill="none" viewBox="0 0 64 64" xmlns="http://www.w3.org/2000/svg">
<path d="M39.803 8h-.56v6.344h6.343V8h-5.782zM23.017 8c-2.02 0-3.985.393-5.838 1.179-1.796.758-3.396 1.853-4.772 3.228-1.375 1.376-2.47 2.976-3.228 4.772C8.393 19.032 8 20.997 8 23.017v22.569h6.344V22.933c.112-2.273 1.066-4.407 2.666-5.979 1.628-1.6 3.762-2.526 6.035-2.61H35.172V8H23.019zM50.218 28.828h-.562v6.344H56v-6.344h-5.782zM50.218 18.414h-.562v6.344H56v-6.344h-5.782zM55.439 8h-5.783v6.344H56V8h-.561zM50.218 39.242h-.562v6.344H56v-6.344h-5.782zM50.218 49.656h-.562V56H56v-6.344h-5.782zM39.803 49.656h-.56V56h6.343v-6.344h-5.782zM29.39 49.656h-.562V56h6.344v-6.344H29.39zM18.975 49.656h-.561V56h6.344v-6.344h-5.783zM8.561 49.656H8V56h6.344v-6.344H8.562z" fill="#46E3B7"/>
</svg>
