<?xml version="1.0" encoding="UTF-8"?>
<svg fill="none" viewBox="0 0 64 64" xmlns="http://www.w3.org/2000/svg">
<path d="m10.735 22.678c0-4.633-2.348-8.462-6.735-11.678h10.199c3.579 2.757 5.772 6.968 5.772 11.678s-2.193 8.92-5.772 11.678c3.31 1.378 5.195 4.747 5.195 9.572v9.189h-9.236v-9.19c0-4.594-2.194-7.81-6.158-9.571 4.387-3.216 6.735-7.045 6.735-11.678zm20.012 0c0-4.633-2.347-8.462-6.735-11.678h10.199c3.58 2.757 5.773 6.968 5.773 11.678s-2.194 8.92-5.773 11.678c3.31 1.378 5.196 4.747 5.196 9.572v9.189h-9.237v-9.19c0-4.594-2.194-7.81-6.158-9.571 4.388-3.216 6.735-7.045 6.735-11.678zm20.017 0c0-4.633-2.348-8.462-6.735-11.678h10.198c3.58 2.757 5.773 6.968 5.773 11.678s-2.194 8.92-5.773 11.678c3.31 1.378 5.196 4.747 5.196 9.572v9.189h-9.237v-9.19c0-4.594-2.193-7.81-6.157-9.571 4.387-3.216 6.735-7.045 6.735-11.678z" fill="#000"/>
</svg>
