<?xml version="1.0" encoding="UTF-8"?>
<svg viewBox="0 0 92 92" xmlns="http://www.w3.org/2000/svg">
<path d="M19.63 58c0 5.26-4.297 9.556-9.556 9.556C4.814 67.556.52 63.259.52 58c0-5.26 4.296-9.556 9.555-9.556h9.556V58zm4.814 0c0-5.26 4.297-9.556 9.556-9.556 5.26 0 9.556 4.297 9.556 9.556v23.926c0 5.26-4.297 9.555-9.556 9.555-5.26 0-9.556-4.296-9.556-9.555V58z" fill="#E01E5A"/>
<path d="M34 19.63c-5.26 0-9.556-4.297-9.556-9.556C24.444 4.814 28.741.52 34 .52c5.26 0 9.556 4.296 9.556 9.555v9.556H34zm0 4.814c5.26 0 9.556 4.297 9.556 9.556 0 5.26-4.297 9.556-9.556 9.556H10.074C4.814 43.556.52 39.259.52 34c0-5.26 4.296-9.556 9.555-9.556H34z" fill="#36C5F0"/>
<path d="M72.37 34c0-5.26 4.297-9.556 9.556-9.556 5.26 0 9.555 4.297 9.555 9.556 0 5.26-4.296 9.556-9.555 9.556H72.37V34zm-4.814 0c0 5.26-4.297 9.556-9.556 9.556-5.26 0-9.556-4.297-9.556-9.556V10.074C48.444 4.814 52.741.52 58 .52c5.26 0 9.556 4.296 9.556 9.555V34z" fill="#2EB67D"/>
<path d="M58 72.37c5.26 0 9.556 4.297 9.556 9.556 0 5.26-4.297 9.555-9.556 9.555-5.26 0-9.556-4.296-9.556-9.555V72.37H58zm0-4.814c-5.26 0-9.556-4.297-9.556-9.556 0-5.26 4.297-9.556 9.556-9.556h23.926c5.26 0 9.555 4.297 9.555 9.556 0 5.26-4.296 9.556-9.555 9.556H58z" fill="#ECB22E"/>
</svg>
