<svg xmlns="http://www.w3.org/2000/svg" width="60" height="60" viewBox="0 0 60 60">
  <g id="Group_1261" data-name="Group 1261" transform="translate(-316 -5490)">
    <rect id="Rectangle_215" data-name="Rectangle 215" width="60" height="60" rx="20" transform="translate(316 5490)" fill="#dbdeff" opacity="0.5"/>
    <path id="Path_348" data-name="Path 348" d="M6.312.892a1.763,1.763,0,0,1,3.066,0l6.08,7.6a1.763,1.763,0,0,1-1.533,2.634H1.766A1.763,1.763,0,0,1,.233,8.489Z" transform="translate(339.037 5515.411) rotate(45)" fill="#8a74ff"/>
    <path id="Path_349" data-name="Path 349" d="M6.312,10.231a1.763,1.763,0,0,0,3.066,0l6.079-7.6A1.763,1.763,0,0,0,13.925,0H1.766A1.763,1.763,0,0,0,.233,2.634Z" transform="translate(349.747 5504.702) rotate(45)" fill="#fbcd43"/>
  </g>
</svg>
