<svg xmlns="http://www.w3.org/2000/svg" xmlns:xlink="http://www.w3.org/1999/xlink" width="490" height="330" viewBox="0 0 490 330">
  <defs>
    <linearGradient id="b" x1="-433.54" y1="548.42" x2="-433.06" y2="547.42"
                    gradientTransform="matrix(136 0 0 -136 59088 74752)" gradientUnits="userSpaceOnUse">
      <stop offset="0" stop-color="#00bbfc"/>
      <stop offset="1" stop-color="#0086f7"/>
    </linearGradient>
    <mask id="c" x="68.88" y="140.72" width="177.43" height="187.74" maskUnits="userSpaceOnUse">
      <circle cx="161" cy="238" r="68" fill="#fff"/>
    </mask>
    <mask id="d" x="93" y="170" width="136" height="136" maskUnits="userSpaceOnUse">
      <g>
        <circle cx="161" cy="238" r="68" fill="#fff"/>
      </g>
    </mask>
    <linearGradient id="e" x1="-433.15" y1="548.56" x2="-433.15" y2="547.53"
                    gradientTransform="matrix(130.56 0 0 -149.62 56777.04 82130.03)" gradientUnits="userSpaceOnUse">
      <stop offset="0" stop-color="#fef2bb"/>
      <stop offset="1" stop-color="#f6ab37"/>
    </linearGradient>
    <linearGradient id="f" x1="-433.15" y1="548.15" x2="-433.15" y2="547.95"
                    gradientTransform="matrix(130.56 0 0 -149.62 56777.04 82130.03)" gradientUnits="userSpaceOnUse">
      <stop offset="0" stop-color="#6a4c21" stop-opacity=".69"/>
      <stop offset="1" stop-color="#35250d" stop-opacity=".7"/>
    </linearGradient>
    <linearGradient id="a" x1="-433.15" y1="548.08" x2="-434.15" y2="548.08"
                    gradientTransform="matrix(153.6 0 0 -153.6 66928.72 84372.56)" gradientUnits="userSpaceOnUse">
      <stop offset="0" stop-color="#2161ad"/>
      <stop offset=".18" stop-color="#206ab3"/>
      <stop offset=".47" stop-color="#1c82c5"/>
      <stop offset=".84" stop-color="#17aae1"/>
      <stop offset="1" stop-color="#14bdef"/>
    </linearGradient>
    <linearGradient id="g" x1="-433.33" y1="547.67" x2="-432.33" y2="547.67"
                    gradientTransform="matrix(119.19 0 0 -119.19 51910.5 65466.46)" xlink:href="#a"/>
  </defs>
  <path fill="#e8eaea" d="M308.46 150.21h58.09v3.2h-58.09z"/>
  <path d="M370.48 151.81a2.48 2.48 0 1 1-2.48-2.48 2.48 2.48 0 0 1 2.48 2.48" fill="#e8eaea" fill-rule="evenodd"/>
  <path
    d="M306.47 227.18a3 3 0 1 1 3-3 3 3 0 0 1-3 3zm0-5.29a2.25 2.25 0 1 0 2.25 2.25 2.24 2.24 0 0 0-2.25-2.25zM237 72.14a3 3 0 1 1 3.05-3 3 3 0 0 1-3.05 3zm0-5.29a2.25 2.25 0 1 0 2.25 2.24 2.24 2.24 0 0 0-2.25-2.24zM233.5 307a2.58 2.58 0 0 0-.4 0l-3.6-5.2v-25l-7.5-9V260h-1v8.18l7.5 9v25l3.64 5.25a2.47 2.47 0 0 0-1.14 2.07 2.5 2.5 0 1 0 2.5-2.5zM119.68 273.5h-29L78.14 284h-6.32a3 3 0 1 0 0 2h7l12.5-10.5h29l7-5H146v-2h-19.32zM83.37 189.66l-.15-.16H51.84a3.46 3.46 0 1 0 .16 1h30.78l30.35 32.84.15.16h55.22v-1h-54.78zM82.4 133a3 3 0 0 0 3-3 2.73 2.73 0 0 0-.05-.5h47.43l20.5 22H169v-1h-15.28l-20.5-22H85a3 3 0 1 0-2.6 4.5z"
    fill="#e8eaea"/>
  <path
    d="M132.42 143h-20.56a4 4 0 1 0 0 2h19.72l27 27.5h27.92v-2h-27.08zM153.83 95H164v-1h-9.83l-24-18h-15.52a3.48 3.48 0 1 0 .35 1.5 4 4 0 0 0 0-.5h14.88zM98 62a3 3 0 0 0 3-3h23.68l27.5 19.5H164v-2h-11.18L125.32 57h-25.1A3 3 0 1 0 98 62zM226.5 13.16a2.5 2.5 0 1 0-2 0v10.29l14 12.5V61h2V35.05l-14-12.5zM430.38 258.29a2.5 2.5 0 0 0-2.13 1.21h-47.1l-17.38-11.42-.54.84 17.62 11.58h47.06a2.85 2.85 0 0 0 0 .29 2.5 2.5 0 1 0 2.5-2.5zM436 218a4 4 0 0 0-3.44 2h-9.3l-13.5-7.5H389v2h20.24l13.5 7.5H432a4 4 0 1 0 4-4z"
    fill="#e8eaea"/>
  <circle cx="245.68" cy="199.89" r="1.33" fill="#e8eaea"/>
  <path d="M264 20a2 2 0 0 0-.5 3.93v20.93l-12.43 20.38.86.52 12.57-20.62V23.93A2 2 0 0 0 264 20z" fill="#e8eaea"/>
  <circle cx="281.51" cy="219.69" r="1.33" fill="#e8eaea"/>
  <circle cx="314.28" cy="231.49" r="1.33" fill="#e8eaea"/>
  <path
    d="M391.5 270a2.5 2.5 0 0 0-2 1h-13.85l-24.87-16.42-.56.84 25 16.5.13.08h13.7a2.73 2.73 0 0 0-.05.5 2.5 2.5 0 1 0 2.5-2.5z"
    fill="#e8eaea"/>
  <circle cx="379.76" cy="219.69" r="1.33" fill="#e8eaea"/>
  <path
    d="M468.5 171a2.5 2.5 0 0 0-2 1h-37.21l-19 19.5H394v1h16.71l19-19.5h36.34a2.73 2.73 0 0 0-.05.5 2.5 2.5 0 1 0 2.5-2.5zM357.5 95.9l13-13.5v-6.61a2.5 2.5 0 1 0-2 0v5.81l-13 13.5V123h2zM329 78.5a2.5 2.5 0 1 0-2.5 2.5 2.54 2.54 0 0 0 1.28-.36l2.22 2.72V99h2V82.64l-3-3.72a2.72 2.72 0 0 0 0-.42z"
    fill="#e8eaea"/>
  <circle cx="353.46" cy="182.96" r="1.33" fill="#e8eaea"/>
  <circle cx="307.13" cy="204.14" r="1.33" fill="#e8eaea"/>
  <path
    d="M337.5 44.93a2 2 0 1 0-1 0v20.23l11 15v38.34h1V79.84l-11-15zM127 260.5v-2H83.37l-18-15.5h-6.55a3 3 0 0 0-5.64 0H53v2h.18a3 3 0 0 0 5.64 0h5.81l18 15.5z"
    fill="#e8eaea"/>
  <circle cx="161" cy="238" r="68" fill="url(#b)"/>
  <g mask="url(#c)">
    <path
      d="M147.17 328.46l-.09-1.13a23.76 23.76 0 0 0 15-7.66c4.18-4.37 6.76-10.21 7.67-17.35a26.65 26.65 0 0 1 9-15.65 27 27 0 0 1 15.08-6.49c1-.11 4.8-.57 5.72-.79 5-1.16 8.17-3 12.08-7.12 4.18-4.37 6.76-10.21 7.68-17.35a26.64 26.64 0 0 1 9-15.65 26.2 26.2 0 0 1 17.94-6.73l-.05 1.13a25 25 0 0 0-17.14 6.45 25.5 25.5 0 0 0-8.64 15c-.94 7.37-3.63 13.42-8 18-4 4.23-7.46 6.24-12.65 7.45-1 .24-5.13.73-5.84.8a26 26 0 0 0-14.46 6.22 25.56 25.56 0 0 0-8.65 15c-.94 7.36-3.62 13.41-8 18a25 25 0 0 1-15.65 7.87zm-12.47-14.74l-.09-1.12a23.9 23.9 0 0 0 15-7.66c4.17-4.37 6.75-10.21 7.67-17.35a26.62 26.62 0 0 1 9-15.66 27 27 0 0 1 15.08-6.48c1-.12 4.79-.58 5.71-.79 5-1.16 8.17-3 12.09-7.12 4.18-4.38 6.76-10.21 7.67-17.35a26.68 26.68 0 0 1 9-15.66 26.21 26.21 0 0 1 17.94-6.73l-.05 1.14a24.9 24.9 0 0 0-17.15 6.45 25.47 25.47 0 0 0-8.64 15c-.94 7.37-3.62 13.42-8 18-4 4.22-7.47 6.24-12.65 7.44-1 .24-5.14.73-5.85.81a25.91 25.91 0 0 0-14.46 6.22 25.47 25.47 0 0 0-8.64 15c-.94 7.37-3.63 13.42-8 18a24.91 24.91 0 0 1-15.63 7.86zm-13.6-15.86l-.09-1.13a23.81 23.81 0 0 0 15-7.66c4.17-4.37 6.75-10.21 7.67-17.35a26.6 26.6 0 0 1 9-15.65 27 27 0 0 1 15.08-6.49c.74-.09 4.75-.56 5.71-.79 5-1.16 8.17-3 12.09-7.12 4.18-4.37 6.76-10.21 7.67-17.35a26.62 26.62 0 0 1 9-15.65 26.16 26.16 0 0 1 17.94-6.73l-.05 1.13a24.88 24.88 0 0 0-17.12 6.45 25.47 25.47 0 0 0-8.64 15c-.94 7.37-3.62 13.42-8 18-4 4.23-7.47 6.24-12.65 7.45-1.14.26-5.8.8-5.85.81a25.82 25.82 0 0 0-14.46 6.21 25.5 25.5 0 0 0-8.64 15c-.94 7.36-3.63 13.41-8 18a24.93 24.93 0 0 1-15.66 7.87zM107.5 282l-.09-1.13a23.81 23.81 0 0 0 15-7.66c4.17-4.37 6.75-10.2 7.67-17.34a26.63 26.63 0 0 1 9-15.66 27.13 27.13 0 0 1 15.09-6.49c1-.11 4.79-.57 5.71-.79 5-1.16 8.17-3 12.09-7.12 4.18-4.37 6.76-10.21 7.67-17.34a26.65 26.65 0 0 1 9-15.66 26.14 26.14 0 0 1 17.94-6.73v1.13a24.93 24.93 0 0 0-17.15 6.45 25.5 25.5 0 0 0-8.64 15c-.94 7.36-3.62 13.41-8 18-4 4.22-7.47 6.24-12.65 7.44-1 .24-5.14.73-5.85.81a26 26 0 0 0-14.46 6.21 25.5 25.5 0 0 0-8.64 15c-.94 7.36-3.63 13.42-8 18A25 25 0 0 1 107.5 282zM95 267.26l-.09-1.13a23.78 23.78 0 0 0 15-7.66c4.18-4.37 6.76-10.21 7.67-17.35a26.65 26.65 0 0 1 9-15.65 27 27 0 0 1 15.16-6.47c1-.11 4.79-.57 5.71-.79 5-1.16 8.17-3 12.09-7.12 4.18-4.37 6.76-10.21 7.67-17.35a26.65 26.65 0 0 1 9-15.65 26.13 26.13 0 0 1 17.94-6.73v1.13a24.85 24.85 0 0 0-17.15 6.43 25.54 25.54 0 0 0-8.65 15c-.94 7.37-3.62 13.42-8 18-4 4.23-7.47 6.24-12.65 7.44-1 .25-5.13.74-5.84.81a26 26 0 0 0-14.47 6.22 25.5 25.5 0 0 0-8.64 15c-.94 7.36-3.62 13.41-8 18A25 25 0 0 1 95 267.26zm-13.6-15.87l-.09-1.13a23.78 23.78 0 0 0 15-7.66c4.18-4.37 6.76-10.21 7.67-17.34a26.65 26.65 0 0 1 9-15.66 27.07 27.07 0 0 1 15.08-6.49c1-.1 4.8-.57 5.71-.78 5-1.16 8.18-3 12.09-7.13 4.18-4.37 6.76-10.21 7.67-17.34a26.65 26.65 0 0 1 9-15.66 26.06 26.06 0 0 1 17.94-6.73v1.13a25 25 0 0 0-17.14 6.45 25.56 25.56 0 0 0-8.65 15c-.94 7.36-3.62 13.41-8 18-4 4.22-7.46 6.24-12.65 7.44-1.15.27-5.8.8-5.84.81a26 26 0 0 0-14.47 6.21 25.5 25.5 0 0 0-8.64 15c-.94 7.36-3.62 13.41-8 18a25 25 0 0 1-15.65 7.88zM69 236.66l-.09-1.13a23.76 23.76 0 0 0 15-7.66c4.18-4.37 6.76-10.21 7.67-17.35a26.65 26.65 0 0 1 9-15.65 27 27 0 0 1 15.08-6.49c1-.11 4.8-.58 5.72-.79 5-1.16 8.17-3 12.09-7.12 4.17-4.37 6.75-10.21 7.67-17.35a26.64 26.64 0 0 1 9-15.65 26 26 0 0 1 17.94-6.73v1.13a24.92 24.92 0 0 0-17.14 6.45 25.47 25.47 0 0 0-8.64 15c-.94 7.37-3.63 13.42-8 18-4 4.23-7.46 6.24-12.65 7.45-1.15.26-5.79.8-5.84.8a25.91 25.91 0 0 0-14.46 6.22 25.56 25.56 0 0 0-8.65 15c-.94 7.36-3.62 13.41-8 18a25 25 0 0 1-15.7 7.87z"
      fill="#fff" opacity=".2"/>
  </g>
  <g mask="url(#d)">
    <path d="M162.72 227.47zm-4 26z" fill="none"/>
    <path
      d="M174.4 194.26c-5.27 6.12-9.29 6.6-9.29 6.6l-.28 9.67c7.75 2.87 13-3.26 13-3.26 4.69 3.07 9.77-2.87 9.77-2.87 3.06 1.73 5.74-1.53 5.74-1.53 5.93 2.87 10.52-2 10.52-2-25.06-6.13-24.2-12.74-29.46-6.61zM157 210.62l-.29-9.66s-3.92-.48-9.28-6.61-4.4.48-29.48 6.61c0 0 4.6 4.88 10.53 2 0 0 2.58 3.35 5.74 1.53 0 0 5.07 5.93 9.76 3 .02-.12 5.25 5.91 13.02 3.13zm4.79 35.89l.19-2.29c-.67-.2-1.34-.29-2-.48l.19 3.82a9.68 9.68 0 0 1 1.6-1.05z"
      fill="#fff"/>
    <path
      d="M163.3 199.23a5.7 5.7 0 0 0 3.44-5.26 5.84 5.84 0 1 0-11.67 0 5.89 5.89 0 0 0 3.44 5.26l.86 27.47a27.67 27.67 0 0 1 3.07-.67l.19-7.27v-.29c0-.19.09-.29.09-.48zm-3.07 53.5v1a2.69 2.69 0 0 0 .87.77c.19 0 .28.09.47.19l.1-3c-.1 0-.1.1-.19 0a4 4 0 0 0-1.25 1.04zm1.82-13.87l.19-6.13c-.76.1-1.53.29-2.2.38-.19 0-.28.1-.48.1l.2 5c.76.17 1.53.45 2.29.65zm-.67 20.19a8.35 8.35 0 0 0-.95-.48l.28 5h.77l.09-4.5h-.19zm-2-1c-.19-.09-.28-.09-.38-.19l-.57-.29c-.29.29-.39.67-.2.87a.38.38 0 0 0 .29.09 1 1 0 0 0 .48-.19.1.1 0 0 0 .1-.1 1.24 1.24 0 0 1 .27-.15zM150.47 230c.1-.1.19-.1.19-.2h.1a4.82 4.82 0 0 1 .57-.47 7.54 7.54 0 0 1 1.53-.77c.2-.1.39-.1.58-.19a8.42 8.42 0 0 1 1.24-.38c.19-.1.39-.1.58-.2.76-.19 1.53-.38 2.2-.57-.38-.1-.67-.1-1.05-.19l-2.88-.58c-.47-.09-.86-.19-1.34-.28l-.66-.19-.48-.2a3.13 3.13 0 0 1-2.11-1.81 2.59 2.59 0 0 1 .29-1.92 3.36 3.36 0 0 1 1.43-1.34 2.82 2.82 0 0 0 4.6.29c.57-.67 2.29-1.53 2.29-2.49s-1.62-1.63-2.1-2.2a2.54 2.54 0 0 0-2.3-1.34 2.87 2.87 0 0 0-2.2 1h-.38a5.28 5.28 0 0 0-2 .58 3.5 3.5 0 0 0-1.05.76 7.23 7.23 0 0 0-2.12 2.69 7.13 7.13 0 0 0-.38 5.36 7 7 0 0 0 1.91 2.78c.19.19.48.38.67.57a1.86 1.86 0 0 0 .77.38 10.17 10.17 0 0 0 1.53.67c.19.1.38.1.57.24z"
      fill="#fff"/>
    <path
      d="M174.4 217.32c-.58-.57-1.05-.67-1.05-.76a5.84 5.84 0 0 0-2-.58H171a2.85 2.85 0 0 0-2.2-1 3.27 3.27 0 0 0-2.49 1.34c-.38.57-2.1 1.34-2.1 2.2s1.82 1.92 2.29 2.49a2.87 2.87 0 0 0 2.21 1 3.09 3.09 0 0 0 2.39-1.34 3.36 3.36 0 0 1 1.43 1.34 2.67 2.67 0 0 1 .29 1.92 2.91 2.91 0 0 1-2.1 1.81l-.48.2-.67.19c-.48.09-.86.19-1.34.28l-2.87.58c-.48.09-.86.19-1.34.29s-.77.09-1.06.19h-.09L160 228a3.21 3.21 0 0 1-.95.19c-1.15.29-2.21.48-3.35.86a13 13 0 0 0-1.73.58 17.83 17.83 0 0 0-1.91.86 6 6 0 0 0-1.72 1.53 5 5 0 0 0-1 2.3 5.49 5.49 0 0 0 1.44 4.4 6.35 6.35 0 0 0 1.72 1.44 6.45 6.45 0 0 0 2 .76l3.44.86c.19 0 .29.1.48.1 1.72.38 3.35.76 5 1.15l1.15.28a2.27 2.27 0 0 1 .67.29c.09.1.28.19.38.29a1.18 1.18 0 0 1 .38.76 2 2 0 0 1-1 1.73c-.86.48-1.62 1-2.48 1.43s-1.63 1-2.4 1.44l-.57.38h-.1l-.09.1-.1.09h-.48c-.19.19-.28.19-.47.38a4.14 4.14 0 0 0-.48.67 1.72 1.72 0 0 0-.39.67 1.94 1.94 0 0 0-.19.67 6.65 6.65 0 0 0 0 1.34 4.11 4.11 0 0 0 1.73 2.68 2.66 2.66 0 0 0 .95.48 10 10 0 0 1 2 1 3.85 3.85 0 0 1 .67.48l.19.19a.57.57 0 0 0 .39.1.33.33 0 0 0 .28-.1c.2-.19.1-.57-.19-.86a2.18 2.18 0 0 0-.67-.58c-.09 0-.09-.09-.19-.09a17.29 17.29 0 0 0-2-1.15 3.06 3.06 0 0 1-1.82-2.3v-.57c.1-1 1-1.72 2.2-2.39.77-.39 1.44-.87 2.3-1.25 0 0 .1 0 .1-.09.38-.2.86-.48 1.24-.67s.86-.39 1.44-.77a3.79 3.79 0 0 0 1.91-3.44 3 3 0 0 0-1-2.11 3.26 3.26 0 0 0-1-.67 3.29 3.29 0 0 0-.87-.38c-.57-.19-1.24-.29-1.81-.48-1.53-.48-3.16-1-4.79-1.44-.09 0-.09 0-.19-.09-1-.29-2.11-.67-3.16-.86a2.51 2.51 0 0 1-1.24-.58 4 4 0 0 1-1-.86 2.86 2.86 0 0 1-.67-2.2 2 2 0 0 1 .48-.86c.09-.1.19-.29.38-.29a2.91 2.91 0 0 1 .58-.38c.28-.19.86-.29 1.24-.48a8.55 8.55 0 0 1 1.53-.38c1.05-.29 2.2-.48 3.26-.67 2.1-.39 4.21-.67 6.22-1 1.05-.19 2-.29 3-.38a7.11 7.11 0 0 1 1.44-.19l.67-.1a3.29 3.29 0 0 1 .86-.19 4.46 4.46 0 0 0 1.53-.67c.29-.1.48-.29.77-.38s.48-.39.67-.58a6.07 6.07 0 0 0 1.91-2.77 7.12 7.12 0 0 0-.38-5.36 7.66 7.66 0 0 0-1.81-2.55z"
      fill="#fff"/>
  </g>
  <g mask="url(#d)">
    <path
      d="M134.2 287.87V281h7.66v6.89h2v-14.76h-2v6.09h-7.66v-6.09h-2v14.74zm15.23 0v-14.74h-2v14.74zm5.43 0v-6.23h4.63a4.09 4.09 0 0 0 3.3-1.28 4.54 4.54 0 0 0 1.07-3 4 4 0 0 0-1.2-3.12 4.49 4.49 0 0 0-3.17-1.11h-6.63v14.74zm4-7.92h-4v-5.1h4a4.27 4.27 0 0 1 1.81.31 2.21 2.21 0 0 1 1.21 2.21 2.25 2.25 0 0 1-.84 2 3.82 3.82 0 0 1-2.18.57zm6.81 7.92l1.59-4.42h5.83l1.49 4.42h2.19l-5.35-14.74h-2.25l-5.55 14.74zm6.78-6h-4.65l2.38-6.51zm7.92 6l1.59-4.42h5.83l1.49 4.42h2.19l-5.35-14.74h-2.25l-5.55 14.74zm6.78-6h-4.65l2.38-6.51z"
      fill="#fff"/>
  </g>
  <path
    d="M224.6 56.78l-67 11.65v53.68a83.8 83.8 0 0 0 17.48 52.05c18.36 24.06 45.14 34.57 49.53 36.18 6.8-2.42 67-25.58 67-88.23V68.43z"
    fill-rule="evenodd" fill="url(#e)"/>
  <path
    d="M224.6 210.41l-.65-.24c-5-1.84-31-12.21-49.13-35.88a83.63 83.63 0 0 1-17.42-51.89V68.49l67.2-11.69 67.2 11.69v53.91c0 62.34-59.74 85.35-66.55 87.77zM161.24 71.72v50.68a79.92 79.92 0 0 0 16.63 49.6c16.76 21.94 40.62 32 46.75 34.36 9-3.33 63.34-25.85 63.34-83.92V71.72l-63.36-11z"
    fill="url(#f)"/>
  <path
    d="M179.6 109l6.3-6.66a16.63 16.63 0 0 0 2-2.49 4.45 4.45 0 0 0 .73-2.35 2.37 2.37 0 0 0-.58-1.7 2.19 2.19 0 0 0-1.71-.63 2.46 2.46 0 0 0-1.85.72 4.17 4.17 0 0 0-.89 2.43h-3.54a6.33 6.33 0 0 1 1.85-4.57 6.52 6.52 0 0 1 4.6-1.56 8 8 0 0 1 2.54.38 5.57 5.57 0 0 1 1.89 1.06 4.65 4.65 0 0 1 1.14 1.66 5.41 5.41 0 0 1 .4 2.12 5.85 5.85 0 0 1-.92 3.17 15.9 15.9 0 0 1-2.4 2.92l-3.25 3.17h6.69v3h-13zm21.41.89a8.46 8.46 0 0 1-2.76-.4 5.4 5.4 0 0 1-1.93-1.14 4.86 4.86 0 0 1-1.21-1.7 6.76 6.76 0 0 1-.48-2.14h3.59a4.54 4.54 0 0 0 .24 1 2.1 2.1 0 0 0 .48.75 2 2 0 0 0 .81.5 3.61 3.61 0 0 0 1.23.17 2.42 2.42 0 0 0 2-.84 3.38 3.38 0 0 0 .69-2.21 3.13 3.13 0 0 0-.75-2.21 2.66 2.66 0 0 0-2-.8 4.6 4.6 0 0 0-2 .38 4.44 4.44 0 0 0-1.3 1h-2.16l.24-9.79h10.9v3h-8l-.07 4.3a4.4 4.4 0 0 1 1.43-1.1 5.18 5.18 0 0 1 2.39-.48 5.63 5.63 0 0 1 2.14.39 4.92 4.92 0 0 1 1.66 1.12 5.21 5.21 0 0 1 1.09 1.83 7.46 7.46 0 0 1 .38 2.45 6.34 6.34 0 0 1-.47 2.48 5.19 5.19 0 0 1-1.33 1.88 5.88 5.88 0 0 1-2.08 1.21 8.28 8.28 0 0 1-2.74.32zm16.09 0a7.73 7.73 0 0 1-3.29-.62 5.8 5.8 0 0 1-2.19-1.73 6.9 6.9 0 0 1-1.22-2.59 13.45 13.45 0 0 1-.37-3.26v-.43a12.75 12.75 0 0 1 .55-3.88 8.44 8.44 0 0 1 1.54-2.83 6.58 6.58 0 0 1 2.34-1.76 7.11 7.11 0 0 1 2.93-.6 6.64 6.64 0 0 1 4.13 1.19 5 5 0 0 1 1.84 3.57h-3.61a2.69 2.69 0 0 0-.69-1.33 2.21 2.21 0 0 0-1.62-.5 3 3 0 0 0-2.55 1.37 7.57 7.57 0 0 0-1 4.05 4.6 4.6 0 0 1 1.6-1.56 5 5 0 0 1 2.56-.59 6.35 6.35 0 0 1 2.26.39 5.49 5.49 0 0 1 1.81 1.11 5.29 5.29 0 0 1 1.18 1.75 6 6 0 0 1 .43 2.34 6.09 6.09 0 0 1-.46 2.41 5.16 5.16 0 0 1-1.3 1.87 6.19 6.19 0 0 1-2.09 1.2 8.26 8.26 0 0 1-2.78.4zm0-2.81a2.65 2.65 0 0 0 2.06-.84 3.13 3.13 0 0 0 .77-2.22 3.2 3.2 0 0 0-.75-2.21 2.67 2.67 0 0 0-2.08-.84 3.13 3.13 0 0 0-1.2.22 2.62 2.62 0 0 0-.92.6 2.8 2.8 0 0 0-.6.94 2.94 2.94 0 0 0-.22 1.17 3.19 3.19 0 0 0 .82 2.34 2.82 2.82 0 0 0 2.08.81zm15.79-14.68h6.76a6.84 6.84 0 0 1 4.27 1.13 4 4 0 0 1 1.43 3.34V97a3.9 3.9 0 0 1-.68 2.32 3.72 3.72 0 0 1-2.11 1.36 4.58 4.58 0 0 1 2.56 1.32 4 4 0 0 1 .88 2.72v.1a4.34 4.34 0 0 1-1.52 3.6 7.13 7.13 0 0 1-4.48 1.18h-7.07zm6.47 14.51a3 3 0 0 0 2.11-.63 2.34 2.34 0 0 0 .68-1.8v-.1a2.23 2.23 0 0 0-.7-1.8 3.43 3.43 0 0 0-2.29-.61h-2.47v4.94zm-.36-7.44a3 3 0 0 0 2-.53 2.12 2.12 0 0 0 .6-1.68v-.1a1.93 1.93 0 0 0-.63-1.59 3.3 3.3 0 0 0-2-.5h-2.31v4.4zm10.83-7.07h3.92v17.2h-3.92zm12.1 3h-4.63v-3h13.21v3h-4.64v14.2H262zm-51.9 45.15a10.73 10.73 0 0 1-3.08-.39 6 6 0 0 1-2.15-1.16 4.82 4.82 0 0 1-1.32-1.78 6.53 6.53 0 0 1-.53-2.33h3.73a6.3 6.3 0 0 0 .24 1.1 2 2 0 0 0 .55.87 2.84 2.84 0 0 0 1 .62 4.63 4.63 0 0 0 1.58.23 3.15 3.15 0 0 0 2.06-.64 2 2 0 0 0 .77-1.65 2.26 2.26 0 0 0-.15-.87 1.6 1.6 0 0 0-.52-.62 4 4 0 0 0-1-.42 13.8 13.8 0 0 0-1.56-.33 15.85 15.85 0 0 1-2.83-.59 5.63 5.63 0 0 1-1.91-1 3.44 3.44 0 0 1-1.12-1.5 5.88 5.88 0 0 1-.35-2.14 4.76 4.76 0 0 1 .44-2 4.91 4.91 0 0 1 1.27-1.64 6.08 6.08 0 0 1 2-1.06 8.31 8.31 0 0 1 2.57-.38 7.23 7.23 0 0 1 4.56 1.29 5.23 5.23 0 0 1 1.89 3.86h-3.58a2.56 2.56 0 0 0-.89-1.72 3.11 3.11 0 0 0-2-.57 2.92 2.92 0 0 0-1.93.54 1.75 1.75 0 0 0-.64 1.41 2.3 2.3 0 0 0 .13.81 1.2 1.2 0 0 0 .5.58 2.86 2.86 0 0 0 1 .46 11 11 0 0 0 1.61.34 17.48 17.48 0 0 1 2.74.54 6.11 6.11 0 0 1 2 .93 3.77 3.77 0 0 1 1.2 1.51 5.72 5.72 0 0 1 .39 2.24 5.14 5.14 0 0 1-.45 2.15 5 5 0 0 1-1.3 1.72 6.13 6.13 0 0 1-2.07 1.18 8.16 8.16 0 0 1-2.83.44zm15.68 0a10.78 10.78 0 0 1-3.08-.39 5.93 5.93 0 0 1-2.16-1.15 5 5 0 0 1-1.33-1.78 6.75 6.75 0 0 1-.53-2.33h3.73a6.3 6.3 0 0 0 .24 1.1 2.11 2.11 0 0 0 .56.87 2.79 2.79 0 0 0 1 .62 4.67 4.67 0 0 0 1.58.23 3.16 3.16 0 0 0 2.07-.64 2.24 2.24 0 0 0 .61-2.52 1.49 1.49 0 0 0-.51-.62 4.21 4.21 0 0 0-1-.42 13.56 13.56 0 0 0-1.57-.33 16 16 0 0 1-2.83-.59 5.82 5.82 0 0 1-1.91-1 3.6 3.6 0 0 1-1.12-1.5 5.88 5.88 0 0 1-.35-2.14 4.62 4.62 0 0 1 .45-2 5 5 0 0 1 1.26-1.64 6.24 6.24 0 0 1 2-1.06 8.26 8.26 0 0 1 2.57-.38 7.23 7.23 0 0 1 4.56 1.29 5.23 5.23 0 0 1 1.89 3.86h-3.59a2.52 2.52 0 0 0-.89-1.72 3.1 3.1 0 0 0-2-.57 3 3 0 0 0-1.94.54 1.77 1.77 0 0 0-.63 1.41 2.3 2.3 0 0 0 .13.81 1.23 1.23 0 0 0 .49.58 3.07 3.07 0 0 0 1 .46 11.5 11.5 0 0 0 1.62.34 17.71 17.71 0 0 1 2.74.54 6.32 6.32 0 0 1 2 .93 3.67 3.67 0 0 1 1.19 1.51 5.54 5.54 0 0 1 .4 2.24 5 5 0 0 1-.46 2.15 4.87 4.87 0 0 1-1.3 1.72 6.13 6.13 0 0 1-2.07 1.18 8.12 8.12 0 0 1-2.8.43zm9.67-17.46h3.9v14.14h7v3.06H235.4zm-51.92 31.3h6v1.63h-3.95v2.16h3.16v1.53h-3.16v2.31h4.16v1.63h-6.24zm7.86 0h2.44l3.52 6.1v-6.1h1.87v9.26h-2.1l-3.86-6.59v6.59h-1.87zm14.15 9.4a5.65 5.65 0 0 1-2-.33 4 4 0 0 1-1.45-1 3.91 3.91 0 0 1-.9-1.48 6.22 6.22 0 0 1-.29-1.94V159a5 5 0 0 1 .35-1.92 4.36 4.36 0 0 1 1-1.5 4.27 4.27 0 0 1 1.45-1 4.77 4.77 0 0 1 1.83-.34 5.46 5.46 0 0 1 1.54.2 4.06 4.06 0 0 1 1.27.62 3.44 3.44 0 0 1 .87 1.05 3.81 3.81 0 0 1 .42 1.49h-2.15a2 2 0 0 0-.59-1.27 1.91 1.91 0 0 0-1.35-.44 2.11 2.11 0 0 0-1.75.81 3.49 3.49 0 0 0-.65 2.25v.1a3.54 3.54 0 0 0 .63 2.25 2.16 2.16 0 0 0 1.78.79 2.26 2.26 0 0 0 1.43-.44 2 2 0 0 0 .7-1.34h2.06a4.37 4.37 0 0 1-.43 1.51 3.24 3.24 0 0 1-.88 1.08 3.58 3.58 0 0 1-1.27.66 5.34 5.34 0 0 1-1.6.26zm5.67-9.4h3.32a5.6 5.6 0 0 1 1.47.17 3.17 3.17 0 0 1 1.13.51 2.4 2.4 0 0 1 .72.89 2.8 2.8 0 0 1 .25 1.24v.05a2.64 2.64 0 0 1-.14.93 2.1 2.1 0 0 1-.4.7 2.51 2.51 0 0 1-.61.51 3.14 3.14 0 0 1-.75.32l2.45 3.94h-2.23l-2.22-3.58h-.9v3.58h-2.09zm3.27 4.26a1.75 1.75 0 0 0 1.18-.34 1.23 1.23 0 0 0 .4-1v-.06a1.13 1.13 0 0 0-.41-1 2.1 2.1 0 0 0-1.17-.28h-1.18v2.66zm7.82 1l-3.06-5.27h2.31l1.88 3.55 1.84-3.55h2l-2.89 5.27v4h-2.11zm6.32-5.27h3.2a4 4 0 0 1 2.62.74 2.67 2.67 0 0 1 .92 2.21 3 3 0 0 1-.25 1.28 2.39 2.39 0 0 1-.7.9 3 3 0 0 1-1.09.54 5.78 5.78 0 0 1-1.43.17h-1.18v3.37h-2.09zm3.15 4.43a1.68 1.68 0 0 0 1.18-.36 1.36 1.36 0 0 0 .39-1.05v-.06a1.25 1.25 0 0 0-.41-1 1.86 1.86 0 0 0-1.16-.32h-1.06v2.84zm6.93-2.8h-2.5v-1.63h7.11v1.63h-2.5v7.63h-2.11zm6.13-1.63h2.11v9.26h-2.11zm8.63 7.73a2.41 2.41 0 0 0 1.05-.22 2.25 2.25 0 0 0 .81-.62 2.92 2.92 0 0 0 .51-1 4.19 4.19 0 0 0 .18-1.27 4 4 0 0 0-.18-1.23 2.74 2.74 0 0 0-.5-1 2.15 2.15 0 0 0-.81-.62 2.53 2.53 0 0 0-1.09-.22 2.6 2.6 0 0 0-1.08.21 2.2 2.2 0 0 0-.81.6 2.57 2.57 0 0 0-.51 1 4.08 4.08 0 0 0-.18 1.26v.1a3.91 3.91 0 0 0 .2 1.28 2.75 2.75 0 0 0 .54.95 2.18 2.18 0 0 0 .82.62 2.59 2.59 0 0 0 1.07.2zm0 1.67a5.32 5.32 0 0 1-2-.35A4.35 4.35 0 0 1 249 161a5.06 5.06 0 0 1-.34-1.88V159a4.91 4.91 0 0 1 .36-1.9 4.3 4.3 0 0 1 1-1.49 4.56 4.56 0 0 1 1.5-1 5 5 0 0 1 1.91-.35 5.37 5.37 0 0 1 1.92.33 4.41 4.41 0 0 1 1.51.95 4.55 4.55 0 0 1 1 1.48 4.84 4.84 0 0 1 .36 1.9v.11a5.19 5.19 0 0 1-.35 1.91 4.64 4.64 0 0 1-1 1.51 4.56 4.56 0 0 1-1.5 1 5.4 5.4 0 0 1-2 .37zm6.45-9.4h2.43l3.53 6.1v-6.1h1.86v9.26h-2.1l-3.86-6.59v6.59h-1.86z"
    fill="#6a4c21"/>
  <circle cx="319.32" cy="187.36" r="76.8" fill="url(#a)"/>
  <circle cx="319.32" cy="187.36" r="59.6" fill="url(#g)"/>
  <path
    d="M272.27 238.06a.89.89 0 0 0 .25-.73 3.24 3.24 0 0 0-.47-1.14 3.75 3.75 0 0 1-.51-1.2 1.28 1.28 0 0 1 .33-1.07 1.23 1.23 0 0 1 1-.4 2.35 2.35 0 0 1 1.73 1.43 1.57 1.57 0 0 1 .06.86 1.49 1.49 0 0 1-.4.74l-.33-.31a1.15 1.15 0 0 0 .35-.89 1.47 1.47 0 0 0-.49-.94 1.63 1.63 0 0 0-.88-.48.81.81 0 0 0-.76.27.76.76 0 0 0-.23.69 3 3 0 0 0 .44 1.06 6.19 6.19 0 0 1 .49 1 1.37 1.37 0 0 1 0 .75 1.12 1.12 0 0 1-.34.63 1.2 1.2 0 0 1-1.06.37 2.18 2.18 0 0 1-1.22-.65 2.57 2.57 0 0 1-.6-.86 1.58 1.58 0 0 1-.12-.91 1.41 1.41 0 0 1 .4-.76l.32.31a1.08 1.08 0 0 0-.31.94 1.85 1.85 0 0 0 .58 1 1.62 1.62 0 0 0 .91.5.89.89 0 0 0 .82-.26zm4.81 2.78a3.24 3.24 0 0 1-1 .82 2 2 0 0 1-1.12.19 2 2 0 0 1-1-.47 1.93 1.93 0 0 1-.68-1.54 2.73 2.73 0 0 1 .73-1.74l.35-.42a3.13 3.13 0 0 1 1-.82 1.92 1.92 0 0 1 1.13-.19 2.14 2.14 0 0 1 1.66 1.39 2.05 2.05 0 0 1 0 1.1 3 3 0 0 1-.6 1.14zm0-.73a2.41 2.41 0 0 0 .64-1.43 1.57 1.57 0 0 0-1.82-1.54 2.33 2.33 0 0 0-1.28.9l-.36.42a2.38 2.38 0 0 0-.62 1.43 1.48 1.48 0 0 0 .56 1.19 1.43 1.43 0 0 0 1.28.35 2.44 2.44 0 0 0 1.28-.9zm3.64 4.25a1.82 1.82 0 0 1-1.23.66 1.79 1.79 0 0 1-1.33-.41 1.89 1.89 0 0 1-.68-.85 1.93 1.93 0 0 1-.08-1.09 3 3 0 0 1 .52-1.15l.41-.57a3.16 3.16 0 0 1 .94-.88 1.91 1.91 0 0 1 1.07-.26 1.88 1.88 0 0 1 1.05.39 1.78 1.78 0 0 1 .54 2.56l-.36-.27a1.36 1.36 0 0 0 .23-1.07 1.38 1.38 0 0 0-.64-.89 1.43 1.43 0 0 0-1.28-.24 2.38 2.38 0 0 0-1.28 1l-.38.53a2.39 2.39 0 0 0-.53 1.43 1.38 1.38 0 0 0 .61 1.11 1.5 1.5 0 0 0 1.06.35 1.63 1.63 0 0 0 .95-.56zm1.89 3.16l1.87-3.07-.56-.35.19-.3.55.34.25-.41a1.32 1.32 0 0 1 .75-.64 1.07 1.07 0 0 1 .9.17 1.12 1.12 0 0 1 .36.29l-.2.3a2.6 2.6 0 0 0-.32-.26.71.71 0 0 0-.6-.09.87.87 0 0 0-.5.44l-.26.42.81.48-.19.31-.81-.48-1.85 3.08zm2.75-.72a2.19 2.19 0 0 1 .69-.79 1.62 1.62 0 0 1 .89-.33 1.57 1.57 0 0 1 .92.21 1.64 1.64 0 0 1 .87 1.09 2.1 2.1 0 0 1-.27 1.53v.09a2.27 2.27 0 0 1-.69.79 1.5 1.5 0 0 1-.89.33 1.57 1.57 0 0 1-.92-.22 1.66 1.66 0 0 1-.87-1.08 2.13 2.13 0 0 1 .27-1.54zm.33.32a1.76 1.76 0 0 0-.23 1.21 1.31 1.31 0 0 0 .64.83 1.29 1.29 0 0 0 1 .08 1.9 1.9 0 0 0 .9-.89v-.07a2.14 2.14 0 0 0 .26-.81 1.56 1.56 0 0 0-.15-.74 1.16 1.16 0 0 0-1.57-.52 1.94 1.94 0 0 0-.9.89zm6 1.17l-.25-.16a1.13 1.13 0 0 0-.72-.09 1.21 1.21 0 0 0-.65.43l-1.17 2.45-.4-.17 1.71-3.59.38.19-.27.57a1.2 1.2 0 0 1 1.28-.16.66.66 0 0 1 .23.17zm4.39 4.23a.85.85 0 0 0 0-.76 3.31 3.31 0 0 0-.89-.86 4.32 4.32 0 0 1-.95-.91 1.19 1.19 0 0 1-.14-1.14 1.25 1.25 0 0 1 .82-.75 2.09 2.09 0 0 1 1.28.1 2.38 2.38 0 0 1 .82.52 1.55 1.55 0 0 1 .32 1.62l-.43-.16a1.08 1.08 0 0 0 0-1 1.47 1.47 0 0 0-.81-.66 1.57 1.57 0 0 0-1-.09.83.83 0 0 0-.6.53.78.78 0 0 0 .07.73 2.94 2.94 0 0 0 .81.8 4.53 4.53 0 0 1 .87.77 1.66 1.66 0 0 1 .34.66 1.27 1.27 0 0 1-.07.72 1.19 1.19 0 0 1-.83.77 2.15 2.15 0 0 1-1.37-.12 2.63 2.63 0 0 1-.9-.56 1.52 1.52 0 0 1-.46-.78 1.4 1.4 0 0 1 0-.86l.42.15a1.11 1.11 0 0 0 .08 1 1.76 1.76 0 0 0 .93.7 1.74 1.74 0 0 0 1 .11.89.89 0 0 0 .66-.56zm2.42 2.24a1.63 1.63 0 0 1-1.2-1.35 2.26 2.26 0 0 1 .08-1v-.14a2.12 2.12 0 0 1 .52-.92 1.94 1.94 0 0 1 .79-.5 1.53 1.53 0 0 1 .9 0 1.44 1.44 0 0 1 .95.82 2.13 2.13 0 0 1 0 1.41l-.07.23-2.7-.84v.08a1.6 1.6 0 0 0 0 1.18 1.27 1.27 0 0 0 .8.72 1.3 1.3 0 0 0 .62 0 1.53 1.53 0 0 0 .59-.24l.21.28a1.57 1.57 0 0 1-1.49.3zm1-3.58a1.09 1.09 0 0 0-.9.1 1.73 1.73 0 0 0-.68.81l2.27.7a1.47 1.47 0 0 0 0-1 1 1 0 0 0-.69-.64zm4.05 1.2l-.27-.1a1.14 1.14 0 0 0-.73 0 1.39 1.39 0 0 0-.56.54l-.68 2.64-.42-.12 1-3.84.42.1-.15.62a1.16 1.16 0 0 1 1.28-.4.68.68 0 0 1 .26.12zm1.33 3.34l1.87-3.08.44.09-2.19 3.57-.35-.06-.64-4.19.44.09zm2.81 1.16l-.42-.08.65-3.84.43.08zm.34-5.12a.37.37 0 0 1 .12-.2.32.32 0 0 1 .43.08.22.22 0 0 1 0 .22.29.29 0 0 1-.11.19.33.33 0 0 1-.24 0 .31.31 0 0 1-.2-.11.28.28 0 0 1 0-.18zm2.47 5.22a1.23 1.23 0 0 0 .8-.15.93.93 0 0 0 .41-.63h.42a1.21 1.21 0 0 1-.31.63 1.36 1.36 0 0 1-.61.39 1.78 1.78 0 0 1-.76.08 1.55 1.55 0 0 1-1.15-.69 2.23 2.23 0 0 1-.23-1.41v-.13a2.74 2.74 0 0 1 .33-1 1.61 1.61 0 0 1 .68-.61 1.5 1.5 0 0 1 .91-.13 1.45 1.45 0 0 1 1 .5 1.43 1.43 0 0 1 .32 1.09h-.42a1.06 1.06 0 0 0-.23-.8 1.15 1.15 0 0 0-.73-.37 1.12 1.12 0 0 0-1 .31 1.9 1.9 0 0 0-.47 1.15 1.84 1.84 0 0 0 .17 1.28 1.13 1.13 0 0 0 .82.5zm4.06.78a1.5 1.5 0 0 1-.89-.31 1.46 1.46 0 0 1-.59-.73 2.17 2.17 0 0 1-.16-1v-.15a2.35 2.35 0 0 1 .28-1 1.75 1.75 0 0 1 .67-.68 1.48 1.48 0 0 1 .87-.21 1.46 1.46 0 0 1 1.11.58 1.9 1.9 0 0 1 .32 1.37v.24l-2.81-.19v.08a1.58 1.58 0 0 0 .31 1.15 1.27 1.27 0 0 0 .93.51 1.36 1.36 0 0 0 .63-.09 1.42 1.42 0 0 0 .51-.37l.25.23a1.55 1.55 0 0 1-1.43.59zm.17-3.72a1.09 1.09 0 0 0-.86.3 1.72 1.72 0 0 0-.47.95l2.36.15a1.37 1.37 0 0 0-.25-1 1 1 0 0 0-.78-.47zm8.28 1.34a3 3 0 0 1-.23 1.28 2 2 0 0 1-3.32.56 2.76 2.76 0 0 1-.61-1.79v-.55a2.94 2.94 0 0 1 .23-1.28 2 2 0 0 1 .72-.88 1.94 1.94 0 0 1 1.07-.32 1.88 1.88 0 0 1 1.83 1.08 2.86 2.86 0 0 1 .3 1.28zm-.47-.56a2.37 2.37 0 0 0-.47-1.5 1.55 1.55 0 0 0-1.19-.55 1.58 1.58 0 0 0-1.19.55 2.44 2.44 0 0 0-.41 1.53v.55a2.52 2.52 0 0 0 .49 1.5 1.43 1.43 0 0 0 1.2.53 1.46 1.46 0 0 0 1.18-.58 2.43 2.43 0 0 0 .39-1.53zm3.29-.9h-.31a1.12 1.12 0 0 0-.67.28 1.32 1.32 0 0 0-.36.69l.22 2.72h-.43l-.31-4h.42v.63a1.15 1.15 0 0 1 1.05-.79.76.76 0 0 1 .3 0zm.69 1.54a2.26 2.26 0 0 1 .23-1.51 1.28 1.28 0 0 1 1-.7 1.38 1.38 0 0 1 1.28.49v-.58h.41L330 257a1.66 1.66 0 0 1-.27 1.28 1.51 1.51 0 0 1-1.08.59 1.7 1.7 0 0 1-.81-.07 1.53 1.53 0 0 1-.65-.41l.2-.3a1.45 1.45 0 0 0 1.18.43 1.18 1.18 0 0 0 .81-.44 1.28 1.28 0 0 0 .19-.93v-.49a1.38 1.38 0 0 1-1.14.73 1.32 1.32 0 0 1-1.17-.4 2.39 2.39 0 0 1-.6-1.42zm.44 0a2.13 2.13 0 0 0 .47 1.15 1 1 0 0 0 .9.32 1.16 1.16 0 0 0 1-.86l-.23-1.83a1.32 1.32 0 0 0-.51-.51 1.12 1.12 0 0 0-.72-.12 1 1 0 0 0-.8.54 2.29 2.29 0 0 0-.12 1.32zm6.78.89a2.33 2.33 0 0 1-.2-.52 1.53 1.53 0 0 1-.48.56 1.92 1.92 0 0 1-.72.31 1.29 1.29 0 0 1-1-.14 1.11 1.11 0 0 1-.52-.81 1.1 1.1 0 0 1 .32-.91 2.24 2.24 0 0 1 1.28-.57l.78-.16-.09-.43a1 1 0 0 0-.37-.62 1.35 1.35 0 0 0-1.5.28.71.71 0 0 0-.19.62l-.44.08a1.07 1.07 0 0 1 .28-.89 1.69 1.69 0 0 1 1-.55 1.58 1.58 0 0 1 1.09.13 1.21 1.21 0 0 1 .56.83l.35 1.84a2.35 2.35 0 0 0 .28.82zm-1.41 0a1.45 1.45 0 0 0 .73-.34 1.51 1.51 0 0 0 .38-.66l-.17-.85-.76.14a1.87 1.87 0 0 0-1 .43.74.74 0 0 0-.25.62.73.73 0 0 0 .35.57.94.94 0 0 0 .68 0zm2.51-4.3l.18.65a1.62 1.62 0 0 1 .39-.67 1.6 1.6 0 0 1 .67-.38 1.2 1.2 0 0 1 1 .12 1.66 1.66 0 0 1 .58 1l.64 2.56-.43.1-.64-2.56a1.16 1.16 0 0 0-.42-.71.84.84 0 0 0-.74-.08 1.12 1.12 0 0 0-.64.42 1.57 1.57 0 0 0-.28.78l.67 2.56-.42.12-1-3.84zM338 250a.26.26 0 0 1 0-.21.35.35 0 0 1 .2-.16.3.3 0 0 1 .23 0 .28.28 0 0 1 .14.18.41.41 0 0 1 0 .22.35.35 0 0 1-.2.14.28.28 0 0 1-.22 0 .33.33 0 0 1-.15-.17zm2 4.74l-.42.13-1.14-3.87.41-.13zm1.41-.82l2.43-.84.12.35-2.88 1-.12-.29 1.21-3.84-2.2.75-.12-.36 2.71-.93.11.31zm5.78-1.8a2.8 2.8 0 0 1-.3-.49 1.4 1.4 0 0 1-.36.65 1.88 1.88 0 0 1-.64.44 1.35 1.35 0 0 1-1 0 1.08 1.08 0 0 1-.66-.69 1.1 1.1 0 0 1 .12-.95 2.24 2.24 0 0 1 1.12-.82l.7-.18-.17-.41a.86.86 0 0 0-.5-.52 1.15 1.15 0 0 0-1.4.51.63.63 0 0 0-.07.62l-.41.17a1.07 1.07 0 0 1 .09-.92 1.78 1.78 0 0 1 .87-.73 1.47 1.47 0 0 1 1.09-.09 1.16 1.16 0 0 1 .72.7l.71 1.73a2.31 2.31 0 0 0 .44.74zm-1.4.23a1.6 1.6 0 0 0 .65-.5 1.33 1.33 0 0 0 .25-.72l-.34-.81-.71.31a1.89 1.89 0 0 0-.86.61.75.75 0 0 0-.13.66.71.71 0 0 0 .46.48.89.89 0 0 0 .68 0zm1.42-5.71l.44.91.74-.35.15.32-.74.36 1.13 2.38a.71.71 0 0 0 .32.4.51.51 0 0 0 .42 0l.31-.18.16.3a1.27 1.27 0 0 1-.39.26.8.8 0 0 1-.71 0 1.27 1.27 0 0 1-.51-.61L347.4 248l-.65.32-.15-.33.65-.31-.44-.92zm1.42-.84a.45.45 0 0 1 0-.23.29.29 0 0 1 .17-.17.24.24 0 0 1 .23 0 .26.26 0 0 1 .17.14.26.26 0 0 1 0 .21.28.28 0 0 1-.17.18.31.31 0 0 1-.23 0 .27.27 0 0 1-.17-.13zm2.78 4.28l-.4.19-1.79-3.53.4-.19zm0-2.23a2.52 2.52 0 0 1-.3-1 1.63 1.63 0 0 1 .19-.92 1.71 1.71 0 0 1 .68-.68 1.63 1.63 0 0 1 1.38-.14 2 2 0 0 1 1.15 1v.07a2.44 2.44 0 0 1 .32 1 1.61 1.61 0 0 1-.87 1.58 1.68 1.68 0 0 1-1.38.16 2.13 2.13 0 0 1-1.15-1zm.45-.11a1.78 1.78 0 0 0 .9.83 1.2 1.2 0 0 0 1.06-.08 1.16 1.16 0 0 0 .61-.87 1.82 1.82 0 0 0-.28-1.28v-.06a1.79 1.79 0 0 0-.55-.64 1.3 1.3 0 0 0-.7-.28 1.28 1.28 0 0 0-1.28 1 1.85 1.85 0 0 0 .27 1.28zm2.77-4l.38.56a1.58 1.58 0 0 1 .17-.77 1.31 1.31 0 0 1 .51-.56 1.16 1.16 0 0 1 1-.22 1.67 1.67 0 0 1 .86.73l1.41 2.18-.36.24-1.42-2.24a1.15 1.15 0 0 0-.61-.54.88.88 0 0 0-.75.17 1.1 1.1 0 0 0-.46.6 1.47 1.47 0 0 0 0 .83l1.48 2.28-.36.23-2.17-3.31zm6.72-1.07a.65.65 0 0 0-.52-.26 2.07 2.07 0 0 0-.81.21 3.06 3.06 0 0 1-.82.28 1 1 0 0 1-.55 0 .73.73 0 0 1-.41-.32.93.93 0 0 1-.16-.85 1.83 1.83 0 0 1 1.68-1.21 1.06 1.06 0 0 1 .83.45l-.36.26a.68.68 0 0 0-.57-.3 1.24 1.24 0 0 0-.72.26 1.08 1.08 0 0 0-.45.56.61.61 0 0 0 .09.57.56.56 0 0 0 .45.23 2.58 2.58 0 0 0 .81-.23 4.44 4.44 0 0 1 .87-.29 1.32 1.32 0 0 1 .56 0 1.07 1.07 0 0 1 .42.34 1 1 0 0 1 .16.89 1.8 1.8 0 0 1-.68.86 1.71 1.71 0 0 1-1.1.4 1.07 1.07 0 0 1-.85-.42l.35-.26a.77.77 0 0 0 .61.28 1.29 1.29 0 0 0 .77-.29 1.24 1.24 0 0 0 .47-.61.57.57 0 0 0-.07-.55zm5.74-2.16l-.28.24-4.21-4.71.28-.24zm3.93-7.28a.59.59 0 0 0-.56-.19 3 3 0 0 0-.9.39 4.05 4.05 0 0 1-1 .46 1.38 1.38 0 0 1-1.39-.27 1.27 1.27 0 0 1-.47-1.1 2 2 0 0 1 .61-1.28 2.42 2.42 0 0 1 .82-.6 1.74 1.74 0 0 1 .9-.1 1.55 1.55 0 0 1 .78.38l-.61.68a.88.88 0 0 0-.67-.25 1.08 1.08 0 0 0-.68.39 1.13 1.13 0 0 0-.33.66.68.68 0 0 0 .23.55.56.56 0 0 0 .54.12 2.89 2.89 0 0 0 .88-.39 4.05 4.05 0 0 1 1-.46 1.47 1.47 0 0 1 .78 0 1.29 1.29 0 0 1 .64.36 1.27 1.27 0 0 1 .43 1.08 2.15 2.15 0 0 1-.64 1.28 2.77 2.77 0 0 1-.88.64 1.79 1.79 0 0 1-.94.16 1.47 1.47 0 0 1-.83-.4l.63-.68a.83.83 0 0 0 .72.24 1.2 1.2 0 0 0 .76-.46 1.13 1.13 0 0 0 .35-.66.65.65 0 0 0-.17-.55zm3.37-1.79a1.85 1.85 0 0 1-1.28.73 1.92 1.92 0 0 1-1.43-.48l-.09-.07a2.44 2.44 0 0 1-.68-.85 1.81 1.81 0 0 1-.17-.95 1.71 1.71 0 0 1 .39-.88 1.5 1.5 0 0 1 1.17-.65 2.17 2.17 0 0 1 1.42.57l.29.23-1.63 2a1.24 1.24 0 0 0 .81.23 1 1 0 0 0 .68-.38 1.29 1.29 0 0 0 .24-1.09l.65-.08a1.5 1.5 0 0 1 0 .84 1.8 1.8 0 0 1-.37.82zm-2.7-2.05a.75.75 0 0 0-.17.63 1.4 1.4 0 0 0 .37.66l1.07-1.28a1 1 0 0 0-.68-.24.74.74 0 0 0-.58.23zm2.81-3.39a2.09 2.09 0 0 0-.24.28.82.82 0 0 0-.1.94l2.18 1.6-.52.71-3.2-2.32.5-.7.37.25a1 1 0 0 1 .1-1 .66.66 0 0 1 .23-.21zm2.82-.57l-1.91-2.26.5-.76 2.56 3.32-.42.64-4.07-1 .51-.77zm-2-4a.53.53 0 0 1-.23-.28.62.62 0 0 1 .08-.4.53.53 0 0 1 .31-.24.38.38 0 0 1 .36 0 .46.46 0 0 1 .23.28.56.56 0 0 1-.08.38.53.53 0 0 1-.31.26.55.55 0 0 1-.36 0zm4.77 1.75l-.45.76-3.41-2 .46-.76zm.78-2.69a.72.72 0 0 0 .09-.57.65.65 0 0 0-.31-.44l.4-.74a1.37 1.37 0 0 1 .5.54 1.4 1.4 0 0 1 .16.75 1.63 1.63 0 0 1-.22.8 1.66 1.66 0 0 1-1.08.89 2.1 2.1 0 0 1-1.55-.28h-.08a2.13 2.13 0 0 1-1-1.11 1.85 1.85 0 0 1 1.05-2.24 1.47 1.47 0 0 1 1.18.11l-.4.73a.88.88 0 0 0-.6 0 .86.86 0 0 0-.5 1.13 1.68 1.68 0 0 0 .72.65l.13.08a1.6 1.6 0 0 0 1 .24.76.76 0 0 0 .59-.54zm2.48-3.45a1.86 1.86 0 0 1-1.06 1 1.89 1.89 0 0 1-1.51-.13h-.09a2.27 2.27 0 0 1-.87-.66 1.71 1.71 0 0 1-.39-.89 1.79 1.79 0 0 1 .16-.94 1.52 1.52 0 0 1 1-.91 2.1 2.1 0 0 1 1.51.22l.32.15-1.09 2.34a1.19 1.19 0 0 0 .83 0 1 1 0 0 0 .58-.54 1.25 1.25 0 0 0 0-1.1l.62-.24a1.76 1.76 0 0 1 .23.81 1.93 1.93 0 0 1-.24.87zm-3.12-1.28a.72.72 0 0 0 0 .64 1.23 1.23 0 0 0 .56.47l.72-1.54a1.08 1.08 0 0 0-.71 0 .77.77 0 0 0-.53.38zm3.94-7.79a3.26 3.26 0 0 1 1.2.72 2 2 0 0 1 .6 1 2.26 2.26 0 0 1-.09 1.21 2.09 2.09 0 0 1-1.79 1.42 3.21 3.21 0 0 1-1.37-.18l-.28-.1a3.59 3.59 0 0 1-1.2-.72 2.06 2.06 0 0 1-.6-1.05 2.1 2.1 0 0 1 .07-1.19 2.31 2.31 0 0 1 .69-1 2.2 2.2 0 0 1 1.11-.43 3.42 3.42 0 0 1 1.38.19zm-.58.78a2.25 2.25 0 0 0-1.38-.12 1.11 1.11 0 0 0-.77.73 1.15 1.15 0 0 0 .13 1.05 2.53 2.53 0 0 0 1.14.76l.29.11a2.4 2.4 0 0 0 1.4.12 1.14 1.14 0 0 0 .77-.74 1.15 1.15 0 0 0-.13-1.05 2.54 2.54 0 0 0-1.18-.77zm.78-3.8c0 .12-.09.23-.12.35a.82.82 0 0 0 .21.92l2.56.76-.25.84-3.84-1.09.24-.82.42.11a1 1 0 0 1-.24-1 .83.83 0 0 1 .14-.3zm1.23-.12a2.32 2.32 0 0 1-1.28-.76 1.44 1.44 0 0 1-.28-1.28 1.3 1.3 0 0 1 .71-.92l-.39-.13.19-.78 3.74.87a1.6 1.6 0 0 1 1.08.74 1.8 1.8 0 0 1 .14 1.38 2.1 2.1 0 0 1-.36.79 1.54 1.54 0 0 1-.62.51l-.42-.53a1.29 1.29 0 0 0 .71-.88 1 1 0 0 0-.08-.73.91.91 0 0 0-.63-.41h-.25a1.27 1.27 0 0 1 .17 1.1 1.3 1.3 0 0 1-.79 1 2.43 2.43 0 0 1-1.64.06zm.28-.85a1.57 1.57 0 0 0 1 0 .75.75 0 0 0 .49-.58.82.82 0 0 0-.27-.88l-1.69-.4a.81.81 0 0 0-.61.67.72.72 0 0 0 .18.74 1.71 1.71 0 0 0 1 .45zm3.09-5.54h-.38a1.39 1.39 0 0 1 .25 1.1 1.42 1.42 0 0 1-.49.91 1.19 1.19 0 0 1-1.77-.4 2.33 2.33 0 0 1-.12-1.38l.1-.54h-.25a.63.63 0 0 0-.8.56.88.88 0 0 0 .08.53.48.48 0 0 0 .35.25l-.16.88a1.11 1.11 0 0 1-.56-.31 1.39 1.39 0 0 1-.33-.65 2 2 0 0 1 0-.85 1.68 1.68 0 0 1 .52-1 1.29 1.29 0 0 1 1-.25l1.76.29a1.83 1.83 0 0 0 .87 0zm-.79.86a1.14 1.14 0 0 0 0-.52.85.85 0 0 0-.29-.39l-.73-.13-.09.47a1.44 1.44 0 0 0 0 .77.61.61 0 0 0 .44.32.54.54 0 0 0 .44-.1.76.76 0 0 0 .23-.42zm-2.78-4h.51a1.41 1.41 0 0 1-.41-1.2c.09-.82.6-1.18 1.54-1.1l2.56.28-.09.88-2.56-.27a.83.83 0 0 0-.58.1.74.74 0 0 0-.23.52.84.84 0 0 0 .4.84l2.8.3-.1.88-3.93-.41zm-.77-3.37a.47.47 0 0 1-.45-.53.52.52 0 0 1 .16-.36.42.42 0 0 1 .34-.12.44.44 0 0 1 .35.17.48.48 0 0 1 .09.37.45.45 0 0 1-.16.36.44.44 0 0 1-.33.11zm5-.64v.89l-3.95-.25V191zm-.58-2.07v-2.11h.71v3.21h-.59l-2.56-2v2h-.72v-3.09h.57zm.67-5.34a1 1 0 0 1-.37.12 1.5 1.5 0 0 1 .18 2 1.13 1.13 0 0 1-.83.41 1.16 1.16 0 0 1-1-.44 2.31 2.31 0 0 1-.38-1.28v-.54h-.26a.74.74 0 0 0-.49.18.77.77 0 0 0-.16.54.74.74 0 0 0 .18.49.44.44 0 0 0 .38.18v.89a1 1 0 0 1-.61-.19 1.5 1.5 0 0 1-.48-.58 2 2 0 0 1-.19-.81 1.75 1.75 0 0 1 .31-1.13 1.25 1.25 0 0 1 1-.46h1.78a2 2 0 0 0 .84-.18zm-.6 1a1.23 1.23 0 0 0-.16-.49.8.8 0 0 0-.35-.33h-.75v.49a1.35 1.35 0 0 0 .21.73.54.54 0 0 0 .5.23.49.49 0 0 0 .39-.19.73.73 0 0 0 .15-.49zm-4.52-3.53l1-.08v-.7h.67v.69l2.21-.27a.47.47 0 0 0 .32-.12.39.39 0 0 0 .08-.32 1.5 1.5 0 0 0 0-.3h.69a2.77 2.77 0 0 1 .13.57c.06.68-.29 1.05-1 1.12l-2.24.19v.65l-.67.07v-.66l-1 .08zm-.2-1.31a.46.46 0 0 1-.36-.09.5.5 0 0 1-.18-.36.52.52 0 0 1 .09-.38.44.44 0 0 1 .32-.17.47.47 0 0 1 .36.09.52.52 0 0 1 .16.36.53.53 0 0 1-.07.39.52.52 0 0 1-.32.16zm4.83-1.53l.11.88-3.93.47-.11-.88zm-2.07-.62a2.11 2.11 0 0 1-1.06 0 1.83 1.83 0 0 1-1-2.79 2 2 0 0 1 1.28-.75h.21a2.42 2.42 0 0 1 1.07 0 1.72 1.72 0 0 1 1.28 1.43 1.78 1.78 0 0 1-.38 1.37 2.15 2.15 0 0 1-1.38.74zm0-.88a1.72 1.72 0 0 0 .91-.41.87.87 0 0 0 .22-.76.82.82 0 0 0-.46-.62 1.72 1.72 0 0 0-1.05-.08 1.59 1.59 0 0 0-.9.41.87.87 0 0 0 .22 1.37 1.78 1.78 0 0 0 1 .09zm-2.87-3.93l.44-.14a1.44 1.44 0 0 1-.78-1c-.18-.81.18-1.28 1.1-1.55l2.56-.59.19.87-2.5.58a.84.84 0 0 0-.5.28.69.69 0 0 0-.06.56.89.89 0 0 0 .65.67l2.76-.63.2.86-3.84.9zm1.35-6.17a.39.39 0 0 0-.28.29 1.56 1.56 0 0 0 0 .68 3.66 3.66 0 0 1 0 .81 1 1 0 0 1-.71.9 1.06 1.06 0 0 1-.93-.17 1.67 1.67 0 0 1-.66-1 1.86 1.86 0 0 1 0-1.19 1.1 1.1 0 0 1 .76-.68l.26.84a.58.58 0 0 0-.36.31.7.7 0 0 0 0 .53.83.83 0 0 0 .27.42.46.46 0 0 0 .39.08.35.35 0 0 0 .26-.26 2.24 2.24 0 0 0 0-.73 3.17 3.17 0 0 1 0-.87 1.13 1.13 0 0 1 .24-.52.94.94 0 0 1 .48-.3 1 1 0 0 1 1 .18 1.89 1.89 0 0 1 .65 1 2.19 2.19 0 0 1 .07.88 1.4 1.4 0 0 1-.29.71 1.13 1.13 0 0 1-.58.4l-.24-.84a.62.62 0 0 0 .4-.36 1.06 1.06 0 0 0 0-.61 1.08 1.08 0 0 0-.28-.47.47.47 0 0 0-.41-.08zm-94 3.57h-10.89l-2.39 6.67h-2.18l9-23.87h1.92l9 23.87h-2zm-10.24-1.7h9.57l-4.76-13zm20.44 8.37h-2v-23.86h2zm23-7.41a8.52 8.52 0 0 1-2.69 5.77 8.94 8.94 0 0 1-6.09 2 8.45 8.45 0 0 1-4.7-1.28 8.76 8.76 0 0 1-3.16-3.76 13.5 13.5 0 0 1-1.13-5.56v-3.15a13.49 13.49 0 0 1 1.11-5.64 8.28 8.28 0 0 1 8-5.12 7.95 7.95 0 0 1 8.64 7.78h-2q-.76-6.09-6.61-6.08a6.25 6.25 0 0 0-5.12 2.42 10.57 10.57 0 0 0-2 6.72v2.92a10.56 10.56 0 0 0 1.91 6.55 6 6 0 0 0 5.12 2.46 6.72 6.72 0 0 0 4.77-1.51 7.44 7.44 0 0 0 2-4.56zm6.59-2.28v9.69h-2v-23.86h8.12a8.57 8.57 0 0 1 5.88 1.9 7.46 7.46 0 0 1 .09 10.41 8.88 8.88 0 0 1-6 1.82zm0-1.7h6.1a6.42 6.42 0 0 0 4.48-1.41 5 5 0 0 0 1.54-3.84 5.22 5.22 0 0 0-1.52-3.94 6.14 6.14 0 0 0-4.35-1.51h-6.25zm28.94 4.72h-10.84l-2.46 6.67h-2.15l9-23.87h1.9l9.08 23.87h-2.1zm-10.24-1.7h9.57l-4.76-13zm-44.89 41.3a3.83 3.83 0 0 0-1.4-3.13 14.24 14.24 0 0 0-5.12-2.2 17.72 17.72 0 0 1-5.4-2.27 5.51 5.51 0 0 1-.18-9 9.28 9.28 0 0 1 5.76-1.71 9.52 9.52 0 0 1 4.27.92 7 7 0 0 1 2.9 2.56 6.63 6.63 0 0 1 1 3.62h-2a5.07 5.07 0 0 0-1.67-3.94 6.57 6.57 0 0 0-4.5-1.49 7.11 7.11 0 0 0-4.35 1.28 3.84 3.84 0 0 0-1.62 3.19 3.58 3.58 0 0 0 1.46 3 13.26 13.26 0 0 0 4.67 2 22.55 22.55 0 0 1 4.9 1.75 7.1 7.1 0 0 1 2.56 2.25 5.64 5.64 0 0 1 .83 3.1 5.41 5.41 0 0 1-2.25 4.53 9.54 9.54 0 0 1-5.94 1.7 11.86 11.86 0 0 1-4.63-.9 7 7 0 0 1-3.2-2.56 6.35 6.35 0 0 1-1.19-3.67h2a4.77 4.77 0 0 0 1.88 4 8 8 0 0 0 5 1.46 7.43 7.43 0 0 0 4.46-1.28 3.85 3.85 0 0 0 1.76-3.24zm23.65-4.77a13.73 13.73 0 0 1-1.13 5.79 8.7 8.7 0 0 1-3.26 3.84 9 9 0 0 1-4.89 1.28 8.48 8.48 0 0 1-6.69-2.94 12 12 0 0 1-2.56-8.07v-2.46a13.65 13.65 0 0 1 1.15-5.77 8.62 8.62 0 0 1 8.14-5.23 9.07 9.07 0 0 1 4.87 1.28 8.84 8.84 0 0 1 3.25 3.76 13.4 13.4 0 0 1 1.19 5.61zm-2-2.56a10.47 10.47 0 0 0-1.95-6.76 7 7 0 0 0-10.64 0 10.62 10.62 0 0 0-2 6.85v2.47a10.52 10.52 0 0 0 2 6.73A7 7 0 0 0 325 212a10.69 10.69 0 0 0 1.92-6.73zm23.67 5.76a8.63 8.63 0 0 1-2.7 5.76 9 9 0 0 1-6.09 2 8.48 8.48 0 0 1-4.7-1.28 8.7 8.7 0 0 1-3.15-3.77 13.43 13.43 0 0 1-1.14-5.55v-3.15a13.58 13.58 0 0 1 1.12-5.63 8.53 8.53 0 0 1 3.2-3.89 8.78 8.78 0 0 1 4.81-1.28 7.95 7.95 0 0 1 8.64 7.78h-2c-.5-4-2.72-6.08-6.61-6.08a6.24 6.24 0 0 0-5.12 2.43 10.51 10.51 0 0 0-1.93 6.71v2.92a10.62 10.62 0 0 0 1.88 6.6 6.05 6.05 0 0 0 5.12 2.46 6.74 6.74 0 0 0 4.78-1.52 7.37 7.37 0 0 0 2-4.55zM366.42 185.81h-91a.9.9 0 0 1 0-1.79h91a.9.9 0 1 1 0 1.79zM290.34 229.74a1.64 1.64 0 0 1-.1-.49 1.78 1.78 0 0 1-1.28.58 1.69 1.69 0 0 1-1.12-.38 1.33 1.33 0 0 1-.43-1 1.26 1.26 0 0 1 .55-1.12 2.6 2.6 0 0 1 1.54-.4h.76v-.36a.84.84 0 0 0-.25-.65 1 1 0 0 0-.77-.18 1.15 1.15 0 0 0-.7.2.65.65 0 0 0-.29.52h-.79a1.16 1.16 0 0 1 .24-.72 1.74 1.74 0 0 1 .67-.5 2.23 2.23 0 0 1 .92-.19 1.76 1.76 0 0 1 1.28.4 1.38 1.38 0 0 1 .47 1.1v2.11a2.68 2.68 0 0 0 .17 1zm-1.28-.6a1.41 1.41 0 0 0 .7-.19 1.28 1.28 0 0 0 .49-.49v-1h-.63c-1 0-1.44.29-1.44.85a.69.69 0 0 0 .25.57.91.91 0 0 0 .61.21zm3-5.22a.47.47 0 0 1 .12-.32.51.51 0 0 1 .69 0 .52.52 0 0 1 .11.32.43.43 0 0 1-.11.32.53.53 0 0 1-.69 0 .49.49 0 0 1-.12-.32zm.85 5.82h-.79v-4.59h.79zm2.89-.55a1.16 1.16 0 0 0 .73-.26.84.84 0 0 0 .34-.64h.72a1.47 1.47 0 0 1-.28.76 1.74 1.74 0 0 1-.67.56 1.91 1.91 0 0 1-.88.22 1.87 1.87 0 0 1-1.5-.63 2.56 2.56 0 0 1-.51-1.71v-.14a2.7 2.7 0 0 1 .24-1.19 1.92 1.92 0 0 1 .71-.81 2 2 0 0 1 1.09-.29 1.86 1.86 0 0 1 1.28.46 1.65 1.65 0 0 1 .55 1.2h-.76a1.06 1.06 0 0 0-1.09-1 1.07 1.07 0 0 0-.92.43 2.07 2.07 0 0 0-.33 1.28v.14a2 2 0 0 0 .33 1.28 1.1 1.1 0 0 0 .95.36zm6.37-1.7a2.78 2.78 0 0 1-.47 1.7 1.55 1.55 0 0 1-1.28.64 1.67 1.67 0 0 1-1.28-.54v2.22h-.78v-6.4h.64v.5a1.64 1.64 0 0 1 1.28-.59 1.55 1.55 0 0 1 1.28.62 2.8 2.8 0 0 1 .48 1.75zm-.74-.09a2.14 2.14 0 0 0-.33-1.28 1.07 1.07 0 0 0-.95-.36 1.19 1.19 0 0 0-1.08.64v2.19a1.21 1.21 0 0 0 1.09.64 1.07 1.07 0 0 0 .9-.45 2.25 2.25 0 0 0 .37-1.38zm4.38 2.34a1.36 1.36 0 0 1-.12-.49 1.74 1.74 0 0 1-1.28.58 1.62 1.62 0 0 1-1.12-.38 1.3 1.3 0 0 1-.44-1 1.28 1.28 0 0 1 .55-1.12 2.62 2.62 0 0 1 1.54-.4h.77v-.36a.87.87 0 0 0-.25-.65.93.93 0 0 0-.73-.24 1.09 1.09 0 0 0-.7.2.63.63 0 0 0-.3.51h-.78a1.08 1.08 0 0 1 .25-.66 1.6 1.6 0 0 1 .65-.5 2.08 2.08 0 0 1 .92-.19 1.8 1.8 0 0 1 1.28.39 1.49 1.49 0 0 1 .46 1.1v2.12a2.72 2.72 0 0 0 .17 1zm-1.28-.6a1.31 1.31 0 0 0 .69-.19 1.22 1.22 0 0 0 .49-.49v-1h-.62c-1 0-1.45.29-1.45.85a.69.69 0 0 0 .25.57.91.91 0 0 0 .61.21zm3 .19a.43.43 0 0 1 .13-.34.39.39 0 0 1 .35-.13.46.46 0 0 1 .37.13.47.47 0 0 1 .12.34.43.43 0 0 1-.49.46.45.45 0 0 1-.35-.13.4.4 0 0 1-.13-.33zm1.85-1.93a2.7 2.7 0 0 1 .26-1.28 1.92 1.92 0 0 1 .74-.83 2.11 2.11 0 0 1 1.09-.3 2 2 0 0 1 1.51.77 2.59 2.59 0 0 1 .58 1.73 3 3 0 0 1-.26 1.28 2.19 2.19 0 0 1-.74.83 2 2 0 0 1-1.1.29 1.92 1.92 0 0 1-1.51-.65 2.52 2.52 0 0 1-.58-1.73zm.78.09a2 2 0 0 0 .36 1.28 1.11 1.11 0 0 0 1 .47 1.16 1.16 0 0 0 1-.47 2.31 2.31 0 0 0 .35-1.28 2 2 0 0 0-.36-1.28 1.16 1.16 0 0 0-.95-.48 1.19 1.19 0 0 0-1 .48 2.22 2.22 0 0 0-.36 1.28zm6.4-1.64h-.38a1.07 1.07 0 0 0-1.06.67v3.26h-.78v-4.63h.66v.52a1.29 1.29 0 0 1 1.09-.61.73.73 0 0 1 .36 0zm.32 1.55a2.8 2.8 0 0 1 .49-1.64 1.73 1.73 0 0 1 2.64 0v-.5h.71v4.34a1.89 1.89 0 0 1-.52 1.41 2 2 0 0 1-1.42.51 2.3 2.3 0 0 1-1-.22 1.65 1.65 0 0 1-.73-.57l.41-.48a1.52 1.52 0 0 0 1.28.63 1.18 1.18 0 0 0 .89-.33 1.24 1.24 0 0 0 .33-.91v-.4a1.6 1.6 0 0 1-1.28.55 1.56 1.56 0 0 1-1.28-.65 3 3 0 0 1-.55-1.74zm.78.09a2.21 2.21 0 0 0 .32 1.28 1.08 1.08 0 0 0 .9.45 1.19 1.19 0 0 0 1.1-.68v-2.15a1.17 1.17 0 0 0-1.09-.67 1.05 1.05 0 0 0-.89.45 2.25 2.25 0 0 0-.34 1.32zm4.28 2.79h-.68l2.56-6.73h.68zm5.85-1.76a.56.56 0 0 0-.24-.49 2.31 2.31 0 0 0-.84-.31 3.71 3.71 0 0 1-1-.31 1.3 1.3 0 0 1-.51-.42 1 1 0 0 1-.16-.59 1.15 1.15 0 0 1 .47-1 2.16 2.16 0 0 1 2.56 0 1.32 1.32 0 0 1 .49 1h-.8a.69.69 0 0 0-.27-.55 1.08 1.08 0 0 0-.69-.25 1.11 1.11 0 0 0-.68.2.6.6 0 0 0-.24.48.49.49 0 0 0 .23.44 3.46 3.46 0 0 0 .82.28 3.92 3.92 0 0 1 .95.31 1.64 1.64 0 0 1 .55.43 1.11 1.11 0 0 1 .16.64 1.19 1.19 0 0 1-.48 1 2.11 2.11 0 0 1-1.28.37 2.39 2.39 0 0 1-1.09-.22 1.87 1.87 0 0 1-.67-.55 1.36 1.36 0 0 1-.23-.76h.78a.85.85 0 0 0 .32.63 1.19 1.19 0 0 0 .79.23 1.26 1.26 0 0 0 .71-.18.56.56 0 0 0 .31-.45zm1.38-1.12a2.84 2.84 0 0 1 .27-1.28 1.92 1.92 0 0 1 .74-.83 2.07 2.07 0 0 1 1.08-.3 1.94 1.94 0 0 1 1.52.65 2.61 2.61 0 0 1 .58 1.73 2.7 2.7 0 0 1-.26 1.28 2 2 0 0 1-.73.83 2.12 2.12 0 0 1-1.1.3 1.94 1.94 0 0 1-1.52-.65 2.59 2.59 0 0 1-.58-1.73zm.8.09a2 2 0 0 0 .35 1.28 1.1 1.1 0 0 0 .95.47 1.14 1.14 0 0 0 1-.47 2.17 2.17 0 0 0 .36-1.28 2 2 0 0 0-.36-1.28 1.21 1.21 0 0 0-1-.48 1.17 1.17 0 0 0-.94.48 2.05 2.05 0 0 0-.35 1.28zm6 1.7a1.14 1.14 0 0 0 .73-.26.88.88 0 0 0 .35-.64h.75a1.47 1.47 0 0 1-.28.76 1.74 1.74 0 0 1-.67.56 1.91 1.91 0 0 1-.88.22 1.87 1.87 0 0 1-1.5-.63 2.56 2.56 0 0 1-.55-1.71v-.14a2.71 2.71 0 0 1 .25-1.19 1.89 1.89 0 0 1 .7-.81 2 2 0 0 1 1.09-.29 1.84 1.84 0 0 1 1.28.46 1.65 1.65 0 0 1 .55 1.2H337a1 1 0 0 0-.33-.73 1 1 0 0 0-.73-.23 1.11 1.11 0 0 0-.92.44 2 2 0 0 0-.33 1.28v.14a2 2 0 0 0 .33 1.28 1.1 1.1 0 0 0 .92.29zm5.7-1.52h.85v.65h-.85v1.43h-.8v-1.43h-2.81v-.46l2.76-4.3h.85zm-2.72 0h1.92v-3l-.09.18zm6.82.85a.54.54 0 0 0-.24-.49 2.26 2.26 0 0 0-.83-.31 3.53 3.53 0 0 1-.95-.31 1.33 1.33 0 0 1-.52-.42 1.12 1.12 0 0 1-.17-.59 1.16 1.16 0 0 1 .49-1 2.25 2.25 0 0 1 2.56 0 1.25 1.25 0 0 1 .48 1h-.78a.67.67 0 0 0-.28-.55 1.17 1.17 0 0 0-1.36 0 .6.6 0 0 0-.24.49.53.53 0 0 0 .22.43 3.4 3.4 0 0 0 .78.18 4.14 4.14 0 0 1 1 .31 1.52 1.52 0 0 1 .54.43 1.23 1.23 0 0 1-.32 1.63 2.11 2.11 0 0 1-1.28.37 2.35 2.35 0 0 1-1-.19 1.76 1.76 0 0 1-.66-.55 1.29 1.29 0 0 1-.24-.76h.7a.9.9 0 0 0 .32.63 1.28 1.28 0 0 0 .78.23 1.31 1.31 0 0 0 .72-.18.54.54 0 0 0 .3-.44zm1.4-1.12a2.7 2.7 0 0 1 .26-1.28 1.92 1.92 0 0 1 .74-.83 2.08 2.08 0 0 1 1.09-.3 1.94 1.94 0 0 1 1.51.65 2.49 2.49 0 0 1 .56 1.8 2.83 2.83 0 0 1-.26 1.28 2 2 0 0 1-.74.83 2 2 0 0 1-1.1.29 1.94 1.94 0 0 1-1.51-.65 2.59 2.59 0 0 1-.58-1.73zm.78.09a2 2 0 0 0 .36 1.28 1.1 1.1 0 0 0 .95.47 1.18 1.18 0 0 0 1-.47 2.22 2.22 0 0 0 .34-1.28 1.94 1.94 0 0 0-.36-1.28 1.14 1.14 0 0 0-.94-.48 1.17 1.17 0 0 0-.95.48 2.15 2.15 0 0 0-.36 1.28z"
    fill="#fff"/>
</svg>
